
<svg xmlns="http://www.w3.org/2000/svg" width="30" height="30" viewBox="0 0 30 30"><defs><style>.a{fill:#fff;}.b{fill:#1b73c1;}</style></defs><g transform="translate(-149 -3742)"><circle class="a" cx="13" cy="13" r="13" transform="translate(151 3744)"/><path class="b" d="M38,23A15,15,0,1,1,23,8,15,15,0,0,1,38,23ZM21.265,30.942,32.394,19.813a.968.968,0,0,0,0-1.369l-1.369-1.369a.968.968,0,0,0-1.369,0l-9.076,9.076-4.237-4.237a.968.968,0,0,0-1.369,0l-1.369,1.369a.968.968,0,0,0,0,1.369l6.29,6.29a.968.968,0,0,0,1.369,0Z" transform="translate(141 3734)"/></g></svg>