<?xml version="1.0" encoding="UTF-8" standalone="no"?>
<svg width="217px" height="100px" viewBox="0 0 217 100" version="1.1" xmlns="http://www.w3.org/2000/svg" xmlns:xlink="http://www.w3.org/1999/xlink">
    <!-- Generator: Sketch 43.1 (39012) - http://www.bohemiancoding.com/sketch -->
    <title>logo</title>
    <desc>Created with Sketch.</desc>
    <defs></defs>
    <g id="LOGO" stroke="none" stroke-width="1" fill="none" fill-rule="evenodd">
        <g id="logo-ultima-version" transform="translate(-515.000000, -340.000000)">
            <g id="logo" transform="translate(515.000000, 340.000000)">
                <g id="igo" transform="translate(58.297521, 0.000000)" fill="#416182">
                    <polygon id="Fill-1" points="0.870240979 1.66337252 0.870240979 11.3740372 8.41418549 11.3740372 8.41418549 50.2983837 0.202814253 50.2983837 0.202814253 60.2609198 29.0572222 60.2609198 29.0572222 50.2983837 20.845851 50.2983837 20.845851 11.3740372 28.3931663 11.3740372 28.3931663 1.66337252"></polygon>
                    <path d="M35.2754145,30.9621461 C35.2754145,26.1085157 36.1046417,21.8096831 37.7597251,18.069052 C39.4181794,14.3318246 41.6159684,11.1936428 44.3530922,8.6511028 C47.0902159,6.11537019 50.2385824,4.18889413 53.8049333,2.87848198 C57.3712842,1.56466615 61.0556145,0.907758239 64.8714077,0.907758239 C67.746736,0.907758239 70.5782433,1.27195071 73.3693005,1.99693198 C76.1603578,2.72531692 78.7457936,3.86894935 81.1222373,5.43123293 C83.4986809,6.99351651 85.5717488,8.98806593 87.33807,11.4148812 C89.1077621,13.8416964 90.4055363,16.7620435 91.2381343,20.1623078 L79.0491694,20.1623078 C77.6131907,17.3168414 75.7187775,15.2814479 73.3693005,14.0527238 C71.0198236,12.8239997 68.1883163,12.2113395 64.8714077,12.2113395 C62.1646216,12.2113395 59.7612112,12.7014676 57.6611766,13.6749167 C55.561142,14.6517694 53.7745957,15.9791999 52.3116503,17.6504008 C50.845334,19.3284091 49.7430686,21.3093439 48.9947417,23.5966087 C48.2497856,25.8838736 47.8756221,28.3379182 47.8756221,30.9621461 C47.8756221,33.7531538 48.2767523,36.2922901 49.0790127,38.579555 C49.8779023,40.8702235 51.0138761,42.8375436 52.4801924,44.4815152 C53.939767,46.1288905 55.7229424,47.3984586 57.822977,48.2902196 C59.9230116,49.1853843 62.2758594,49.6312648 64.8714077,49.6312648 C66.8602045,49.6312648 68.7141677,49.4644851 70.4265554,49.1275219 C72.142314,48.7939625 73.6895305,48.1949169 75.0715758,47.3303853 C76.4502502,46.4624499 77.65027,45.3052028 78.6750059,43.8552403 C79.6997419,42.4052778 80.5121149,40.5911227 81.1222373,38.4127753 L65.2860213,38.4127753 L65.2860213,27.8648083 L92.481975,27.8648083 C92.6471462,30.7102747 92.6336629,33.4876678 92.438154,36.1935838 C92.2426452,38.9029034 91.6763437,41.5952048 90.7392496,44.2738914 C89.6336134,47.2316789 88.1807805,49.7708152 86.3874925,51.8913003 C84.5908337,54.0117854 82.558216,55.7408487 80.2896393,57.0818939 C78.0278043,58.4195354 75.5805729,59.4100028 72.9580578,60.053296 C70.328801,60.6931856 67.6354982,61.016534 64.8714077,61.016534 C61.0556145,61.016534 57.3712842,60.3596261 53.8049333,59.049214 C50.2385824,57.7388018 47.0902159,55.8123258 44.3530922,53.2731895 C41.6159684,50.7340532 39.4181794,47.5924677 37.7597251,43.8552403 C36.1046417,40.1146092 35.2754145,35.8191803 35.2754145,30.9621461" id="Fill-2"></path>
                    <path d="M111.629706,30.9621461 C111.629706,34.1445757 112.08477,36.918565 112.994897,39.2909216 C113.908395,41.6666818 115.152236,43.6340019 116.72979,45.1928818 C118.300603,46.758569 120.127599,47.9124125 122.200667,48.6680268 C124.273735,49.4202374 126.468153,49.7980445 128.790663,49.7980445 C131.055869,49.7980445 133.226691,49.4202374 135.296388,48.6680268 C137.372827,47.9124125 139.209936,46.758569 140.811086,45.1928818 C142.415607,43.6340019 143.686414,41.6666818 144.626879,39.2909216 C145.563973,36.918565 146.035891,34.1445757 146.035891,30.9621461 C146.035891,27.837579 145.563973,25.1010299 144.626879,22.7593064 C143.686414,20.4141792 142.42909,18.4774921 140.854907,16.9390342 C139.277353,15.4073837 137.453727,14.2467329 135.380659,13.4672929 C133.310962,12.6844493 131.14014,12.2964312 128.871563,12.2964312 C126.606357,12.2964312 124.425423,12.6844493 122.325388,13.4672929 C120.221983,14.2467329 118.384874,15.4209983 116.81069,16.9832819 C115.233136,18.5455655 113.975812,20.4992709 113.038718,22.8409944 C112.098253,25.1861216 111.629706,27.8954413 111.629706,30.9621461 M158.386656,30.9621461 C158.386656,35.4277585 157.655184,39.5155637 156.192238,43.2289654 C154.725922,46.9389634 152.696675,50.131604 150.097756,52.8102906 C147.498836,55.492381 144.363953,57.5686184 140.686365,59.049214 C137.008776,60.5264059 132.990732,61.2650018 128.625492,61.2650018 C124.755765,61.2650018 121.037726,60.6080939 117.471375,59.3010854 C113.908395,57.9872696 110.770141,56.0641972 108.063355,53.5216572 C105.356569,50.9859246 103.185747,47.8307244 101.55763,44.062864 C99.9227717,40.2984073 99.1103988,35.9280977 99.1103988,30.9621461 C99.1103988,26.054057 99.9396259,21.7109767 101.594709,17.9465199 C103.256535,14.1786595 105.464436,11.0132483 108.228527,8.44347906 C110.995988,5.87711343 114.157838,3.95063738 117.724189,2.66745456 C121.287169,1.38427175 125.005207,0.74097851 128.871563,0.74097851 C132.687356,0.74097851 136.361574,1.39788642 139.900958,2.70829858 C143.436972,4.0221144 146.571855,5.94518679 149.312349,8.48432307 C152.046102,11.026863 154.243891,14.1786595 155.902346,17.9465199 C157.557429,21.7109767 158.386656,26.054057 158.386656,30.9621461" id="Fill-4"></path>
                </g>
                <g id="Z" transform="translate(1.479339, 0.000000)">
                    <polygon id="Fill-22" fill="#1FD7DD" points="45.051304 40.8440153 34.1904509 40.8440153 34.1904509 1.66439362 45.051304 1.66439362"></polygon>
                    <polygon id="Fill-24" fill="#416182" points="18.8194112 49.0441321 45.1018666 3.50645871 45.1018666 1.66507436 33.7117913 1.66507436 25.5442411 14.4730768 0 58.5029253 0 60.2626216 45.3479381 60.2626216 45.3479381 49.0441321"></polygon>
                    <polygon id="Fill-25" fill="#FF5B5B" points="2.32082475 1.66371289 2.32082475 12.630331 26.6144834 12.630331 25.5459265 14.4717153 33.7101059 1.66371289"></polygon>
                </g>
                <path d="M0.254545455,88.8177489 C0.254545455,87.0852727 0.553243766,85.5469764 1.15064935,84.2028139 C1.74805494,82.8586513 2.54458377,81.7335543 3.54025974,80.8274892 C4.53593571,79.921424 5.6759676,79.2393962 6.96038961,78.7813853 C8.24481162,78.3233743 9.5740191,78.1043289 10.9480519,78.1242424 C12.0034685,78.1242424 13.0538909,78.2686133 14.0993506,78.5573593 C15.1448104,78.8461053 16.1106016,79.2941528 16.9967532,79.9015152 C17.8829049,80.5088775 18.6445856,81.2805148 19.2818182,82.2164502 C19.9190508,83.1523856 20.3571417,84.267526 20.5961039,85.5619048 L16.2649351,85.5619048 C15.8069241,84.3670936 15.119918,83.5008685 14.2038961,82.9632035 C13.2878742,82.4255384 12.2026037,82.15671 10.9480519,82.15671 C10.0121165,82.15671 9.16580465,82.3160157 8.40909091,82.634632 C7.65237717,82.9532483 7.00519749,83.4062741 6.46753247,83.9937229 C5.92986744,84.5811718 5.51168981,85.2831128 5.21298701,86.0995671 C4.91428422,86.9160214 4.76493506,87.8220729 4.76493506,88.8177489 C4.76493506,89.7138573 4.90930592,90.5601692 5.19805195,91.35671 C5.48679798,92.1532507 5.89999731,92.8502135 6.43766234,93.447619 C6.97532736,94.0450246 7.62250704,94.5179636 8.37922078,94.8664502 C9.13593452,95.2149368 9.9822464,95.3891775 10.9181818,95.3891775 C12.2324741,95.3891775 13.3774843,95.0805226 14.3532468,94.4632035 C15.3290092,93.8458844 15.9961021,92.9000064 16.3545455,91.6255411 L20.6558442,91.6255411 C20.4367954,92.999574 20.0086612,94.1844106 19.3714286,95.1800866 C18.7341959,96.1757626 17.9774936,96.9872263 17.1012987,97.6145022 C16.2251038,98.241778 15.2543343,98.7047604 14.188961,99.0034632 C13.1235877,99.302166 12.0432955,99.4515152 10.9480519,99.4515152 C9.5740191,99.4515152 8.24481162,99.2225131 6.96038961,98.7645022 C5.6759676,98.3064912 4.53593571,97.6294417 3.54025974,96.7333333 C2.54458377,95.837225 1.74805494,94.7270629 1.15064935,93.4028139 C0.553243766,92.0785648 0.254545455,90.5502251 0.254545455,88.8177489 L0.254545455,88.8177489 Z M41.9961042,95.7774892 L40.3831171,99.2424242 L35.7233769,99.2424242 L35.7233769,98.6450216 L45.3415587,78.1541126 L47.4025977,78.1541126 L56.9610392,98.6450216 L56.9610392,99.2424242 L52.3311691,99.2424242 L50.6883119,95.7774892 L41.9961042,95.7774892 Z M43.4597405,92.0138528 L49.2545457,92.0138528 L46.3571431,85.1138528 L43.4597405,92.0138528 Z M73.7610395,99.2125541 L73.7610395,78.3034632 C75.2545534,78.2835497 76.7430667,78.2785714 78.2266239,78.2885281 C79.7101811,78.2984849 81.1986944,78.3034632 82.6922083,78.3034632 C83.906933,78.3034632 84.9772686,78.5175303 85.9032473,78.945671 C86.8292259,79.3738117 87.6058415,79.9363602 88.2331174,80.6333333 C88.8603933,81.3303065 89.3333323,82.1417703 89.6519486,83.0677489 C89.9705649,83.9937276 90.1298707,84.9445839 90.1298707,85.9203463 C90.1298707,86.8961088 89.9655866,87.8270518 89.6370135,88.7132035 C89.3084404,89.5993551 88.8305231,90.380949 88.2032473,91.0580087 C87.5759714,91.7350683 86.7993558,92.2777036 85.8733771,92.6859307 C84.9473985,93.0941579 83.8870195,93.2982684 82.6922083,93.2982684 L78.241559,93.2982684 L78.241559,99.2125541 L73.7610395,99.2125541 Z M82.6922083,89.4748918 C83.1701328,89.4748918 83.6032453,89.3753257 83.991559,89.1761905 C84.3798726,88.9770553 84.713419,88.7132051 84.9922083,88.384632 C85.2709976,88.056059 85.4850647,87.6677512 85.6344161,87.219697 C85.7837675,86.7716428 85.8584421,86.2987038 85.8584421,85.8008658 C85.8584421,85.3229413 85.7837675,84.8649373 85.6344161,84.4268398 C85.4850647,83.9887424 85.2759759,83.6054129 85.0071434,83.2768398 C84.7383109,82.9482668 84.4097427,82.6893949 84.0214291,82.5002165 C83.6331155,82.311038 83.1900463,82.2164502 82.6922083,82.2164502 C81.9354946,82.1965367 81.1787922,82.1915584 80.4220784,82.2015152 C79.6653647,82.2114719 78.9086623,82.2164502 78.1519486,82.2164502 L78.1519486,89.4748918 L82.6922083,89.4748918 Z M116.906494,95.6878788 L116.906494,99.2424242 L106.511689,99.2424242 L106.511689,95.6878788 L109.468832,95.6878788 L109.468832,81.7982684 L106.75065,81.7982684 L106.75065,78.3333333 L116.667533,78.3333333 L116.667533,81.7982684 L113.949351,81.7982684 L113.949351,95.6878788 L116.906494,95.6878788 Z M133.288313,82.2164502 L133.288313,78.3333333 L148.76104,78.3333333 L148.76104,82.2164502 L143.205196,82.2164502 L143.205196,99.2424242 L138.874027,99.2424242 L138.874027,82.2164502 L133.288313,82.2164502 Z M168.338962,95.7774892 L166.725975,99.2424242 L162.066235,99.2424242 L162.066235,98.6450216 L171.684417,78.1541126 L173.745456,78.1541126 L183.303897,98.6450216 L183.303897,99.2424242 L178.674027,99.2424242 L177.03117,95.7774892 L168.338962,95.7774892 Z M169.802599,92.0138528 L175.597404,92.0138528 L172.700001,85.1138528 L169.802599,92.0138528 Z M204.554547,95.2398268 L213.276625,95.2398268 L213.276625,99.2424242 L200.074028,99.2424242 L200.074028,78.3333333 L204.554547,78.3333333 L204.554547,95.2398268 Z" id="CAPITAL" fill="#416182"></path>
            </g>
        </g>
    </g>
</svg>