
<svg xmlns="http://www.w3.org/2000/svg" xmlns:xlink="http://www.w3.org/1999/xlink" width="159.902" height="36" viewBox="0 0 159.902 36"><defs><style>.a{fill:none;}.b{fill:#adadad;}.c{clip-path:url(#a);}.d{fill:#c6c6c6;}</style><clipPath id="a"><circle class="a" cx="18" cy="18" r="18"/></clipPath></defs><g transform="translate(-23.92 -15.52)"><g transform="translate(67.57 22.72)"><path class="b" d="M240.351,71.08a5.133,5.133,0,0,0,1.236-.124,2.259,2.259,0,0,0,.783-.341,1.115,1.115,0,0,0,.407-.511,1.79,1.79,0,0,0,.114-.657,1.522,1.522,0,0,0-.728-1.282,10.329,10.329,0,0,0-2.495-1.1q-.772-.27-1.544-.624a5.672,5.672,0,0,1-1.385-.885,4.239,4.239,0,0,1-1-1.294,4.045,4.045,0,0,1-.387-1.85,4.579,4.579,0,0,1,.409-1.964,4.183,4.183,0,0,1,1.158-1.486,5.285,5.285,0,0,1,1.815-.943,8.161,8.161,0,0,1,2.406-.329,9.606,9.606,0,0,1,4.653,1.087l-1.021,2.791a9.55,9.55,0,0,0-1.464-.6,6.356,6.356,0,0,0-1.941-.26,3.561,3.561,0,0,0-1.825.351,1.189,1.189,0,0,0-.556,1.077,1.241,1.241,0,0,0,.2.726,1.991,1.991,0,0,0,.579.533,5,5,0,0,0,.862.432q.487.192,1.077.4c.817.3,1.528.6,2.133.9a5.753,5.753,0,0,1,1.509,1.034,3.746,3.746,0,0,1,.9,1.385,5.564,5.564,0,0,1,.3,1.929A4.093,4.093,0,0,1,245,72.879a7.442,7.442,0,0,1-4.651,1.213,12.941,12.941,0,0,1-1.883-.124,12.3,12.3,0,0,1-1.486-.306,8.681,8.681,0,0,1-1.112-.387,8.114,8.114,0,0,1-.781-.387l1-2.813a8.809,8.809,0,0,0,1.736.692A8.709,8.709,0,0,0,240.351,71.08Z" transform="translate(-235.09 -56.173)"/><path class="b" d="M301.065,53.747a1.861,1.861,0,0,1-.6,1.463,2.152,2.152,0,0,1-2.836,0,2.086,2.086,0,0,1,0-2.927,2.152,2.152,0,0,1,2.836,0A1.864,1.864,0,0,1,301.065,53.747Zm-.318,15.385h-3.38V57.2h3.38Z" transform="translate(-284.227 -51.461)"/><path class="b" d="M329.887,82.665a4.662,4.662,0,0,0-.42-2.313,1.559,1.559,0,0,0-1.441-.682,6.554,6.554,0,0,0-.657.035c-.227.023-.446.05-.659.079V89h-3.38V77.47c.287-.074.624-.155,1.009-.238s.8-.159,1.226-.227.872-.122,1.327-.159.9-.056,1.339-.056a5.623,5.623,0,0,1,2.1.329,4.71,4.71,0,0,1,1.327.783,6.335,6.335,0,0,1,3.4-1.112,5.96,5.96,0,0,1,2.348.4,3.549,3.549,0,0,1,1.463,1.122,4.279,4.279,0,0,1,.748,1.724,11.133,11.133,0,0,1,.2,2.224V89h-3.382V82.667a4.662,4.662,0,0,0-.42-2.313,1.562,1.562,0,0,0-1.441-.682,3.036,3.036,0,0,0-.761.136,2.964,2.964,0,0,0-.806.341,5.23,5.23,0,0,1,.2,1.1c.031.387.045.8.045,1.238V89h-3.38Z" transform="translate(-305.09 -71.325)"/><path class="b" d="M422.626,82.72a8.717,8.717,0,0,1-.341,2.518,5.674,5.674,0,0,1-1,1.951,4.5,4.5,0,0,1-1.633,1.271,5.286,5.286,0,0,1-2.247.453,6.014,6.014,0,0,1-1.315-.134,6.414,6.414,0,0,1-1.18-.387v4.492H411.53V77.16q.453-.136,1.044-.26t1.238-.215q.645-.09,1.315-.147c.446-.037.872-.058,1.282-.058a7.317,7.317,0,0,1,2.631.442,5.217,5.217,0,0,1,3.167,3.21A7.56,7.56,0,0,1,422.626,82.72Zm-3.45.089a4.09,4.09,0,0,0-.7-2.507,2.445,2.445,0,0,0-2.088-.941c-.3,0-.583.01-.839.033s-.467.05-.635.081v6.1a2.931,2.931,0,0,0,.827.341,3.971,3.971,0,0,0,1.031.136Q419.176,86.055,419.176,82.809Z" transform="translate(-375.059 -71.079)"/><path class="b" d="M478.355,68.185a8.441,8.441,0,0,1-2.394-.316,3.544,3.544,0,0,1-1.451-.829,2.749,2.749,0,0,1-.728-1.294,7.006,7.006,0,0,1-.192-1.714V50.9l3.38-.546v13a4.441,4.441,0,0,0,.068.816,1.409,1.409,0,0,0,.263.612,1.357,1.357,0,0,0,.556.409,3.029,3.029,0,0,0,.976.2Z" transform="translate(-424.291 -50.35)"/><path class="b" d="M510.219,53.747a1.855,1.855,0,0,1-.6,1.463,2.152,2.152,0,0,1-2.836,0,2.081,2.081,0,0,1,0-2.927,2.152,2.152,0,0,1,2.836,0A1.865,1.865,0,0,1,510.219,53.747ZM509.9,69.132h-3.382V57.2H509.9Z" transform="translate(-450.144 -51.461)"/><path class="b" d="M543.7,63.973a3.985,3.985,0,0,1-.93,2.791,5.254,5.254,0,0,1-2.451,1.474q.363.453.943,1.226t1.19,1.691c.409.612.808,1.251,1.2,1.916a19.978,19.978,0,0,1,1,1.908H543q-.477-.908-1.034-1.817T540.833,71.4q-.58-.85-1.125-1.577l-.953-1.271c-.484.045-.967.07-1.453.07h-2.54v6.354H533.22V59.55a11.053,11.053,0,0,1,1.918-.329c.732-.068,1.41-.1,2.03-.1a8.154,8.154,0,0,1,4.891,1.224A4.238,4.238,0,0,1,543.7,63.973Zm-6.352-3.518c-.575,0-1.077.021-1.509.058s-.792.072-1.079.1v6.693H536.9a19.531,19.531,0,0,0,2.02-.1,4.861,4.861,0,0,0,1.656-.453,2.694,2.694,0,0,0,1.112-1.011,3.374,3.374,0,0,0,.409-1.792,3.3,3.3,0,0,0-.409-1.724,3.11,3.11,0,0,0-1.067-1.077,4.315,4.315,0,0,0-1.509-.544A9.976,9.976,0,0,0,537.352,60.455Z" transform="translate(-471.595 -57.307)"/><path class="b" d="M607.212,83.61a7.6,7.6,0,0,1-.4,2.52,5.594,5.594,0,0,1-1.112,1.929,5.035,5.035,0,0,1-1.691,1.234,5.2,5.2,0,0,1-6-1.234,5.627,5.627,0,0,1-1.112-1.929,8.19,8.19,0,0,1,0-5.037,5.765,5.765,0,0,1,1.112-1.941A5.051,5.051,0,0,1,599.7,77.9a5.475,5.475,0,0,1,4.312,0,5.021,5.021,0,0,1,1.691,1.248,5.764,5.764,0,0,1,1.112,1.941A7.586,7.586,0,0,1,607.212,83.61Zm-1.565,0a5.532,5.532,0,0,0-1.021-3.5,3.588,3.588,0,0,0-5.538,0,6.5,6.5,0,0,0,0,7,3.61,3.61,0,0,0,5.538,0A5.485,5.485,0,0,0,605.647,83.61Z" transform="translate(-521.794 -71.856)"/><path class="b" d="M666.5,90.1q-.66.183-1.769.409a13.918,13.918,0,0,1-2.724.227,5.542,5.542,0,0,1-2.2-.384,3.551,3.551,0,0,1-1.426-1.089,4.394,4.394,0,0,1-.783-1.7,9.469,9.469,0,0,1-.238-2.2V78.78h1.474v6.1a10.358,10.358,0,0,0,.182,2.11,3.407,3.407,0,0,0,.589,1.4,2.305,2.305,0,0,0,1.056.771,4.582,4.582,0,0,0,1.577.238,12.535,12.535,0,0,0,1.815-.114,4.787,4.787,0,0,0,.974-.2V78.78H666.5Z" transform="translate(-570.074 -72.903)"/><path class="b" d="M711.156,64.5h4.674v1.249h-4.674v6.24a6.33,6.33,0,0,0,.169,1.623,2.312,2.312,0,0,0,.486.965,1.552,1.552,0,0,0,.773.453,4.076,4.076,0,0,0,1,.114,4.274,4.274,0,0,0,1.5-.215,6.467,6.467,0,0,0,.885-.4l.364,1.226a5.426,5.426,0,0,1-1.11.465,5.522,5.522,0,0,1-1.726.26,5.15,5.15,0,0,1-1.827-.283,2.613,2.613,0,0,1-1.178-.862,3.547,3.547,0,0,1-.624-1.441,9.957,9.957,0,0,1-.182-2.042v-10.8l1.476-.273Z" transform="translate(-611.579 -58.624)"/><path class="b" d="M749.84,83.595a7.443,7.443,0,0,1,.444-2.689,5.876,5.876,0,0,1,1.156-1.916,4.533,4.533,0,0,1,1.635-1.145,5.006,5.006,0,0,1,1.9-.374,4.426,4.426,0,0,1,3.437,1.408,6.271,6.271,0,0,1,1.282,4.333c0,.122,0,.244-.01.364s-.021.236-.035.341h-8.237a5.173,5.173,0,0,0,1.067,3.311,3.973,3.973,0,0,0,3.175,1.158,6.375,6.375,0,0,0,1.908-.227,8.189,8.189,0,0,0,1.021-.384l.273,1.271a6.06,6.06,0,0,1-1.193.43,7.468,7.468,0,0,1-2.053.25,6.851,6.851,0,0,1-2.631-.453A4.715,4.715,0,0,1,751.182,88a5.066,5.066,0,0,1-1.023-1.941A9.108,9.108,0,0,1,749.84,83.595Zm8.326-.93a4.667,4.667,0,0,0-.86-2.859,2.788,2.788,0,0,0-2.313-1.021,3.054,3.054,0,0,0-1.418.318,3.539,3.539,0,0,0-1.089.852,3.9,3.9,0,0,0-.726,1.236,5.174,5.174,0,0,0-.308,1.474Z" transform="translate(-643.438 -71.864)"/></g><g transform="translate(23.92 15.52)"><g class="c"><path class="d" d="M42.873,12.822A3.93,3.93,0,0,1,43.066,14a4.008,4.008,0,0,1-2.433,3.5v9.969c.207.161,1.029.415,1.47.74l6.7-5.484a3.9,3.9,0,1,1,1.625,2.057l-6.7,5.488a4.85,4.85,0,0,1-.341,4.386l5.011,5.852a3.9,3.9,0,1,1-2.03,1.658l-4.895-5.715a4.847,4.847,0,0,1-4.622-.07l-4.982,5.23a3.714,3.714,0,1,1-1.9-1.8l5.025-5.273a4.863,4.863,0,0,1-.67-2.4,4.653,4.653,0,0,1,3.624-4.711V17.494A3.651,3.651,0,0,1,35.566,14a4.057,4.057,0,0,1,.227-1.182H20.58v37h37v-37H42.873ZM28.735,25.5a2.383,2.383,0,1,1-2.383,2.383A2.383,2.383,0,0,1,28.735,25.5Z" transform="translate(-21.27 -13.378)"/></g></g></g></svg>