
<svg xmlns="http://www.w3.org/2000/svg" width="102.51" height="105.008" viewBox="0 0 102.51 105.008"><defs><style>.a{fill:#8eccff;}.b{fill:#054f90;}.c{fill:#f2f2f2;}.d{fill:#b4ddff;}.e{fill:#fff;}</style></defs><g transform="translate(-987 -4594.992)"><g transform="translate(44 262)"><path class="a" d="M2998.133,4546.928s12.4,21.808-4.2,42.59,19.672-11.79,22.9-20.734-2.012-21.192-10.366-22.717S2998.133,4546.928,2998.133,4546.928Z" transform="translate(-1990 -180)"/><g transform="translate(966 4363.176)"><path class="b" d="M47.2,0A19.79,19.79,0,0,0,32.15,6.889,19.312,19.312,0,0,0,17.1,0C6.379,0,0,10.206,0,19.9c0,8.675,6.634,14.8,10.461,18.371a6.765,6.765,0,0,0,1.531,1.276c1.276,1.276,4.848,3.827,8.165,6.379,3.827,2.807,10.461,7.655,10.972,8.931a1.446,1.446,0,0,0,2.552,0c.51-1.276,6.889-6.124,10.972-8.931a84.611,84.611,0,0,0,8.165-6.379l1.276-1.276h0c3.827-3.572,10.461-9.7,10.461-18.371C64.3,10.206,57.921,0,47.2,0ZM61.748,19.9c0,7.655-6.124,13.268-9.7,16.585h0a6.765,6.765,0,0,1-1.531,1.276c-1.276,1.276-4.593,3.572-7.91,6.124h0a117.152,117.152,0,0,0-10.461,8.42c-1.786-1.786-5.613-4.593-10.461-8.42-3.572-2.552-6.634-5.1-7.91-6.124l-1.531-1.531c-3.827-3.062-9.7-8.675-9.7-16.33,0-8.42,5.1-17.351,14.544-17.351,9.186,0,13.779,7.144,14.034,7.144a1.276,1.276,0,0,0,2.041,0A17.868,17.868,0,0,1,47.2,2.552C56.645,2.552,61.748,11.482,61.748,19.9Z"/><path class="b" d="M43.329,20.875h-12.5l-1.276-5.1c-.255-.51-.51-1.021-1.276-1.021A1.3,1.3,0,0,0,27,15.772L23.937,27,22.661,6.076A1.7,1.7,0,0,0,21.64,4.8c-.51,0-1.276.255-1.276.765L15.006,21.13l-1.276-3.317a1.934,1.934,0,0,0-1.021-.51c-.51,0-.765,0-1.021.51L8.883,21.13H6.076a1.276,1.276,0,0,0,0,2.552H9.393a1.934,1.934,0,0,0,1.021-.51l1.786-2.3,2.041,4.338a1.4,1.4,0,0,0,1.276.765h0c.51,0,1.021-.255,1.021-.765L20.62,12.965l1.276,22.2a1.7,1.7,0,0,0,1.021,1.276h.255a1.3,1.3,0,0,0,1.276-1.021L28.275,21.64l.255,1.276a1.7,1.7,0,0,0,1.276,1.021H43.329A1.205,1.205,0,0,0,44.6,22.661C44.6,21.385,44.094,20.875,43.329,20.875Z" transform="translate(7.448 7.448)"/></g></g><ellipse class="c" cx="29" cy="2.5" rx="29" ry="2.5" transform="translate(1013 4695)"/><g transform="translate(983.242 4590.1)"><g transform="translate(27.599 4.892)"><path class="d" d="M124.355,31.059l.339,1.145a.254.254,0,0,0,.161.177l1.129.371a.263.263,0,0,1,.065.468l-.984.677a.276.276,0,0,0-.113.21l-.016,1.193a.266.266,0,0,1-.419.21l-.951-.742a.318.318,0,0,0-.242-.048l-1.145.355a.257.257,0,0,1-.323-.339l.4-1.129a.257.257,0,0,0-.032-.242l-.693-.968a.265.265,0,0,1,.226-.419l1.193.032a.282.282,0,0,0,.226-.113l.71-.968A.289.289,0,0,1,124.355,31.059Z" transform="translate(-121.482 -30.859)"/></g><g transform="translate(59.612 14.379)"><path class="d" d="M373.578,133.321l.8,1.628a.4.4,0,0,0,.295.213l1.792.262a.394.394,0,0,1,.221.671l-1.3,1.268a.4.4,0,0,0-.115.352l.3,1.784a.4.4,0,0,1-.573.417l-1.6-.843a.416.416,0,0,0-.368,0l-1.6.843a.394.394,0,0,1-.573-.417l.3-1.784a.4.4,0,0,0-.115-.352l-1.3-1.268a.391.391,0,0,1,.221-.671l1.792-.262a.382.382,0,0,0,.295-.213l.8-1.628A.411.411,0,0,1,373.578,133.321Z" transform="translate(-369.619 -133.1)"/></g><g transform="translate(3.758 33.58)"><path class="e" d="M6.469,114.56l.812,1.647a.373.373,0,0,0,.3.215l1.814.263a.405.405,0,0,1,.227.68l-1.313,1.277a.441.441,0,0,0-.119.358l.31,1.8a.4.4,0,0,1-.585.418L6.3,120.385a.4.4,0,0,0-.37,0l-1.623.848a.4.4,0,0,1-.585-.418l.31-1.8a.4.4,0,0,0-.119-.358L2.6,117.377a.4.4,0,0,1,.227-.68l1.814-.263a.4.4,0,0,0,.3-.215l.812-1.647A.4.4,0,0,1,6.469,114.56Z" transform="translate(-2.185 -114.023)"/><path class="d" d="M5.93,119.256a.619.619,0,0,1-.322-.084l-1.623-.848a.131.131,0,0,0-.1,0l-1.623.848a.719.719,0,0,1-.74-.048.686.686,0,0,1-.275-.68l.31-1.814a.129.129,0,0,0-.024-.1L.225,115.257a.7.7,0,0,1,.382-1.194l1.814-.263a.076.076,0,0,0,.072-.06l.812-1.647a.7.7,0,0,1,.621-.394.666.666,0,0,1,.621.394l.812,1.647c.012.036.048.048.072.06l1.814.263a.681.681,0,0,1,.561.477.693.693,0,0,1-.179.716l-1.313,1.277a.093.093,0,0,0-.024.1l.31,1.8a.686.686,0,0,1-.275.68A.593.593,0,0,1,5.93,119.256Zm-1.993-1.54a.619.619,0,0,1,.322.084l1.623.848a.086.086,0,0,0,.107-.012.082.082,0,0,0,.036-.1l-.31-1.8a.712.712,0,0,1,.2-.621l1.313-1.277a.1.1,0,0,0,.024-.107.1.1,0,0,0-.084-.072L5.357,114.4a.7.7,0,0,1-.525-.382l-.812-1.647a.106.106,0,0,0-.191,0l-.812,1.647a.723.723,0,0,1-.525.382l-1.814.263a.1.1,0,0,0-.084.072.1.1,0,0,0,.024.107l1.313,1.277a.7.7,0,0,1,.2.621l-.3,1.8a.091.091,0,0,0,.036.1.107.107,0,0,0,.107.012L3.6,117.8A.693.693,0,0,1,3.937,117.716Z" transform="translate(-0.011 -111.7)"/></g><g transform="translate(95.972 25.9)"><path class="e" d="M584.044,2.769l1.033,2.107a.624.624,0,0,0,.392.289l2.313.33a.516.516,0,0,1,.289.867L586.4,7.995a.477.477,0,0,0-.145.454l.392,2.313a.513.513,0,0,1-.744.537L583.817,10.2a.486.486,0,0,0-.475,0L581.256,11.3a.513.513,0,0,1-.744-.537l.392-2.313a.532.532,0,0,0-.145-.454l-1.673-1.632a.5.5,0,0,1,.289-.867l2.313-.33a.509.509,0,0,0,.392-.289l1.033-2.107A.514.514,0,0,1,584.044,2.769Z" transform="translate(-578.425 -1.943)"/><path class="d" d="M579.1,9.834a.959.959,0,0,1-.6-.207,1.055,1.055,0,0,1-.413-1.012l.392-2.313L576.8,4.671a1.047,1.047,0,0,1-.268-1.053,1.033,1.033,0,0,1,.826-.7l2.313-.33L580.708.478a1.034,1.034,0,0,1,.929-.578h0a1.057,1.057,0,0,1,.929.578L583.6,2.585l2.313.33a1.033,1.033,0,0,1,.826.7,1,1,0,0,1-.268,1.053L584.8,6.3l.392,2.313a1.031,1.031,0,0,1-.413,1.012,1.013,1.013,0,0,1-1.074.083l-2.086-1.095L579.552,9.71A.833.833,0,0,1,579.1,9.834ZM581.658.953,580.626,3.06a.975.975,0,0,1-.764.558l-2.313.33,1.673,1.632a.99.99,0,0,1,.289.909L579.118,8.8l2.065-1.095a.972.972,0,0,1,.95,0L584.219,8.8l-.413-2.313a1.045,1.045,0,0,1,.289-.909l1.673-1.632-2.313-.33a1.021,1.021,0,0,1-.764-.558Z" transform="translate(-576.494 0.1)"/></g></g></g></svg>