
<svg xmlns="http://www.w3.org/2000/svg" width="102.51" height="113.008" viewBox="0 0 102.51 113.008"><defs><style>.a{fill:#8eccff;}.b{fill:#054f90;}.c{fill:#f2f2f2;}.d{fill:#b4ddff;}.e{fill:#fff;}</style></defs><g transform="translate(-629 -5000.992)"><g transform="translate(44 267)"><g transform="translate(364 -179)"><path class="a" d="M2261.031,4955.9l19.678,9.429v25.792l-19.678,8.813.975,8.889,25.228-13.369v-32.571l-26.2-14.421Z" transform="translate(-1990)"/><g transform="translate(242 4946.16)"><path class="b" d="M29.031,30.5a.873.873,0,0,1-.581-.145L.871,17.3A1.552,1.552,0,0,1,0,15.989a1.524,1.524,0,0,1,.726-1.306L28.3.168a1.089,1.089,0,0,1,1.306,0L57.19,14.683a1.524,1.524,0,0,1,.726,1.306,1.4,1.4,0,0,1-.871,1.306L29.466,30.359C29.466,30.5,29.176,30.5,29.031,30.5ZM4.645,15.844,29.031,27.456,53.416,15.989,29.031,3.071Z" transform="translate(0)"/><path class="b" d="M29.031,59.021a.873.873,0,0,1-.581-.145L.871,45.812A1.552,1.552,0,0,1,0,44.506V11.12c0-.871.581,0,1.452,0A1.371,1.371,0,0,1,2.9,12.572V43.489L29.031,55.973,55.158,43.635V12.572A1.371,1.371,0,0,1,56.61,11.12c.871,0,1.452-.726,1.452,0V44.506a1.4,1.4,0,0,1-.871,1.306L29.611,58.876A.873.873,0,0,1,29.031,59.021Z" transform="translate(0 4.869)"/><path class="b" d="M40.048,20.405,26.259,13.148V2.552a1.452,1.452,0,1,0-2.9,0v10.6L9.566,20.405c-.726.435.581,2.9,1.306,2.613L24.662,15.76l13.789,7.258C38.887,23.018,40.629,20.7,40.048,20.405Z" transform="translate(4.223 0.519)"/><path class="b" d="M25.176,37.58l-9.435-4.935V20.452A1.371,1.371,0,0,0,14.289,19a1.371,1.371,0,0,0-1.452,1.452V32.644L.5,39.467l1.452,2.613,12.338-6.822,9.435,4.935a1.088,1.088,0,0,0,.726.145,1.524,1.524,0,0,0,1.306-.726A1.607,1.607,0,0,0,25.176,37.58Z" transform="translate(0.226 8.602)"/><path class="b" d="M47.42,39.467,35.082,32.644V20.452a1.452,1.452,0,1,0-2.9,0V32.644L22.744,37.58a1.469,1.469,0,0,0-.581,2.032,1.524,1.524,0,0,0,1.306.726,1.309,1.309,0,0,0,.726-.145l9.435-4.935,12.338,6.822C46.259,42.079,48.146,39.757,47.42,39.467Z" transform="translate(9.915 8.602)"/><path class="b" d="M20.452,53.837A1.371,1.371,0,0,1,19,52.385V20.452a1.452,1.452,0,0,1,2.9,0V52.385A1.371,1.371,0,0,1,20.452,53.837Z" transform="translate(8.579 8.602)"/></g></g></g><ellipse class="c" cx="29" cy="2.5" rx="29" ry="2.5" transform="translate(649 5109)"/><g transform="translate(625.242 4996.1)"><g transform="translate(27.599 4.892)"><path class="d" d="M124.355,31.059l.339,1.145a.254.254,0,0,0,.161.177l1.129.371a.263.263,0,0,1,.065.468l-.984.677a.276.276,0,0,0-.113.21l-.016,1.193a.266.266,0,0,1-.419.21l-.951-.742a.318.318,0,0,0-.242-.048l-1.145.355a.257.257,0,0,1-.323-.339l.4-1.129a.257.257,0,0,0-.032-.242l-.693-.968a.265.265,0,0,1,.226-.419l1.193.032a.282.282,0,0,0,.226-.113l.71-.968A.289.289,0,0,1,124.355,31.059Z" transform="translate(-121.482 -30.859)"/></g><g transform="translate(59.612 14.379)"><path class="d" d="M373.578,133.321l.8,1.628a.4.4,0,0,0,.295.213l1.792.262a.394.394,0,0,1,.221.671l-1.3,1.268a.4.4,0,0,0-.115.352l.3,1.784a.4.4,0,0,1-.573.417l-1.6-.843a.416.416,0,0,0-.368,0l-1.6.843a.394.394,0,0,1-.573-.417l.3-1.784a.4.4,0,0,0-.115-.352l-1.3-1.268a.391.391,0,0,1,.221-.671l1.792-.262a.382.382,0,0,0,.295-.213l.8-1.628A.411.411,0,0,1,373.578,133.321Z" transform="translate(-369.619 -133.1)"/></g><g transform="translate(3.758 33.58)"><path class="e" d="M6.469,114.56l.812,1.647a.373.373,0,0,0,.3.215l1.814.263a.405.405,0,0,1,.227.68l-1.313,1.277a.441.441,0,0,0-.119.358l.31,1.8a.4.4,0,0,1-.585.418L6.3,120.385a.4.4,0,0,0-.37,0l-1.623.848a.4.4,0,0,1-.585-.418l.31-1.8a.4.4,0,0,0-.119-.358L2.6,117.377a.4.4,0,0,1,.227-.68l1.814-.263a.4.4,0,0,0,.3-.215l.812-1.647A.4.4,0,0,1,6.469,114.56Z" transform="translate(-2.185 -114.023)"/><path class="d" d="M5.93,119.256a.619.619,0,0,1-.322-.084l-1.623-.848a.131.131,0,0,0-.1,0l-1.623.848a.719.719,0,0,1-.74-.048.686.686,0,0,1-.275-.68l.31-1.814a.129.129,0,0,0-.024-.1L.225,115.257a.7.7,0,0,1,.382-1.194l1.814-.263a.076.076,0,0,0,.072-.06l.812-1.647a.7.7,0,0,1,.621-.394.666.666,0,0,1,.621.394l.812,1.647c.012.036.048.048.072.06l1.814.263a.681.681,0,0,1,.561.477.693.693,0,0,1-.179.716l-1.313,1.277a.093.093,0,0,0-.024.1l.31,1.8a.686.686,0,0,1-.275.68A.593.593,0,0,1,5.93,119.256Zm-1.993-1.54a.619.619,0,0,1,.322.084l1.623.848a.086.086,0,0,0,.107-.012.082.082,0,0,0,.036-.1l-.31-1.8a.712.712,0,0,1,.2-.621l1.313-1.277a.1.1,0,0,0,.024-.107.1.1,0,0,0-.084-.072L5.357,114.4a.7.7,0,0,1-.525-.382l-.812-1.647a.106.106,0,0,0-.191,0l-.812,1.647a.723.723,0,0,1-.525.382l-1.814.263a.1.1,0,0,0-.084.072.1.1,0,0,0,.024.107l1.313,1.277a.7.7,0,0,1,.2.621l-.3,1.8a.091.091,0,0,0,.036.1.107.107,0,0,0,.107.012L3.6,117.8A.693.693,0,0,1,3.937,117.716Z" transform="translate(-0.011 -111.7)"/></g><g transform="translate(95.972 25.9)"><path class="e" d="M584.044,2.769l1.033,2.107a.624.624,0,0,0,.392.289l2.313.33a.516.516,0,0,1,.289.867L586.4,7.995a.477.477,0,0,0-.145.454l.392,2.313a.513.513,0,0,1-.744.537L583.817,10.2a.486.486,0,0,0-.475,0L581.256,11.3a.513.513,0,0,1-.744-.537l.392-2.313a.532.532,0,0,0-.145-.454l-1.673-1.632a.5.5,0,0,1,.289-.867l2.313-.33a.509.509,0,0,0,.392-.289l1.033-2.107A.514.514,0,0,1,584.044,2.769Z" transform="translate(-578.425 -1.943)"/><path class="d" d="M579.1,9.834a.959.959,0,0,1-.6-.207,1.055,1.055,0,0,1-.413-1.012l.392-2.313L576.8,4.671a1.047,1.047,0,0,1-.268-1.053,1.033,1.033,0,0,1,.826-.7l2.313-.33L580.708.478a1.034,1.034,0,0,1,.929-.578h0a1.057,1.057,0,0,1,.929.578L583.6,2.585l2.313.33a1.033,1.033,0,0,1,.826.7,1,1,0,0,1-.268,1.053L584.8,6.3l.392,2.313a1.031,1.031,0,0,1-.413,1.012,1.013,1.013,0,0,1-1.074.083l-2.086-1.095L579.552,9.71A.833.833,0,0,1,579.1,9.834ZM581.658.953,580.626,3.06a.975.975,0,0,1-.764.558l-2.313.33,1.673,1.632a.99.99,0,0,1,.289.909L579.118,8.8l2.065-1.095a.972.972,0,0,1,.95,0L584.219,8.8l-.413-2.313a1.045,1.045,0,0,1,.289-.909l1.673-1.632-2.313-.33a1.021,1.021,0,0,1-.764-.558Z" transform="translate(-576.494 0.1)"/></g></g></g></svg>