
<svg xmlns="http://www.w3.org/2000/svg" width="102.51" height="104.008" viewBox="0 0 102.51 104.008"><defs><style>.a{fill:#f2f2f2;}.b{fill:#b4ddff;}.c{fill:#fff;}.d{fill:#8eccff;}.e{fill:#054f90;}</style></defs><g transform="translate(-266 -4594.992)"><ellipse class="a" cx="29" cy="2.5" rx="29" ry="2.5" transform="translate(285 4694)"/><g transform="translate(262.242 4590.1)"><g transform="translate(27.599 4.892)"><path class="b" d="M124.355,31.059l.339,1.145a.254.254,0,0,0,.161.177l1.129.371a.263.263,0,0,1,.065.468l-.984.677a.276.276,0,0,0-.113.21l-.016,1.193a.266.266,0,0,1-.419.21l-.951-.742a.318.318,0,0,0-.242-.048l-1.145.355a.257.257,0,0,1-.323-.339l.4-1.129a.257.257,0,0,0-.032-.242l-.693-.968a.265.265,0,0,1,.226-.419l1.193.032a.282.282,0,0,0,.226-.113l.71-.968A.289.289,0,0,1,124.355,31.059Z" transform="translate(-121.482 -30.859)"/></g><g transform="translate(59.612 14.379)"><path class="b" d="M373.578,133.321l.8,1.628a.4.4,0,0,0,.295.213l1.792.262a.394.394,0,0,1,.221.671l-1.3,1.268a.4.4,0,0,0-.115.352l.3,1.784a.4.4,0,0,1-.573.417l-1.6-.843a.416.416,0,0,0-.368,0l-1.6.843a.394.394,0,0,1-.573-.417l.3-1.784a.4.4,0,0,0-.115-.352l-1.3-1.268a.391.391,0,0,1,.221-.671l1.792-.262a.382.382,0,0,0,.295-.213l.8-1.628A.411.411,0,0,1,373.578,133.321Z" transform="translate(-369.619 -133.1)"/></g><g transform="translate(3.758 33.58)"><path class="c" d="M6.469,114.56l.812,1.647a.373.373,0,0,0,.3.215l1.814.263a.405.405,0,0,1,.227.68l-1.313,1.277a.441.441,0,0,0-.119.358l.31,1.8a.4.4,0,0,1-.585.418L6.3,120.385a.4.4,0,0,0-.37,0l-1.623.848a.4.4,0,0,1-.585-.418l.31-1.8a.4.4,0,0,0-.119-.358L2.6,117.377a.4.4,0,0,1,.227-.68l1.814-.263a.4.4,0,0,0,.3-.215l.812-1.647A.4.4,0,0,1,6.469,114.56Z" transform="translate(-2.185 -114.023)"/><path class="b" d="M5.93,119.256a.619.619,0,0,1-.322-.084l-1.623-.848a.131.131,0,0,0-.1,0l-1.623.848a.719.719,0,0,1-.74-.048.686.686,0,0,1-.275-.68l.31-1.814a.129.129,0,0,0-.024-.1L.225,115.257a.7.7,0,0,1,.382-1.194l1.814-.263a.076.076,0,0,0,.072-.06l.812-1.647a.7.7,0,0,1,.621-.394.666.666,0,0,1,.621.394l.812,1.647c.012.036.048.048.072.06l1.814.263a.681.681,0,0,1,.561.477.693.693,0,0,1-.179.716l-1.313,1.277a.093.093,0,0,0-.024.1l.31,1.8a.686.686,0,0,1-.275.68A.593.593,0,0,1,5.93,119.256Zm-1.993-1.54a.619.619,0,0,1,.322.084l1.623.848a.086.086,0,0,0,.107-.012.082.082,0,0,0,.036-.1l-.31-1.8a.712.712,0,0,1,.2-.621l1.313-1.277a.1.1,0,0,0,.024-.107.1.1,0,0,0-.084-.072L5.357,114.4a.7.7,0,0,1-.525-.382l-.812-1.647a.106.106,0,0,0-.191,0l-.812,1.647a.723.723,0,0,1-.525.382l-1.814.263a.1.1,0,0,0-.084.072.1.1,0,0,0,.024.107l1.313,1.277a.7.7,0,0,1,.2.621l-.3,1.8a.091.091,0,0,0,.036.1.107.107,0,0,0,.107.012L3.6,117.8A.693.693,0,0,1,3.937,117.716Z" transform="translate(-0.011 -111.7)"/></g><g transform="translate(95.972 25.9)"><path class="c" d="M584.044,2.769l1.033,2.107a.624.624,0,0,0,.392.289l2.313.33a.516.516,0,0,1,.289.867L586.4,7.995a.477.477,0,0,0-.145.454l.392,2.313a.513.513,0,0,1-.744.537L583.817,10.2a.486.486,0,0,0-.475,0L581.256,11.3a.513.513,0,0,1-.744-.537l.392-2.313a.532.532,0,0,0-.145-.454l-1.673-1.632a.5.5,0,0,1,.289-.867l2.313-.33a.509.509,0,0,0,.392-.289l1.033-2.107A.514.514,0,0,1,584.044,2.769Z" transform="translate(-578.425 -1.943)"/><path class="b" d="M579.1,9.834a.959.959,0,0,1-.6-.207,1.055,1.055,0,0,1-.413-1.012l.392-2.313L576.8,4.671a1.047,1.047,0,0,1-.268-1.053,1.033,1.033,0,0,1,.826-.7l2.313-.33L580.708.478a1.034,1.034,0,0,1,.929-.578h0a1.057,1.057,0,0,1,.929.578L583.6,2.585l2.313.33a1.033,1.033,0,0,1,.826.7,1,1,0,0,1-.268,1.053L584.8,6.3l.392,2.313a1.031,1.031,0,0,1-.413,1.012,1.013,1.013,0,0,1-1.074.083l-2.086-1.095L579.552,9.71A.833.833,0,0,1,579.1,9.834ZM581.658.953,580.626,3.06a.975.975,0,0,1-.764.558l-2.313.33,1.673,1.632a.99.99,0,0,1,.289.909L579.118,8.8l2.065-1.095a.972.972,0,0,1,.95,0L584.219,8.8l-.413-2.313a1.045,1.045,0,0,1,.289-.909l1.673-1.632-2.313-.33a1.021,1.021,0,0,1-.764-.558Z" transform="translate(-576.494 0.1)"/></g></g><path class="d" d="M2277.889,4364.236c2.464,33.828-29.736,41.943-29.736,41.943s19.262,4.386,29.736-.716,16.02-11.611,14.374-15.522-7.883-8.633-9.938-8.78S2286.912,4376.813,2277.889,4364.236Z" transform="translate(-1946 267)"/><g transform="translate(284.55 4628.489)"><g transform="translate(27.883 36.502)"><path class="e" d="M42.3,59.1H36.47a.657.657,0,0,1-.666-.666V51.276H34.472a.7.7,0,0,1-.583-.333.628.628,0,0,1,.083-.666L38.8,44.45a.593.593,0,0,1,.5-.25h0a.719.719,0,0,1,.5.25l4.828,5.827a.628.628,0,0,1,.083.666.557.557,0,0,1-.583.333H42.8v7.159A.5.5,0,0,1,42.3,59.1Zm-5.244-1.249h4.578V50.693a.657.657,0,0,1,.666-.666h.583l-3.5-4.245-3.5,4.245h.583a.657.657,0,0,1,.666.666v7.159Z" transform="translate(-33.553 -43.909)"/><path class="e" d="M42.24,59.458H36.413a1.012,1.012,0,0,1-1-1V51.717H34.5a1,1,0,0,1-.749-1.665l4.828-5.827a1.022,1.022,0,0,1,1.582,0l4.828,5.827a1.047,1.047,0,0,1,.166,1.082,1.024,1.024,0,0,1-.916.583h-.916v6.743A1.086,1.086,0,0,1,42.24,59.458ZM39.326,44.641c-.083,0-.083,0-.166.083l-4.828,5.827a.156.156,0,0,0,0,.25c0,.083.083.083.166.083h1.748v7.575a.179.179,0,0,0,.166.166H42.24a.179.179,0,0,0,.166-.166V50.884h1.748a.291.291,0,0,0,.166-.083v-.25l-4.828-5.827C39.41,44.641,39.41,44.641,39.326,44.641ZM41.99,58.21H36.579V50.634a.179.179,0,0,0-.166-.166h-1.5l4.412-5.328,4.412,5.328h-1.5a.179.179,0,0,0-.166.166V58.21Zm-4.578-.832h3.746V50.634a1,1,0,0,1,.749-1l-2.581-3.163-2.664,3.163a1,1,0,0,1,.749,1Z" transform="translate(-33.496 -43.85)"/></g><path class="e" d="M13.236,41.206A12.736,12.736,0,0,1,.5,28.47,12.874,12.874,0,0,1,7.659,16.982,12.764,12.764,0,0,1,20.4,4.662a13.352,13.352,0,0,1,7.658,2.5,13.713,13.713,0,0,1,25.473,7.076,13.371,13.371,0,0,1-1.082,5.411,10.75,10.75,0,0,1,9.573,10.738A10.914,10.914,0,0,1,51.445,41.206a.643.643,0,0,1-.666-.583h0a.706.706,0,0,1,.583-.666,9.576,9.576,0,0,0,0-19.146.456.456,0,0,1-.5-.333.711.711,0,0,1,0-.583,12.061,12.061,0,0,0,1.332-5.661A12.47,12.47,0,0,0,39.708,1.749a12.628,12.628,0,0,0-11.071,6.66.831.831,0,0,1-.416.333c-.166,0-.416,0-.5-.166A11.021,11.021,0,0,0,20.4,5.911,11.511,11.511,0,0,0,8.908,17.4a.7.7,0,0,1-.333.583,11.486,11.486,0,0,0,5.078,21.976.626.626,0,0,1,.083,1.249Z" transform="translate(-0.084 -0.084)"/><path class="e" d="M13.153,41.539A13.18,13.18,0,0,1,0,28.386,13.349,13.349,0,0,1,7.159,16.649,13.05,13.05,0,0,1,20.312,4.162,13.291,13.291,0,0,1,27.8,6.493a14.154,14.154,0,0,1,26.055,7.658,14.829,14.829,0,0,1-.916,5.078,11.232,11.232,0,0,1-1.5,22.309,1.162,1.162,0,0,1-.749-.25.9.9,0,0,1-.333-.749,1.086,1.086,0,0,1,1-1.082,9.261,9.261,0,0,0,8.99-9.157,9.133,9.133,0,0,0-8.907-9.157.916.916,0,0,1-.832-.5,1.061,1.061,0,0,1,0-1,11.639,11.639,0,0,0,1.332-5.494A12.067,12.067,0,0,0,29.219,8.491a.957.957,0,0,1-.749.5.754.754,0,0,1-.832-.25,11.111,11.111,0,0,0-18.23,8.491,1.024,1.024,0,0,1-.583.916A11.15,11.15,0,0,0,2.248,28.3a10.7,10.7,0,0,0,3.413,7.991,10.837,10.837,0,0,0,8.075,3.08,1.343,1.343,0,0,1,.749.25,1.055,1.055,0,0,1,.333.749,1.162,1.162,0,0,1-.25.749,1.055,1.055,0,0,1-.749.333A2.343,2.343,0,0,1,13.153,41.539ZM20.312,4.995A12.317,12.317,0,0,0,7.991,16.9v.25l-.25.083A12.541,12.541,0,0,0,.832,28.386a12.306,12.306,0,0,0,12.82,12.32c.083,0,.083-.083.166-.083a.291.291,0,0,0,.083-.166c0-.083-.083-.083-.083-.166a.291.291,0,0,0-.166-.083,12.249,12.249,0,0,1-8.741-3.33,11.577,11.577,0,0,1-3.663-8.491,12.01,12.01,0,0,1,6.992-10.9c.083,0,.083-.083.083-.166a11.9,11.9,0,0,1,11.9-11.9,11.607,11.607,0,0,1,7.658,2.83c.083,0,.083.083.166.083s.083-.083.166-.083a12.784,12.784,0,0,1,11.4-6.826,12.968,12.968,0,0,1,12.9,12.9,13.422,13.422,0,0,1-1.415,5.91v.166c0,.083.083.083.166.083a9.9,9.9,0,0,1,9.656,9.989,10.081,10.081,0,0,1-9.74,9.989.179.179,0,0,0-.166.166.291.291,0,0,0,.083.166c.083,0,.083.083.166.083A10.526,10.526,0,0,0,61.434,30.467a10.3,10.3,0,0,0-9.157-10.322l-.583-.083.25-.5a12.6,12.6,0,0,0,1.082-5.244A13.358,13.358,0,0,0,39.707,1,12.7,12.7,0,0,0,28.3,7.325l-.25.416-.333-.25A11.883,11.883,0,0,0,20.312,4.995Z"/><g transform="translate(14.976 22.309)"><g transform="translate(0.008)"><path class="e" d="M19.066,50.442a.657.657,0,0,1-.666-.666V29.3a2.026,2.026,0,0,1,2-2h7.575a2.05,2.05,0,0,1,1.915,1.415l.166.583a.728.728,0,0,0,.749.5H46.7a2.026,2.026,0,0,1,2,2v1.082a.666.666,0,0,1-1.332,0V31.8a.746.746,0,0,0-.749-.749H30.887a2.05,2.05,0,0,1-1.915-1.415l-.166-.583a.728.728,0,0,0-.749-.5H20.481a.746.746,0,0,0-.749.749V49.776C19.649,50.192,19.4,50.442,19.066,50.442Z" transform="translate(-18.067 -26.884)"/><path class="e" d="M19,50.774a1.012,1.012,0,0,1-1-1V29.214A2.416,2.416,0,0,1,20.414,26.8h7.575a2.425,2.425,0,0,1,2.331,1.665l.166.583c.083.166.166.25.333.25h15.9a2.416,2.416,0,0,1,2.414,2.414v1.082a1.012,1.012,0,0,1-1,1,1.074,1.074,0,0,1-1-1V31.711a.358.358,0,0,0-.333-.333H30.82a2.425,2.425,0,0,1-2.331-1.665l-.166-.583c-.083-.166-.166-.25-.333-.25H20.414a.358.358,0,0,0-.333.333V49.692A1.158,1.158,0,0,1,19,50.774Zm1.332-23.142a1.581,1.581,0,0,0-1.582,1.582V49.692a.209.209,0,0,0,.416,0V29.214a1.138,1.138,0,0,1,1.165-1.165h7.575a1.252,1.252,0,0,1,1.165.832l.166.583a1.6,1.6,0,0,0,1.5,1.082h15.9A1.138,1.138,0,0,1,47.8,31.711v1.082a.209.209,0,0,0,.416,0V31.711a1.581,1.581,0,0,0-1.582-1.582H30.82a1.252,1.252,0,0,1-1.165-.832l-.166-.583a1.6,1.6,0,0,0-1.5-1.082H20.331Z" transform="translate(-18 -26.8)"/></g><g transform="translate(0 7.492)"><path class="e" d="M48.211,52.549H42.467a.666.666,0,0,1,0-1.332h5.328l5.827-13.153c.083-.166,0-.333,0-.416s-.166-.166-.333-.166H26.4a.458.458,0,0,0-.416.25L19.991,51.217H30.98a.666.666,0,0,1,0,1.332h-11.9a.5.5,0,0,1-.5-.25.731.731,0,0,1-.083-.583L24.9,37.4a1.644,1.644,0,0,1,1.5-1h26.8a1.636,1.636,0,0,1,1.415.749,1.79,1.79,0,0,1,.166,1.582L48.794,52.216A.843.843,0,0,1,48.211,52.549Z" transform="translate(-18.069 -35.901)"/><path class="e" d="M48.133,52.865H42.389a1.012,1.012,0,0,1-1-1,1.074,1.074,0,0,1,1-1h5.078l5.744-12.9h-26.8l-5.744,12.9H30.985a1.012,1.012,0,0,1,1,1,1.074,1.074,0,0,1-1,1H19a.916.916,0,0,1-.832-.5,1.071,1.071,0,0,1-.083-1l6.41-14.318A2.1,2.1,0,0,1,26.406,35.8h26.8a2.061,2.061,0,0,1,1.748.916,2.123,2.123,0,0,1,.166,2L49.132,52.2A1.287,1.287,0,0,1,48.133,52.865Zm-5.827-1.249a.166.166,0,1,0,0,.333H48.05a.291.291,0,0,0,.166-.083L54.21,38.381a1.158,1.158,0,0,0-.083-1.165,1.423,1.423,0,0,0-1.082-.583H26.323a1.41,1.41,0,0,0-1.165.749L18.748,51.7v.166c0,.083.083.083.166.083h11.9a.166.166,0,1,0,0-.333H19.247L25.49,37.548a.8.8,0,0,1,.749-.5h26.8a.913.913,0,0,1,.832,1.249l-5.91,13.319Z" transform="translate(-17.991 -35.8)"/></g></g></g></g></svg>