
<svg xmlns="http://www.w3.org/2000/svg" width="102.51" height="112.008" viewBox="0 0 102.51 112.008"><defs><style>.a{fill:#8eccff;}.b{fill:#044f8f;}.c{fill:#f2f2f2;}.d{fill:#b4ddff;}.e{fill:#fff;}</style></defs><g transform="translate(-270 -5000.992)"><g transform="translate(44 265)"><path class="a" d="M2249.753,4991.948c7.567-10.992,1.174-26.06,16.582-40.081s-10.912-1.649-20.99,15.308-12.486,28.27-9.594,29.238S2242.186,5002.941,2249.753,4991.948Z" transform="matrix(-0.978, -0.208, 0.208, -0.978, 1437.619, 10124.021)"/><g transform="translate(240.97 4766.007)"><g transform="translate(2.561 37.14)"><path class="b" d="M8.369,37.384A9.046,9.046,0,0,1,1.7,34.959l2.88-2.88c2.88,2.88,11.52,1.213,22.282-7.579l2.577,3.183C21.556,33.9,13.978,37.384,8.369,37.384Z" transform="translate(-1.7 -24.5)"/></g><g transform="translate(34.696 2.429)"><path class="b" d="M25.932,32.218,22.9,29.49C33.207,18.273,36.087,7.815,32.752,4.48l2.88-2.88C41.241,7.208,37.148,20.092,25.932,32.218Z" transform="translate(-22.9 -1.6)"/></g><g transform="translate(0.03 -0.007)"><path class="b" d="M20.447,64.575c-4.547,0-9.095-1.061-12.581-3.638L10.292,57.6c8.64,6.063,23.646,1.97,31.528-5.76l4.4-4.4L50,51.236l3.486-16.37-16.37,3.486,4.85,4.85-3.486,3.486a39.273,39.273,0,0,1-15.612,9.549c-5.76,1.667-10.61,1.213-13.339-1.516L2.561,47.75c-6.063-6.215-.909-20.463,11.975-33.2C27.268,1.671,41.516-3.482,47.579,2.429l6.972,7.124c3.941,3.941,3.032,11.52-2.122,20.311l-3.486-2.122c4.093-6.972,5.154-12.884,2.728-15.309L44.7,5.461c-3.638-3.638-15.612.455-27.284,11.975C5.9,28.955,1.8,41.081,5.441,44.719l6.972,6.972c1.516,1.516,5.154,1.819,9.246.455A34.685,34.685,0,0,0,35.6,43.658l.606-.606-7.276-7.276L58.8,29.258l-6.518,29.86-6.215-6.063-1.516,1.516C38.636,60.483,29.087,64.424,20.447,64.575Z" transform="translate(-0.03 0.007)"/></g><g transform="translate(13.757 16.212)"><path class="b" d="M15.473,25.71h-.3l-2.88-.152a3.234,3.234,0,0,1-3.032-1.97,4,4,0,0,1,1.213-4.093l1.213-1.213,2.88,2.88-.455.455,1.213.152a6.314,6.314,0,0,0,3.486-1.516l-2.274-.909a3.147,3.147,0,0,1-1.819-2.122,3.606,3.606,0,0,1,1.213-3.335l.3-.3c1.516-1.516,4.547-3.032,6.821-2.88l2.88.152a3.69,3.69,0,0,1,3.032,1.97,4,4,0,0,1-1.213,4.093l-1.213,1.213-2.88-2.88.455-.455L22.9,14.645a6.314,6.314,0,0,0-3.486,1.516l2.122.909a3.147,3.147,0,0,1,1.819,2.122,3.606,3.606,0,0,1-1.213,3.335l-.3.3A9.594,9.594,0,0,1,15.473,25.71Z" transform="translate(-9.086 -10.693)"/></g><g transform="translate(13.331 27.576)"><rect class="b" width="5.154" height="4.093" transform="translate(0 3.664) rotate(-45.308)"/></g><g transform="translate(27.957 12.961)"><rect class="b" width="5.154" height="4.093" transform="matrix(0.703, -0.711, 0.711, 0.703, 0, 3.665)"/></g></g></g><ellipse class="c" cx="29" cy="2.5" rx="29" ry="2.5" transform="translate(285 5108)"/><g transform="translate(266.242 4996.1)"><g transform="translate(27.599 4.892)"><path class="d" d="M124.355,31.059l.339,1.145a.254.254,0,0,0,.161.177l1.129.371a.263.263,0,0,1,.065.468l-.984.677a.276.276,0,0,0-.113.21l-.016,1.193a.266.266,0,0,1-.419.21l-.951-.742a.318.318,0,0,0-.242-.048l-1.145.355a.257.257,0,0,1-.323-.339l.4-1.129a.257.257,0,0,0-.032-.242l-.693-.968a.265.265,0,0,1,.226-.419l1.193.032a.282.282,0,0,0,.226-.113l.71-.968A.289.289,0,0,1,124.355,31.059Z" transform="translate(-121.482 -30.859)"/></g><g transform="translate(59.612 14.379)"><path class="d" d="M373.578,133.321l.8,1.628a.4.4,0,0,0,.295.213l1.792.262a.394.394,0,0,1,.221.671l-1.3,1.268a.4.4,0,0,0-.115.352l.3,1.784a.4.4,0,0,1-.573.417l-1.6-.843a.416.416,0,0,0-.368,0l-1.6.843a.394.394,0,0,1-.573-.417l.3-1.784a.4.4,0,0,0-.115-.352l-1.3-1.268a.391.391,0,0,1,.221-.671l1.792-.262a.382.382,0,0,0,.295-.213l.8-1.628A.411.411,0,0,1,373.578,133.321Z" transform="translate(-369.619 -133.1)"/></g><g transform="translate(3.758 33.58)"><path class="e" d="M6.469,114.56l.812,1.647a.373.373,0,0,0,.3.215l1.814.263a.405.405,0,0,1,.227.68l-1.313,1.277a.441.441,0,0,0-.119.358l.31,1.8a.4.4,0,0,1-.585.418L6.3,120.385a.4.4,0,0,0-.37,0l-1.623.848a.4.4,0,0,1-.585-.418l.31-1.8a.4.4,0,0,0-.119-.358L2.6,117.377a.4.4,0,0,1,.227-.68l1.814-.263a.4.4,0,0,0,.3-.215l.812-1.647A.4.4,0,0,1,6.469,114.56Z" transform="translate(-2.185 -114.023)"/><path class="d" d="M5.93,119.256a.619.619,0,0,1-.322-.084l-1.623-.848a.131.131,0,0,0-.1,0l-1.623.848a.719.719,0,0,1-.74-.048.686.686,0,0,1-.275-.68l.31-1.814a.129.129,0,0,0-.024-.1L.225,115.257a.7.7,0,0,1,.382-1.194l1.814-.263a.076.076,0,0,0,.072-.06l.812-1.647a.7.7,0,0,1,.621-.394.666.666,0,0,1,.621.394l.812,1.647c.012.036.048.048.072.06l1.814.263a.681.681,0,0,1,.561.477.693.693,0,0,1-.179.716l-1.313,1.277a.093.093,0,0,0-.024.1l.31,1.8a.686.686,0,0,1-.275.68A.593.593,0,0,1,5.93,119.256Zm-1.993-1.54a.619.619,0,0,1,.322.084l1.623.848a.086.086,0,0,0,.107-.012.082.082,0,0,0,.036-.1l-.31-1.8a.712.712,0,0,1,.2-.621l1.313-1.277a.1.1,0,0,0,.024-.107.1.1,0,0,0-.084-.072L5.357,114.4a.7.7,0,0,1-.525-.382l-.812-1.647a.106.106,0,0,0-.191,0l-.812,1.647a.723.723,0,0,1-.525.382l-1.814.263a.1.1,0,0,0-.084.072.1.1,0,0,0,.024.107l1.313,1.277a.7.7,0,0,1,.2.621l-.3,1.8a.091.091,0,0,0,.036.1.107.107,0,0,0,.107.012L3.6,117.8A.693.693,0,0,1,3.937,117.716Z" transform="translate(-0.011 -111.7)"/></g><g transform="translate(95.972 25.9)"><path class="e" d="M584.044,2.769l1.033,2.107a.624.624,0,0,0,.392.289l2.313.33a.516.516,0,0,1,.289.867L586.4,7.995a.477.477,0,0,0-.145.454l.392,2.313a.513.513,0,0,1-.744.537L583.817,10.2a.486.486,0,0,0-.475,0L581.256,11.3a.513.513,0,0,1-.744-.537l.392-2.313a.532.532,0,0,0-.145-.454l-1.673-1.632a.5.5,0,0,1,.289-.867l2.313-.33a.509.509,0,0,0,.392-.289l1.033-2.107A.514.514,0,0,1,584.044,2.769Z" transform="translate(-578.425 -1.943)"/><path class="d" d="M579.1,9.834a.959.959,0,0,1-.6-.207,1.055,1.055,0,0,1-.413-1.012l.392-2.313L576.8,4.671a1.047,1.047,0,0,1-.268-1.053,1.033,1.033,0,0,1,.826-.7l2.313-.33L580.708.478a1.034,1.034,0,0,1,.929-.578h0a1.057,1.057,0,0,1,.929.578L583.6,2.585l2.313.33a1.033,1.033,0,0,1,.826.7,1,1,0,0,1-.268,1.053L584.8,6.3l.392,2.313a1.031,1.031,0,0,1-.413,1.012,1.013,1.013,0,0,1-1.074.083l-2.086-1.095L579.552,9.71A.833.833,0,0,1,579.1,9.834ZM581.658.953,580.626,3.06a.975.975,0,0,1-.764.558l-2.313.33,1.673,1.632a.99.99,0,0,1,.289.909L579.118,8.8l2.065-1.095a.972.972,0,0,1,.95,0L584.219,8.8l-.413-2.313a1.045,1.045,0,0,1,.289-.909l1.673-1.632-2.313-.33a1.021,1.021,0,0,1-.764-.558Z" transform="translate(-576.494 0.1)"/></g></g></g></svg>