
<svg xmlns="http://www.w3.org/2000/svg" width="102.51" height="111.008" viewBox="0 0 102.51 111.008"><defs><style>.a{fill:#8eccff;}.b{fill:#054f90;}.c{fill:#b4ddff;}.d{fill:#fff;}.e{fill:#f2f2f2;}</style></defs><g transform="translate(-991 -5000.992)"><g transform="translate(44 267)"><path class="a" d="M2986.238,4990.544c8.375-16.559,9.62-29.3,8.159-34.328s6.493,7.829,6.39,12.093,1.563,11.04-2.187,17.152-5.61,6.667-5.61,6.667l-6.753-.794S2977.863,5007.1,2986.238,4990.544Z" transform="translate(-1990 -180)"/><g transform="translate(975 4767.135)"><g transform="translate(6.414 -0.025)"><path class="b" d="M24.976,32.883H13.442a1.442,1.442,0,0,1,0-2.883H24.976a1.442,1.442,0,1,1,0,2.883Z" transform="translate(-1.908 13.288)"/><path class="b" d="M34.988,53.355h0a1.568,1.568,0,0,1-1.442-1.009s-2.018-6.2-5.479-6.2a1.514,1.514,0,0,1-1.3-.721,1.109,1.109,0,0,1,.144-1.442c0-.144,6.92-10.381,6.92-20.761,0-8.506-8.65-17.157-11.534-19.752-2.883,2.451-11.534,11.1-11.534,19.608a32,32,0,0,0,1.73,9.948h0a46.715,46.715,0,0,0,5.19,10.813,1.706,1.706,0,0,1,.144,1.442,1.385,1.385,0,0,1-1.3.865c-3.6,0-5.479,6.055-5.479,6.2a1.539,1.539,0,0,1-1.3,1.009,1.586,1.586,0,0,1-1.442-.865C8.172,52.2,5,45.426,5,40.38c0-3.316,2.018-4.758,3.316-5.767a3.516,3.516,0,0,0,1.3-1.153,34.8,34.8,0,0,1-1.73-10.38C7.883,11.545,20.859.732,21.436.3A1.516,1.516,0,0,1,23.31.3c.433.433,13.408,11.246,13.408,22.779a34.8,34.8,0,0,1-1.73,10.38,3.516,3.516,0,0,0,1.3,1.153A6.382,6.382,0,0,1,39.6,40.38c0,5.046-3.172,11.822-3.316,12.111A1.385,1.385,0,0,1,34.988,53.355ZM10.767,36.487a2.531,2.531,0,0,0-.721.577c-1.3.865-2.163,1.442-2.163,3.316a27.809,27.809,0,0,0,1.73,7.785A9.92,9.92,0,0,1,14.227,43.7,49.013,49.013,0,0,1,10.767,36.487ZM30.375,43.7a9.92,9.92,0,0,1,4.614,4.469,24.374,24.374,0,0,0,1.73-7.785c0-1.874-.865-2.451-2.163-3.316a2.531,2.531,0,0,1-.721-.577A49.012,49.012,0,0,1,30.375,43.7Z" transform="translate(-5 0.025)"/><path class="b" d="M18.767,21.534a5.767,5.767,0,1,1,5.767-5.767A5.784,5.784,0,0,1,18.767,21.534Zm0-8.65a2.883,2.883,0,1,0,2.883,2.883A2.892,2.892,0,0,0,18.767,12.883Z" transform="translate(-1.466 4.453)"/></g><path class="b" d="M11.43,48.426a1.311,1.311,0,0,1-1.153-.577,1.55,1.55,0,0,1,.288-2.018h0c.144-.144,5.046-3.893,3.749-10.092a1.47,1.47,0,0,1,2.883-.577,13.3,13.3,0,0,1-4.9,12.976A2.049,2.049,0,0,1,11.43,48.426Z" transform="translate(3.634 15.022)"/><path class="b" d="M24.846,48.424a2.049,2.049,0,0,1-.865-.288,13.3,13.3,0,0,1-4.9-12.976,1.47,1.47,0,1,1,2.883.577c-1.3,6.2,3.6,9.948,3.749,10.092A1.55,1.55,0,0,1,26,47.847,1.311,1.311,0,0,1,24.846,48.424Z" transform="translate(7.519 15.023)"/></g></g><g transform="translate(987.242 4996.1)"><g transform="translate(27.599 4.892)"><path class="c" d="M124.355,31.059l.339,1.145a.254.254,0,0,0,.161.177l1.129.371a.263.263,0,0,1,.065.468l-.984.677a.276.276,0,0,0-.113.21l-.016,1.193a.266.266,0,0,1-.419.21l-.951-.742a.318.318,0,0,0-.242-.048l-1.145.355a.257.257,0,0,1-.323-.339l.4-1.129a.257.257,0,0,0-.032-.242l-.693-.968a.265.265,0,0,1,.226-.419l1.193.032a.282.282,0,0,0,.226-.113l.71-.968A.289.289,0,0,1,124.355,31.059Z" transform="translate(-121.482 -30.859)"/></g><g transform="translate(59.612 14.379)"><path class="c" d="M373.578,133.321l.8,1.628a.4.4,0,0,0,.295.213l1.792.262a.394.394,0,0,1,.221.671l-1.3,1.268a.4.4,0,0,0-.115.352l.3,1.784a.4.4,0,0,1-.573.417l-1.6-.843a.416.416,0,0,0-.368,0l-1.6.843a.394.394,0,0,1-.573-.417l.3-1.784a.4.4,0,0,0-.115-.352l-1.3-1.268a.391.391,0,0,1,.221-.671l1.792-.262a.382.382,0,0,0,.295-.213l.8-1.628A.411.411,0,0,1,373.578,133.321Z" transform="translate(-369.619 -133.1)"/></g><g transform="translate(3.758 33.58)"><path class="d" d="M6.469,114.56l.812,1.647a.373.373,0,0,0,.3.215l1.814.263a.405.405,0,0,1,.227.68l-1.313,1.277a.441.441,0,0,0-.119.358l.31,1.8a.4.4,0,0,1-.585.418L6.3,120.385a.4.4,0,0,0-.37,0l-1.623.848a.4.4,0,0,1-.585-.418l.31-1.8a.4.4,0,0,0-.119-.358L2.6,117.377a.4.4,0,0,1,.227-.68l1.814-.263a.4.4,0,0,0,.3-.215l.812-1.647A.4.4,0,0,1,6.469,114.56Z" transform="translate(-2.185 -114.023)"/><path class="c" d="M5.93,119.256a.619.619,0,0,1-.322-.084l-1.623-.848a.131.131,0,0,0-.1,0l-1.623.848a.719.719,0,0,1-.74-.048.686.686,0,0,1-.275-.68l.31-1.814a.129.129,0,0,0-.024-.1L.225,115.257a.7.7,0,0,1,.382-1.194l1.814-.263a.076.076,0,0,0,.072-.06l.812-1.647a.7.7,0,0,1,.621-.394.666.666,0,0,1,.621.394l.812,1.647c.012.036.048.048.072.06l1.814.263a.681.681,0,0,1,.561.477.693.693,0,0,1-.179.716l-1.313,1.277a.093.093,0,0,0-.024.1l.31,1.8a.686.686,0,0,1-.275.68A.593.593,0,0,1,5.93,119.256Zm-1.993-1.54a.619.619,0,0,1,.322.084l1.623.848a.086.086,0,0,0,.107-.012.082.082,0,0,0,.036-.1l-.31-1.8a.712.712,0,0,1,.2-.621l1.313-1.277a.1.1,0,0,0,.024-.107.1.1,0,0,0-.084-.072L5.357,114.4a.7.7,0,0,1-.525-.382l-.812-1.647a.106.106,0,0,0-.191,0l-.812,1.647a.723.723,0,0,1-.525.382l-1.814.263a.1.1,0,0,0-.084.072.1.1,0,0,0,.024.107l1.313,1.277a.7.7,0,0,1,.2.621l-.3,1.8a.091.091,0,0,0,.036.1.107.107,0,0,0,.107.012L3.6,117.8A.693.693,0,0,1,3.937,117.716Z" transform="translate(-0.011 -111.7)"/></g><g transform="translate(95.972 25.9)"><path class="d" d="M584.044,2.769l1.033,2.107a.624.624,0,0,0,.392.289l2.313.33a.516.516,0,0,1,.289.867L586.4,7.995a.477.477,0,0,0-.145.454l.392,2.313a.513.513,0,0,1-.744.537L583.817,10.2a.486.486,0,0,0-.475,0L581.256,11.3a.513.513,0,0,1-.744-.537l.392-2.313a.532.532,0,0,0-.145-.454l-1.673-1.632a.5.5,0,0,1,.289-.867l2.313-.33a.509.509,0,0,0,.392-.289l1.033-2.107A.514.514,0,0,1,584.044,2.769Z" transform="translate(-578.425 -1.943)"/><path class="c" d="M579.1,9.834a.959.959,0,0,1-.6-.207,1.055,1.055,0,0,1-.413-1.012l.392-2.313L576.8,4.671a1.047,1.047,0,0,1-.268-1.053,1.033,1.033,0,0,1,.826-.7l2.313-.33L580.708.478a1.034,1.034,0,0,1,.929-.578h0a1.057,1.057,0,0,1,.929.578L583.6,2.585l2.313.33a1.033,1.033,0,0,1,.826.7,1,1,0,0,1-.268,1.053L584.8,6.3l.392,2.313a1.031,1.031,0,0,1-.413,1.012,1.013,1.013,0,0,1-1.074.083l-2.086-1.095L579.552,9.71A.833.833,0,0,1,579.1,9.834ZM581.658.953,580.626,3.06a.975.975,0,0,1-.764.558l-2.313.33,1.673,1.632a.99.99,0,0,1,.289.909L579.118,8.8l2.065-1.095a.972.972,0,0,1,.95,0L584.219,8.8l-.413-2.313a1.045,1.045,0,0,1,.289-.909l1.673-1.632-2.313-.33a1.021,1.021,0,0,1-.764-.558Z" transform="translate(-576.494 0.1)"/></g></g><ellipse class="e" cx="29" cy="2.5" rx="29" ry="2.5" transform="translate(1014 5107)"/></g></svg>