
<svg xmlns="http://www.w3.org/2000/svg" width="29.2" height="29.173" viewBox="0 0 29.2 29.173"><defs><style>.a{fill:#fff;}</style></defs><g transform="translate(0.039 14.259) rotate(-43)"><g transform="translate(-0.032 -0.022)"><path class="a" d="M20.665,9.214A2.2,2.2,0,0,0,19.647,8.2L3.115.2A2.195,2.195,0,0,0,.123,2.988L3,10.173.127,17.358a2.192,2.192,0,0,0,1.233,2.85,2.146,2.146,0,0,0,.8.154,2.245,2.245,0,0,0,.959-.218l16.532-8A2.192,2.192,0,0,0,20.665,9.214ZM2.481,18.826a.731.731,0,0,1-1-.929l2.8-7H18.864Zm1.8-9.385-2.8-7a.731.731,0,0,1,1-.929L18.864,9.441Z" transform="translate(0.032 0.022)"/></g></g></svg>