
<svg xmlns="http://www.w3.org/2000/svg" width="41" height="41" viewBox="0 0 41 41"><defs><style>.a,.d{fill:none;}.a{stroke:#fff;}.b{fill:#fff;}.c{stroke:none;}</style></defs><g class="a"><circle class="c" cx="20.5" cy="20.5" r="20.5"/><circle class="d" cx="20.5" cy="20.5" r="20"/></g><g transform="translate(10.864 11.93)"><g transform="translate(0 0)"><path class="b" d="M20.175,49.941a8.624,8.624,0,0,1-2.383.653,4.113,4.113,0,0,0,1.82-2.286,8.266,8.266,0,0,1-2.623,1,4.136,4.136,0,0,0-7.155,2.828,4.259,4.259,0,0,0,.1.943A11.707,11.707,0,0,1,1.4,48.754a4.137,4.137,0,0,0,1.271,5.528,4.085,4.085,0,0,1-1.869-.509v.045a4.155,4.155,0,0,0,3.314,4.064,4.128,4.128,0,0,1-1.084.136,3.657,3.657,0,0,1-.783-.071,4.175,4.175,0,0,0,3.865,2.881A8.311,8.311,0,0,1,.99,62.593,7.747,7.747,0,0,1,0,62.536a11.644,11.644,0,0,0,6.345,1.856,11.691,11.691,0,0,0,11.772-11.77c0-.183-.006-.359-.015-.535A8.251,8.251,0,0,0,20.175,49.941Z" transform="translate(0 -48)"/></g></g></svg>