
<svg xmlns="http://www.w3.org/2000/svg" width="226.971" height="86.09" viewBox="0 0 226.971 86.09"><defs><style>.a{fill:#fff;}</style></defs><g transform="translate(85.727 0.635)"><path class="a" d="M101.394.7H94.863c-.272,0-.363.091-.363.363v19.05c0,.272.091.363.363.363h6.532a6.258,6.258,0,0,0,4.445-1.451,5.066,5.066,0,0,0,1.633-3.991V6.143a5.2,5.2,0,0,0-1.633-3.991A6.257,6.257,0,0,0,101.394.7Zm4.173,14.061a3.746,3.746,0,0,1-3.992,3.991h-4.9a.2.2,0,0,1-.181-.181V2.605a.2.2,0,0,1,.181-.181h4.9a3.83,3.83,0,0,1,2.9,1.089,3.971,3.971,0,0,1,1.089,2.9Z" transform="translate(-94.5 -0.7)"/></g><path class="a" d="M126.128.7H114.063c-.272,0-.363.091-.363.363v19.05c0,.272.091.363.363.363h12.065c.272,0,.363-.091.363-.363v-1c0-.272-.091-.363-.363-.363H115.877a.2.2,0,0,1-.181-.181V11.586a.2.2,0,0,1,.181-.181h7.167c.272,0,.363-.091.363-.363v-1c0-.272-.091-.363-.363-.363h-7.167A.2.2,0,0,1,115.7,9.5V2.605a.2.2,0,0,1,.181-.181h10.251c.272,0,.363-.091.363-.363v-1C126.491.791,126.4.7,126.128.7Z" transform="translate(-10.556 -0.065)"/><path class="a" d="M144.565,18.662h-9.888a.2.2,0,0,1-.181-.181V1.063c0-.272-.091-.363-.363-.363h-1.27c-.272,0-.363.091-.363.363v19.05c0,.272.091.363.363.363h11.612c.272,0,.363-.091.363-.363v-1C144.928,18.752,144.747,18.662,144.565,18.662Z" transform="translate(-12.301 -0.065)"/><path class="a" d="M161.145.7H148.263c-.272,0-.363.091-.363.363V2.151c0,.272.091.363.363.363h5.171a.2.2,0,0,1,.181.181V20.022c0,.272.091.363.363.363h1.27c.272,0,.363-.091.363-.363V2.605a.2.2,0,0,1,.181-.181h5.443c.272,0,.363-.091.363-.363v-1C161.507.791,161.417.7,161.145.7Z" transform="translate(-13.731 -0.065)"/><g transform="translate(148.502 0.635)"><path class="a" d="M178.668,20.022,172.409.972c-.091-.181-.181-.272-.363-.272h-1.814c-.181,0-.363.091-.363.272L163.7,20.022v.272a.333.333,0,0,0,.272.091h1.361c.181,0,.363-.091.363-.272l1.089-3.447c0-.091.091-.091.181-.091H175.4c.091,0,.091,0,.181.091l1.089,3.447c.091.181.181.272.363.272H178.4a.333.333,0,0,0,.272-.091c.091-.091.091-.091.091-.181A.089.089,0,0,0,178.668,20.022Zm-3.81-5.08H167.6c-.091,0-.091-.091-.091-.181L171.139,3.24a.091.091,0,0,1,.181,0l3.629,11.521C174.949,14.852,174.949,14.942,174.858,14.942Z" transform="translate(-163.7 -0.7)"/></g><g transform="translate(104.233 31.66)"><path class="a" d="M126.33,36.442a5.2,5.2,0,0,1,1.451,3.9,5,5,0,0,1-5.352,5.352h-5.9c-.091,0-.091,0-.091.091l.091,8.618a.321.321,0,0,1-.363.363h-.816a.321.321,0,0,1-.363-.363L114.9,35.263a.321.321,0,0,1,.363-.363h7.167A5.636,5.636,0,0,1,126.33,36.442Zm-1.089,6.894a3.995,3.995,0,0,0-2.9-6.894h-5.806c-.091,0-.091,0-.091.091v7.892c0,.091,0,.091.091.091h5.806A4.259,4.259,0,0,0,125.242,43.337Z" transform="translate(-114.9 -34.9)"/></g><g transform="translate(121.287 31.569)"><path class="a" d="M145.039,54.395l-4.354-8.981a.089.089,0,0,0-.091-.091h-5.262c-.091,0-.091,0-.091.091l.091,8.89a.321.321,0,0,1-.363.363h-.816a.321.321,0,0,1-.363-.363L133.7,35.163a.321.321,0,0,1,.363-.363h7.076a4.984,4.984,0,0,1,5.262,5.262,5.583,5.583,0,0,1-1.089,3.447,4.988,4.988,0,0,1-2.994,1.724c-.091,0-.091.091-.091.181l4.354,8.89c0,.091.091.091.091.181,0,.181-.091.181-.272.272h-.816C145.221,54.667,145.13,54.576,145.039,54.395Zm-9.979-17.962v7.711c0,.091,0,.091.091.091h5.624a3.731,3.731,0,0,0,3.9-3.9,3.971,3.971,0,0,0-1.089-2.9,3.759,3.759,0,0,0-2.812-1.089h-5.624C135.061,36.251,135.061,36.342,135.061,36.433Z" transform="translate(-133.7 -34.8)"/></g><g transform="translate(137.888 31.388)"><path class="a" d="M155.084,54.013a5.466,5.466,0,0,1-2.268-2.268A6.811,6.811,0,0,1,152,48.389V41.041a6.811,6.811,0,0,1,.816-3.356,5.466,5.466,0,0,1,2.268-2.268,6.921,6.921,0,0,1,3.447-.816,7.167,7.167,0,0,1,3.447.816,5.685,5.685,0,0,1,2.359,2.268,6.811,6.811,0,0,1,.816,3.356v7.348a6.811,6.811,0,0,1-.816,3.356,5.466,5.466,0,0,1-2.268,2.268,7.167,7.167,0,0,1-3.447.816A6.809,6.809,0,0,1,155.084,54.013Zm7.076-1.905a5.073,5.073,0,0,0,1.361-3.719V40.95a4.591,4.591,0,0,0-1.451-3.629,5.073,5.073,0,0,0-3.719-1.361,4.591,4.591,0,0,0-3.629,1.451,5,5,0,0,0-1.361,3.629V48.48a4.857,4.857,0,0,0,1.361,3.629,5,5,0,0,0,3.629,1.361A4.813,4.813,0,0,0,162.16,52.108Z" transform="translate(-152 -34.6)"/></g><g transform="translate(153.945 31.478)"><path class="a" d="M182.854,34.791a.333.333,0,0,1,.091.272V35.7a.321.321,0,0,1-.363.363h-5.624c-.091,0-.091,0-.091.091l.091,17.962a.321.321,0,0,1-.363.363h-.816a.321.321,0,0,1-.363-.363V36.242c0-.091,0-.091-.091-.091h-5.262a.321.321,0,0,1-.363-.363v-.635a.321.321,0,0,1,.363-.363l12.609-.091A.317.317,0,0,0,182.854,34.791Z" transform="translate(-169.7 -34.7)"/></g><g transform="translate(171.272 31.388)"><path class="a" d="M201.41,35.87a.333.333,0,0,1-.272.091l-10.614.091c-.091,0-.091,0-.091.091v7.62c0,.091,0,.091.091.091h7.529a.321.321,0,0,1,.363.363v.635a.321.321,0,0,1-.363.363h-7.529c-.091,0-.091,0-.091.091v7.711c0,.091,0,.091.091.091l10.614-.091a.321.321,0,0,1,.363.363v.635a.321.321,0,0,1-.363.363l-11.884.091a.321.321,0,0,1-.363-.363l-.091-19.05a.321.321,0,0,1,.363-.363l11.884-.091a.321.321,0,0,1,.363.363V35.6C201.5,35.689,201.41,35.779,201.41,35.87Z" transform="translate(-188.8 -34.6)"/></g><g transform="translate(188.054 31.025)"><path class="a" d="M210.384,53.795a5.257,5.257,0,0,1-2.268-2.177,6.128,6.128,0,0,1-.816-3.175V40.369a6.128,6.128,0,0,1,.816-3.175,5.827,5.827,0,0,1,2.268-2.177,6.811,6.811,0,0,1,3.356-.816,7.932,7.932,0,0,1,3.356.726,5.059,5.059,0,0,1,2.268,2.086,5.8,5.8,0,0,1,.816,3.084.321.321,0,0,1-.363.363H219c-.181,0-.363-.091-.363-.181V40.1a4.244,4.244,0,0,0-1.361-3.356,5.819,5.819,0,0,0-7.257,0,4.443,4.443,0,0,0-1.361,3.447l.091,8.164a4.578,4.578,0,0,0,1.361,3.447,5.19,5.19,0,0,0,3.629,1.27,4.647,4.647,0,0,0,3.538-1.361,4.578,4.578,0,0,0,1.361-3.447c0-.181.091-.272.363-.272h.816c.181,0,.363.091.363.181v.181a6.129,6.129,0,0,1-.816,3.175A5.827,5.827,0,0,1,217.1,53.7a7.693,7.693,0,0,1-6.713.091Z" transform="translate(-207.3 -34.2)"/></g><g transform="translate(203.839 31.116)"><path class="a" d="M237.945,34.481a.333.333,0,0,1,.091.272v.635a.321.321,0,0,1-.363.363h-5.624c-.091,0-.091,0-.091.091l.091,17.962a.321.321,0,0,1-.363.363h-.816a.321.321,0,0,1-.363-.363l-.091-17.962c0-.091,0-.091-.091-.091h-5.262a.321.321,0,0,1-.363-.363v-.635a.321.321,0,0,1,.363-.363l12.609-.091A1.123,1.123,0,0,1,237.945,34.481Z" transform="translate(-224.7 -34.3)"/></g><g transform="translate(0 0)"><path class="a" d="M97.7,80.374,52.434,1.905A3.847,3.847,0,0,0,49.077,0a3.7,3.7,0,0,0-3.266,1.905L.544,80.374a3.606,3.606,0,0,0,0,3.81A3.81,3.81,0,0,0,3.81,86.089H94.345a3.7,3.7,0,0,0,3.266-1.905A3.429,3.429,0,0,0,97.7,80.374ZM95.8,83.1a1.539,1.539,0,0,1-1.451.816H3.81A1.539,1.539,0,0,1,2.359,83.1a1.732,1.732,0,0,1,0-1.633L47.717,2.994a1.7,1.7,0,0,1,2.9,0L95.887,81.463A1.531,1.531,0,0,1,95.8,83.1Z" transform="translate(0 0)"/></g><g transform="translate(219.895 31.206)"><path class="a" d="M247.752,34.854a2.866,2.866,0,0,1,1.27,1.27,3.752,3.752,0,0,1,.454,1.724,4.129,4.129,0,0,1-.454,1.814,2.866,2.866,0,0,1-1.27,1.27,3.835,3.835,0,0,1-1.814.454,4.129,4.129,0,0,1-1.814-.454,2.866,2.866,0,0,1-1.27-1.27,3.836,3.836,0,0,1-.454-1.814,3.752,3.752,0,0,1,.454-1.724,3.411,3.411,0,0,1,1.27-1.27,3.014,3.014,0,0,1,1.814-.454A3.835,3.835,0,0,1,247.752,34.854Zm-.272,5.534a2.308,2.308,0,0,0,1-1.089,3.8,3.8,0,0,0,.363-1.451,2.662,2.662,0,0,0-.363-1.451,2.624,2.624,0,0,0-1-1,3.084,3.084,0,0,0-2.9,0,3.867,3.867,0,0,0-1.089,1,3.084,3.084,0,0,0,0,2.9,3.127,3.127,0,0,0,1.089,1.089,2.662,2.662,0,0,0,1.451.363A3.8,3.8,0,0,0,247.48,40.387Zm-.816-2.359c-.091,0-.091.091,0,.091l.454,1.089V39.3a.2.2,0,0,1-.181.181h-.091c-.091,0-.181-.091-.272-.181l-.454-1.089a.089.089,0,0,0-.091-.091h-.272c-.091,0-.091,0-.091.091v1a.241.241,0,0,1-.272.272H245.3a.241.241,0,0,1-.272-.272V36.486a.241.241,0,0,1,.272-.272h.907a.824.824,0,0,1,.635.272.893.893,0,0,1,.272.726A.953.953,0,0,1,246.664,38.029Zm-1-1.179v.816c0,.091,0,.091.091.091h.363c.181,0,.272,0,.363-.091s.091-.181.091-.363,0-.272-.091-.363-.181-.091-.363-.091Z" transform="translate(-242.4 -34.4)"/></g><path class="a" d="M129.314,79.3a2.668,2.668,0,0,1-1.361-1.27,3.306,3.306,0,0,1-.454-1.905v-4.9a4.217,4.217,0,0,1,.454-1.905,3.637,3.637,0,0,1,1.361-1.27A5.039,5.039,0,0,1,131.4,67.6a4.618,4.618,0,0,1,2,.454,3.074,3.074,0,0,1,1.361,1.27,3.306,3.306,0,0,1,.454,1.905c0,.091,0,.091-.091.181s-.091.091-.181.091h-.454c-.181,0-.181,0-.181-.091v-.091a2.874,2.874,0,0,0-.816-2.086,3.311,3.311,0,0,0-4.354,0,2.733,2.733,0,0,0-.816,2.086v4.808a2.874,2.874,0,0,0,.816,2.086,3.311,3.311,0,0,0,4.354,0,2.733,2.733,0,0,0,.816-2.086.2.2,0,0,1,.181-.181h.454c.181,0,.181,0,.181.091v.091a4.217,4.217,0,0,1-.454,1.905,3.637,3.637,0,0,1-1.361,1.27,4.618,4.618,0,0,1-2,.454A3.613,3.613,0,0,1,129.314,79.3Z" transform="translate(-11.837 -6.276)"/><path class="a" d="M138.154,83.374v-.726l.091-.091h.091a2.8,2.8,0,0,0,1-.181c.272-.091.454-.363.635-.726s.363-.907.635-1.633v-.091l-2.9-8.255v-.091a.2.2,0,0,1,.181-.181h.544a.2.2,0,0,1,.181.181l2.449,7.076h.181l2.359-7.076a.2.2,0,0,1,.181-.181h.544c.091,0,.091,0,.181.091v.181l-3.175,9.253a16.129,16.129,0,0,1-.726,1.633c-.272.363-.454.635-.816.726a4.206,4.206,0,0,1-1.27.181l-.363-.091Z" transform="translate(-12.784 -6.629)"/><path class="a" d="M153.513,74.132V75.4a12.159,12.159,0,0,1-.181,2.177,2.642,2.642,0,0,1-1.089,1.633,2.932,2.932,0,0,1-2,.635,3.314,3.314,0,0,1-1.361-.272,2.35,2.35,0,0,1-1-.907H147.8v.907c0,.091,0,.091-.091.181s-.091.091-.181.091h-.454c-.091,0-.091,0-.181-.091a.317.317,0,0,1-.091-.181v-11.7c0-.091,0-.091.091-.181a.317.317,0,0,1,.181-.091h.454c.091,0,.091,0,.181.091s.091.091.091.181v4.173h.091a2.218,2.218,0,0,1,1-.816,3.029,3.029,0,0,1,1.361-.272,2.932,2.932,0,0,1,2,.635,3.148,3.148,0,0,1,1.089,1.724A1.811,1.811,0,0,1,153.513,74.132Zm-.907,2.449c0-.272.091-.726.091-1.27a4.465,4.465,0,0,0-.091-1.27c-.091-.272-.091-.544-.181-.726a1.951,1.951,0,0,0-.816-1.089,2.444,2.444,0,0,0-1.361-.454,2.228,2.228,0,0,0-1.361.454,1.806,1.806,0,0,0-.726,1.089,2.135,2.135,0,0,0-.181.726c0,.272-.091.726-.091,1.361v1.27a1.709,1.709,0,0,0,.181.726,2.017,2.017,0,0,0,.726,1.179,2.228,2.228,0,0,0,1.361.454,2.272,2.272,0,0,0,2.268-1.633C152.515,77.125,152.515,76.853,152.606,76.581Z" transform="translate(-13.629 -6.276)"/><path class="a" d="M161.5,78.92a2.413,2.413,0,0,0,.907-1c.091-.091.181-.181.272-.091l.272.091c.091.091.181.181.091.272a3.391,3.391,0,0,1-1.179,1.361,3.354,3.354,0,0,1-1.905.544,3.45,3.45,0,0,1-2-.544,2.7,2.7,0,0,1-1.089-1.542,7.325,7.325,0,0,1-.272-2.268v-1.27c0-.272.091-.544.091-.816a3.148,3.148,0,0,1,1.089-1.724,3.18,3.18,0,0,1,2.086-.635,3.119,3.119,0,0,1,3.266,2.721c0,.272.091.454.091.726v1.089c0,.181-.091.181-.181.181h-5.534c-.091,0-.091,0-.091.091a5.642,5.642,0,0,0,.091,1.451,2.151,2.151,0,0,0,.816,1.361,2.533,2.533,0,0,0,1.633.544A5.041,5.041,0,0,0,161.5,78.92ZM157.507,75.2h0l4.808.091a.089.089,0,0,0,.091-.091,4.82,4.82,0,0,0-.091-1.27,2.151,2.151,0,0,0-.816-1.361,2.289,2.289,0,0,0-1.542-.544,2.811,2.811,0,0,0-1.542.454,2.385,2.385,0,0,0-.816,1.27C157.6,74.021,157.507,74.475,157.507,75.2Z" transform="translate(-14.539 -6.62)"/><path class="a" d="M170.964,71.481c.091,0,.181.091.091.272l-.181.454c0,.181-.091.181-.272.091a2.512,2.512,0,0,0-.816-.091,1.938,1.938,0,0,0-1.542.726,2.864,2.864,0,0,0-.635,1.724v5.08c0,.091,0,.091-.091.181s-.091.091-.181.091h-.363c-.091,0-.091,0-.181-.091a.317.317,0,0,1-.091-.181V71.572c0-.091,0-.091.091-.181a.317.317,0,0,1,.181-.091h.454c.091,0,.091,0,.181.091a.317.317,0,0,1,.091.181v1.179h0a2.456,2.456,0,0,1,.907-1,2.186,2.186,0,0,1,1.361-.363A1.886,1.886,0,0,1,170.964,71.481Z" transform="translate(-15.477 -6.62)"/><path class="a" d="M173.889,78.949a2.638,2.638,0,0,1-1.089-2.268v-.544c0-.091,0-.091.091-.181s.091-.091.181-.091h.454c.091,0,.091,0,.181.091s.091.091.091.181v.454a1.965,1.965,0,0,0,.907,1.724,3.649,3.649,0,0,0,2.359.635,3.869,3.869,0,0,0,2.177-.544,1.993,1.993,0,0,0,.726-1.633,1.446,1.446,0,0,0-.363-1.089,3.305,3.305,0,0,0-1-.907,19.7,19.7,0,0,0-1.905-.907c-.907-.363-1.542-.726-2-.907a3.63,3.63,0,0,1-1.089-.907,2.51,2.51,0,0,1-.454-1.451,2.76,2.76,0,0,1,1-2.177,3.945,3.945,0,0,1,2.631-.726,4.432,4.432,0,0,1,2.9.816,2.752,2.752,0,0,1,1.089,2.268v.363c0,.091,0,.091-.091.181s-.091.091-.181.091h-.454c-.091,0-.091,0-.181-.091a.317.317,0,0,1-.091-.181v-.272a2.107,2.107,0,0,0-.816-1.724,3.381,3.381,0,0,0-2.268-.635,3.083,3.083,0,0,0-2,.544,1.938,1.938,0,0,0-.726,1.542,1.446,1.446,0,0,0,.363,1.089,2.47,2.47,0,0,0,.907.726q.544.272,1.905.816a10.136,10.136,0,0,1,2,1,2.757,2.757,0,0,1,1.179,1.089,2.811,2.811,0,0,1,.454,1.542,2.76,2.76,0,0,1-1,2.177,4.432,4.432,0,0,1-2.9.816A5.575,5.575,0,0,1,173.889,78.949Z" transform="translate(-16.043 -6.285)"/><path class="a" d="M188.6,78.92a2.413,2.413,0,0,0,.907-1c.091-.091.181-.181.272-.091l.272.091c.091.091.181.181.091.272a3.391,3.391,0,0,1-1.179,1.361,3.354,3.354,0,0,1-1.905.544,3.45,3.45,0,0,1-2-.544,2.7,2.7,0,0,1-1.089-1.542,7.325,7.325,0,0,1-.272-2.268v-1.27c0-.272.091-.544.091-.816a3.148,3.148,0,0,1,1.089-1.724,3.18,3.18,0,0,1,2.086-.635,3.119,3.119,0,0,1,3.266,2.721c0,.272.091.454.091.726v1.089c0,.181-.091.181-.181.181h-5.534c-.091,0-.091,0-.091.091a5.641,5.641,0,0,0,.091,1.451,2.151,2.151,0,0,0,.816,1.361,2.533,2.533,0,0,0,1.633.544A4.273,4.273,0,0,0,188.6,78.92ZM184.607,75.2h0l4.808.091a.089.089,0,0,0,.091-.091,4.819,4.819,0,0,0-.091-1.27,2.151,2.151,0,0,0-.816-1.361,2.289,2.289,0,0,0-1.542-.544,2.811,2.811,0,0,0-1.542.454,2.385,2.385,0,0,0-.816,1.27A10.71,10.71,0,0,1,184.607,75.2Z" transform="translate(-17.055 -6.62)"/><path class="a" d="M194.87,79.464a3.148,3.148,0,0,1-1.089-1.724,7.135,7.135,0,0,1-.181-2.086,12.741,12.741,0,0,1,.181-2.086,2.642,2.642,0,0,1,1.089-1.633,3.788,3.788,0,0,1,2.086-.635,3.18,3.18,0,0,1,2.086.635,2.584,2.584,0,0,1,1.089,1.542c0,.181.091.272.091.454h0a.2.2,0,0,1-.181.181l-.454.091h0a.2.2,0,0,1-.181-.181V73.84a1.781,1.781,0,0,0-.816-1.179,2.375,2.375,0,0,0-1.542-.454,2.232,2.232,0,0,0-2.359,1.724,9.163,9.163,0,0,0,0,3.629,2.151,2.151,0,0,0,.816,1.361,2.23,2.23,0,0,0,1.542.454,2.6,2.6,0,0,0,1.542-.454,2.016,2.016,0,0,0,.816-1.179V77.65c0-.091,0-.091.091-.091h.181l.454.091c.091,0,.091,0,.181.091s.091.091,0,.181l-.091.272a2.7,2.7,0,0,1-1.089,1.542,3.788,3.788,0,0,1-2.086.635A6.054,6.054,0,0,1,194.87,79.464Z" transform="translate(-17.974 -6.62)"/><path class="a" d="M214.711,68.416a.317.317,0,0,1-.181.091h-6.441A.089.089,0,0,0,208,68.6v4.627c0,.091,0,.091.091.091h4.536c.091,0,.091,0,.181.091s.091.091.091.181v.363c0,.091,0,.091-.091.181s-.091.091-.181.091h-4.536a.089.089,0,0,0-.091.091v5.352c0,.091,0,.091-.091.181s-.091.091-.181.091h-.454c-.091,0-.091,0-.181-.091s-.091-.091-.091-.181V67.872c0-.091,0-.091.091-.181s.091-.091.181-.091h7.167c.091,0,.091,0,.181.091s.091.091.091.181v.363A.126.126,0,0,1,214.711,68.416Z" transform="translate(-19.218 -6.276)"/><path class="a" d="M217.481,69.17a.667.667,0,0,1-.181-.544,1.29,1.29,0,0,1,.181-.544.667.667,0,0,1,.544-.181.641.641,0,0,1,.726.726,1.29,1.29,0,0,1-.181.544.667.667,0,0,1-.544.181A.767.767,0,0,1,217.481,69.17Zm.181,10.432a.317.317,0,0,1-.091-.181V71.256c0-.091,0-.091.091-.181a.317.317,0,0,1,.181-.091h.454c.091,0,.091,0,.181.091a.317.317,0,0,1,.091.181v8.164c0,.091,0,.091-.091.181s-.091.091-.181.091h-.454A.317.317,0,0,1,217.663,79.6Z" transform="translate(-20.174 -6.304)"/><path class="a" d="M225.964,71.481c.091,0,.181.091.091.272l-.181.454c0,.181-.091.181-.272.091a2.512,2.512,0,0,0-.816-.091,1.938,1.938,0,0,0-1.542.726,2.864,2.864,0,0,0-.635,1.724v5.08c0,.091,0,.091-.091.181s-.091.091-.181.091h-.363c-.091,0-.091,0-.181-.091a.317.317,0,0,1-.091-.181V71.572c0-.091,0-.091.091-.181a.317.317,0,0,1,.181-.091h.454c.091,0,.091,0,.181.091a.317.317,0,0,1,.091.181v1.179h0a2.456,2.456,0,0,1,.907-1,2.186,2.186,0,0,1,1.361-.363A1.71,1.71,0,0,1,225.964,71.481Z" transform="translate(-20.583 -6.62)"/><path class="a" d="M229.351,79.727a2.477,2.477,0,0,1-1.089-.816,1.743,1.743,0,0,1-.363-1.089v-.181c0-.091,0-.091.091-.181a.317.317,0,0,1,.181-.091h.454c.091,0,.091,0,.181.091l.091.091v.181a1.284,1.284,0,0,0,.635,1.089,2.9,2.9,0,0,0,1.633.454,2.6,2.6,0,0,0,1.542-.454,1.551,1.551,0,0,0,.635-1.179,1.266,1.266,0,0,0-.272-.816,1.976,1.976,0,0,0-.726-.454c-.272-.091-.726-.272-1.27-.454a9.724,9.724,0,0,1-1.542-.544,4.027,4.027,0,0,1-1-.726,1.673,1.673,0,0,1-.363-1.179,1.832,1.832,0,0,1,.816-1.633,3.87,3.87,0,0,1,2.177-.635,4.745,4.745,0,0,1,1.633.272,2.477,2.477,0,0,1,1.089.816,1.823,1.823,0,0,1,.363,1.179h0c0,.091,0,.091-.091.181s-.091.091-.181.091h-.635l-.091-.091v-.091a1.185,1.185,0,0,0-.635-1.089,2.9,2.9,0,0,0-1.633-.454,2.6,2.6,0,0,0-1.542.363,1.293,1.293,0,0,0-.544,1.089,1.138,1.138,0,0,0,.544,1,7.643,7.643,0,0,0,1.633.635,17.125,17.125,0,0,1,1.633.544,2.573,2.573,0,0,1,1,.726,1.966,1.966,0,0,1,.454,1.27,2.107,2.107,0,0,1-.816,1.724,3.277,3.277,0,0,1-2.177.635A3.477,3.477,0,0,1,229.351,79.727Z" transform="translate(-21.159 -6.61)"/><path class="a" d="M240.545,71.875a.317.317,0,0,1-.181.091h-2c-.091,0-.091,0-.091.091v5.352c0,.544.091,1,.363,1.179a2.348,2.348,0,0,0,1.27.363h.363c.091,0,.091,0,.181.091a.317.317,0,0,1,.091.181v.363c0,.181-.091.181-.181.181h-.454a3.336,3.336,0,0,1-1.814-.454,1.914,1.914,0,0,1-.635-1.724V71.966a.089.089,0,0,0-.091-.091h-1c-.091,0-.091,0-.181-.091a.317.317,0,0,1-.091-.181V71.24c0-.091,0-.091.091-.181a.317.317,0,0,1,.181-.091h1a.089.089,0,0,0,.091-.091V68.972c0-.091,0-.091.091-.181a.317.317,0,0,1,.181-.091h.454c.091,0,.091,0,.181.091a.317.317,0,0,1,.091.181v1.905c0,.091,0,.091.091.091h2c.091,0,.091,0,.181.091a.317.317,0,0,1,.091.181v.454C240.636,71.784,240.545,71.784,240.545,71.875Z" transform="translate(-21.92 -6.378)"/></svg>