
<svg xmlns="http://www.w3.org/2000/svg" width="159.519" height="44.806" viewBox="0 0 159.519 44.806"><defs><style>.a{fill:#eeeef0;}.b{fill:#99999a;}.c{fill:#4a4f54;}</style></defs><path class="a" d="M6.832.159,152.528,0a6.917,6.917,0,0,1,6.991,6.832V37.5a6.917,6.917,0,0,1-6.832,6.991l-145.7.318A7.053,7.053,0,0,1,0,37.814V7.15A6.917,6.917,0,0,1,6.832.159Z"/><path class="b" d="M33.637,7.518a1.241,1.241,0,0,1,.636.636,2.258,2.258,0,0,1,.318.953,2.015,2.015,0,0,1-.159.953,1.24,1.24,0,0,1-.636.636,2.015,2.015,0,0,1-.953.159H31.253v2.7H30.3V7.2h2.542C33,7.359,33.319,7.359,33.637,7.518ZM33.319,9.9a1.214,1.214,0,0,0,.318-.794c0-.636-.318-1.112-.953-1.112H31.094V10.06h1.43a.7.7,0,0,0,.794-.159Z" transform="translate(17.842 4.24)"/><path class="b" d="M36.1,8.459s.159.159,0,.159l-.159.477a.156.156,0,0,1-.159.159h-.477a.825.825,0,0,0-.636.318,1.2,1.2,0,0,0-.318.636v2.542a.156.156,0,0,1-.159.159h-.636a.156.156,0,0,1-.159-.159h0V8.459a.156.156,0,0,1,.159-.159h.794v.636h0A1.338,1.338,0,0,1,35.465,8.3C35.783,8.3,35.942,8.3,36.1,8.459Z" transform="translate(19.667 4.887)"/><path class="b" d="M36.294,12.649a1.073,1.073,0,0,1-.636-.953,2.7,2.7,0,0,1-.159-1.112,2.7,2.7,0,0,1,.159-1.112,3.324,3.324,0,0,1,.636-.953A2.946,2.946,0,0,1,37.407,8.2a2.3,2.3,0,0,1,1.112.318,1.073,1.073,0,0,1,.636.953,4.042,4.042,0,0,1,.318,1.112,2.7,2.7,0,0,1-.159,1.112,3.324,3.324,0,0,1-.636.953,2.946,2.946,0,0,1-1.112.318A1.712,1.712,0,0,1,36.294,12.649Zm1.748-.636a.825.825,0,0,0,.318-.636c0-.318.159-.477.159-.794a1.432,1.432,0,0,0-.159-.794,1.2,1.2,0,0,0-.318-.636,1.351,1.351,0,0,0-1.271,0,.825.825,0,0,0-.318.636,2.015,2.015,0,0,0-.159.953,1.191,1.191,0,0,0,.159.794,1.2,1.2,0,0,0,.318.636.955.955,0,0,0,.636.159.825.825,0,0,0,.636-.318Z" transform="translate(20.904 4.828)"/><path class="b" d="M40.883,9.348H39.93v2.383c0,.318.159.636.477.636h.477V13a.156.156,0,0,1-.159.159h-.318A2.015,2.015,0,0,1,39.453,13c-.318-.159-.318-.636-.318-.953v-2.7H38.5V8.871a.156.156,0,0,1,.159-.159h.477V7.6h.794V8.712h1.112v.159l-.159.477Z" transform="translate(22.67 4.475)"/><path class="b" d="M43.619,11.637h0c.159-.159.159,0,.159,0l.318.159v.159h0a1.24,1.24,0,0,1-.636.636,2.258,2.258,0,0,1-.953.318,2.946,2.946,0,0,1-1.112-.318,1.586,1.586,0,0,1-.636-.794,3.5,3.5,0,0,1-.159-1.271,2.015,2.015,0,0,1,.159-.953c.159-.318.318-.794.636-.953A1.513,1.513,0,0,1,42.507,8.3a1.8,1.8,0,0,1,1.271.477,3.194,3.194,0,0,1,.636,1.271v.794a.156.156,0,0,1-.159.159h-2.86v.477a1.2,1.2,0,0,0,.318.636,1.191,1.191,0,0,0,.794.159A1.608,1.608,0,0,0,43.619,11.637ZM41.712,9.253c-.159.159-.318.318-.318.477v.477H43.46V9.73a1.044,1.044,0,0,0-1.271-.794c-.159.159-.318.159-.477.318Z" transform="translate(23.907 4.887)"/><path class="b" d="M44.294,12.649a1.459,1.459,0,0,1-.636-.953,2.356,2.356,0,0,1-.159-1.112,2.7,2.7,0,0,1,.159-1.112,3.324,3.324,0,0,1,.636-.953A2.946,2.946,0,0,1,45.407,8.2a2.3,2.3,0,0,1,1.112.318,1.586,1.586,0,0,1,.636.794V9.63h0A.156.156,0,0,1,47,9.789h0l-.636.159h0a.156.156,0,0,1-.159-.159V9.63c0-.159-.159-.318-.318-.477a1.351,1.351,0,0,0-1.271,0c-.159.159-.318.318-.318.477a3.249,3.249,0,0,0,0,1.748,1.2,1.2,0,0,0,.318.636,1.351,1.351,0,0,0,1.271,0c.159-.159.318-.318.318-.477h0v-.159h.159l.636.159a.156.156,0,0,1,.159.159h0v.159a1.586,1.586,0,0,1-.636.794,2.946,2.946,0,0,1-1.112.318A4.042,4.042,0,0,1,44.294,12.649Z" transform="translate(25.614 4.828)"/><path class="b" d="M48.883,9.407c-.159,0-.159.159,0,0H47.93V11.79c0,.318.159.636.477.636h.318a.156.156,0,0,1,.159.159h0v.477a.156.156,0,0,1-.159.159h-.318a2.015,2.015,0,0,1-.953-.159c-.318-.159-.318-.636-.318-.953v-2.7h-.477a.156.156,0,0,1-.159-.159h0V8.612h.636V7.5h.636a.156.156,0,0,1,.159.159h0v.953h.953a.156.156,0,0,1,.159.159h0l-.159.636Z" transform="translate(27.381 4.416)"/><path class="b" d="M51.519,11.637h0c.159-.159.159,0,.159,0L52,11.8v.159h0a1.241,1.241,0,0,1-.636.636,2.258,2.258,0,0,1-.953.318,2.946,2.946,0,0,1-1.112-.318,1.586,1.586,0,0,1-.636-.794,3.5,3.5,0,0,1-.159-1.271,2.015,2.015,0,0,1,.159-.953c.159-.318.318-.794.636-.953A1.513,1.513,0,0,1,50.407,8.3a1.8,1.8,0,0,1,1.271.477,3.194,3.194,0,0,1,.636,1.271v.794a.156.156,0,0,1-.159.159h-2.86v.477a1.2,1.2,0,0,0,.318.636,1.191,1.191,0,0,0,.794.159A1.338,1.338,0,0,0,51.519,11.637ZM49.771,9.094c-.159.159-.318.318-.318.477v.477h2.065V9.571a1.007,1.007,0,0,0-.953-.794c-.477.159-.636.318-.794.318Z" transform="translate(28.559 4.887)"/><path class="b" d="M54.419,7.344h.794v6.038a.156.156,0,0,1-.159.159h-.636a.156.156,0,0,1-.159-.159h0v-.159h0a1.373,1.373,0,0,1-.953.477,2.946,2.946,0,0,1-1.112-.318,1.459,1.459,0,0,1-.636-.953,2.7,2.7,0,0,1-.159-1.112,2.7,2.7,0,0,1,.159-1.112,3.324,3.324,0,0,1,.636-.953,2.3,2.3,0,0,1,1.112-.318,1.2,1.2,0,0,1,.636.159c.159,0,.318.159.477.318h0V7.344Zm0,3.813a2.7,2.7,0,0,0-.159-1.112.9.9,0,0,0-1.589,0,2.946,2.946,0,0,0-.318,1.112,2.7,2.7,0,0,0,.159,1.112.9.9,0,0,0,1.589,0A1.341,1.341,0,0,0,54.419,11.157Z" transform="translate(30.266 4.254)"/><path class="b" d="M59.513,11.231a2.7,2.7,0,0,1-.159,1.112,3.324,3.324,0,0,1-.636.953,2.3,2.3,0,0,1-1.112.318,1.132,1.132,0,0,1-.953-.477h0V13.3a.156.156,0,0,1-.159.159H55.7V7.1h.794a.156.156,0,0,1,.159.159h0V9.165h0c.159-.159.318-.318.477-.318s.318-.159.636-.159a2.946,2.946,0,0,1,1.112.318,9.114,9.114,0,0,1,.636,1.112C59.513,10.6,59.672,10.913,59.513,11.231Zm-.794,0a2.3,2.3,0,0,0-.318-1.112.9.9,0,0,0-1.589,0,1.4,1.4,0,0,0-.159,1.112,2.7,2.7,0,0,0,.159,1.112.9.9,0,0,0,1.589,0,1.341,1.341,0,0,0,.318-1.112Z" transform="translate(32.798 4.181)"/><path class="b" d="M58.718,14.5h0v-.636h0a.584.584,0,0,0,.477-.159.342.342,0,0,0,.318-.318c.159-.159.159-.477.318-.636h0L58.4,8.459h0a.156.156,0,0,1,.159-.159h.636a.156.156,0,0,1,.159.159l.953,3.178h0l.953-3.178V8.3h.953v.159l-1.589,4.767c-.159.318-.159.636-.477.953l-.477.477c-.159-.159-.477,0-.953-.159h0C58.877,14.655,58.718,14.655,58.718,14.5Z" transform="translate(34.388 4.887)"/><g transform="translate(48.142 23.833)"><path class="c" d="M30.3,23.739v-8.58c0-.159,0-.159.159-.159h3.019a3.193,3.193,0,0,1,2.065.636,2.551,2.551,0,0,1,.794,1.748v3.972a2.024,2.024,0,0,1-.794,1.748,3.193,3.193,0,0,1-2.065.636H30.459c-.159.159-.159.159-.159,0Zm.953-.636h2.224a1.64,1.64,0,0,0,1.748-1.748V17.542a1.633,1.633,0,0,0-1.589-1.748H31.094l.159,7.309Z" transform="translate(-30.3 -15)"/></g><g transform="translate(55.927 23.674)"><path class="c" d="M40.761,15.853H36.153v3.178h3.178c.159,0,.159,0,.159.159h0v.477c0,.159,0,.159-.159.159H36.153V23h4.608c.159,0,.159,0,.159.159h0v.477c0,.159,0,.159-.159.159h-5.4c-.159,0-.159,0-.159-.159h0v-8.58c0-.159,0-.159.159-.159h5.4c.159,0,.159,0,.159.159h0v.477c0,.318,0,.318-.159.318Z" transform="translate(-35.2 -14.9)"/></g><g transform="translate(63.553 23.833)"><path class="c" d="M40,23.739v-8.58C40,15,40,15,40.159,15h.636c.159,0,.159,0,.159.159h0V23.1H45.4c.159,0,.159,0,.159.159h0v.477c0,.159,0,.159-.159.159H40.159L40,23.739Z" transform="translate(-40 -15)"/></g><g transform="translate(70.068 23.833)"><path class="c" d="M50.138,15.159v.477c0,.159,0,.159-.159.159H47.6V23.58c0,.159,0,.159-.159.159H46.8c-.159,0-.159,0-.159-.159h0V15.794H44.259c-.159,0-.159,0-.159-.159h0v-.477c0-.159,0-.159.159-.159h5.879c-.159,0-.159,0,0,.159Z" transform="translate(-44.1 -15)"/></g><g transform="translate(76.423 23.833)"><path class="c" d="M53.82,23.739l-.477-1.589H49.53l-.477,1.589a.156.156,0,0,1-.159.159H48.1v-.159l2.7-8.58A.156.156,0,0,1,50.96,15h.794c.159,0,.159,0,.159.159l2.86,8.58h0V23.9h-.794Zm-3.972-2.383h3.337L51.6,16.112h0l-1.748,5.243Z" transform="translate(-48.1 -15)"/></g><g transform="translate(87.386 23.674)"><path class="c" d="M60.084,15.694a2.389,2.389,0,0,1,.636,1.748,2.2,2.2,0,0,1-2.383,2.383h-2.7v3.813c0,.159,0,.159-.159.159h-.318c-.159,0-.159,0-.159-.159h0v-8.58c0-.159,0-.159.159-.159h3.178A2.551,2.551,0,0,1,60.084,15.694Zm-.477,3.019a2.152,2.152,0,0,0,0-2.7,1.8,1.8,0,0,0-1.271-.477H55.794v3.5h2.542c.477.318.953,0,1.271-.318Z" transform="translate(-55 -14.9)"/></g><g transform="translate(95.012 23.833)"><path class="c" d="M64.884,23.739l-2.065-3.972H60.436v3.972c0,.159,0,.159-.159.159h-.318c-.159,0-.159,0-.159-.159h0v-8.58c0-.159,0-.159.159-.159h3.178a2.389,2.389,0,0,1,1.748.636,2.631,2.631,0,0,1,.159,3.337,2.183,2.183,0,0,1-1.271.794h0l1.907,3.972h0a.156.156,0,0,1-.159.159H65.2C64.884,23.9,64.884,23.739,64.884,23.739Zm-4.449-8.1v3.5h2.542a1.633,1.633,0,0,0,1.748-1.589v-.159a1.64,1.64,0,0,0-1.748-1.748Z" transform="translate(-59.8 -15)"/></g><g transform="translate(102.48 23.991)"><path class="c" d="M65.771,23.521a1.854,1.854,0,0,1-.953-.953,2.361,2.361,0,0,1-.318-1.43V17.8a3.794,3.794,0,0,1,.318-1.43,1.854,1.854,0,0,1,.953-.953A2.613,2.613,0,0,1,67.36,15.1a5.645,5.645,0,0,1,1.589.318c.477.159.794.636,1.112.953a2.361,2.361,0,0,1,.318,1.43v3.337a3.8,3.8,0,0,1-.318,1.43,2.136,2.136,0,0,1-1.112.953,2.613,2.613,0,0,1-1.589.318A2.865,2.865,0,0,1,65.771,23.521Zm3.178-.794a2.276,2.276,0,0,0,.636-1.589V17.8a2.305,2.305,0,0,0-4.608-.159v3.5a2.211,2.211,0,0,0,2.383,2.224,3.688,3.688,0,0,0,1.589-.636Z" transform="translate(-64.5 -15.1)"/></g><g transform="translate(109.789 23.762)"><path class="c" d="M74.979,15.026h0V15.5c0,.159,0,.159-.159.159H72.278v8.1c0,.159,0,.159-.159.159H71.8c-.159,0-.159,0-.159-.159h0v-8.1H69.259c-.159,0-.159,0-.159-.159h0v-.477h5.879C74.82,14.867,74.82,15.026,74.979,15.026Z" transform="translate(-69.1 -14.956)"/></g><g transform="translate(117.415 23.674)"><path class="c" d="M79.62,15.536H74.694v3.5h3.337c.159,0,.159,0,.159.159h0v.318c0,.159,0,.159-.159.159H74.694v3.5h4.767c.159,0,.159,0,.159.159h0v.318c0,.159,0,.159-.159.159h-5.4c-.159,0-.159,0-.159-.159h0v-8.58c0-.159,0-.159.159-.159h5.4c.159,0,.159,0,.159.159h0v.477Z" transform="translate(-73.9 -14.9)"/></g><g transform="translate(125.2 23.634)"><path class="c" d="M80.071,23.653a1.432,1.432,0,0,1-.953-.953,2.361,2.361,0,0,1-.318-1.43V17.616a4.639,4.639,0,0,1,.318-1.43,2.7,2.7,0,0,1,.953-.953,3.365,3.365,0,0,1,3.019,0,1.432,1.432,0,0,1,.953.953,2.361,2.361,0,0,1,.318,1.43v.159h-.636a2.04,2.04,0,0,0-.636-1.589,2.416,2.416,0,0,0-3.178,0,2.04,2.04,0,0,0-.636,1.589v3.654a2.225,2.225,0,1,0,4.449,0c0-.159,0-.159.159-.159h.477a4.639,4.639,0,0,1-.318,1.43,2.7,2.7,0,0,1-.953.953,3.365,3.365,0,0,1-3.019,0Z" transform="translate(-78.8 -14.875)"/></g><g transform="translate(132.191 23.674)"><path class="c" d="M89.079,15.059h0v.477c0,.159,0,.159-.159.159H86.378v8.1c0,.159,0,.159-.159.159H85.9c-.159,0-.159,0-.159-.159h0v-8.1H83.359c-.159,0-.159,0-.159-.159h0V14.9h.159l5.72.159Z" transform="translate(-83.2 -14.9)"/></g><path class="c" d="M91.854,15.42a1.915,1.915,0,0,1,.794.794,2.946,2.946,0,0,1,.318,1.112,3.74,3.74,0,0,1-.318,1.271,1.915,1.915,0,0,1-.794.794,1.712,1.712,0,0,1-1.271.318,3.739,3.739,0,0,1-1.271-.318,1.915,1.915,0,0,1-.794-.794,2.993,2.993,0,0,1-.318-1.271,2.3,2.3,0,0,1,.318-1.112,2.543,2.543,0,0,1,3.337-.794Zm-.318,3.654c.318-.159.477-.477.636-.636a2.258,2.258,0,0,0,.318-.953,1.748,1.748,0,0,0-.953-1.589,2.026,2.026,0,0,0-1.907,0c-.318.159-.477.477-.636.636a2.258,2.258,0,0,0-.318.953,1.932,1.932,0,0,0,1.907,1.907,1.343,1.343,0,0,0,.953-.318Zm-.477-1.589h0l.318.794h0a.156.156,0,0,1-.159.159H91.06c-.159,0-.159,0-.159-.159l-.318-.794h-.159v.636a.156.156,0,0,1-.159.159h0a.156.156,0,0,1-.159-.159h0V16.214a.156.156,0,0,1,.159-.159H90.9a.562.562,0,0,1,.636.636c-.159.477-.318.794-.477.794Zm-.636-.794v.477h.318c.159,0,.159,0,.159-.159l.159-.159c0-.159,0-.159-.159-.318l-.159-.159-.318.318Z" transform="translate(51.935 8.889)"/><path class="c" d="M34.13,27.7,32.7,25.154c-3.337-5.72-6.514-11.281-9.851-17A1.432,1.432,0,0,0,21.9,7.2h-.477a1.915,1.915,0,0,0-.794.794c-2.7,4.608-5.4,9.374-8.1,13.982l-2.065,3.5c-.318.636-.794,1.271-1.112,1.907a1.357,1.357,0,0,0,0,1.112.811.811,0,0,0,.794.636H33.177a.874.874,0,0,0,.794-.477.156.156,0,0,1,.159-.159V27.7Zm-.953.477c0,.159-.159.159-.477.159H10.3c-.159,0-.318,0-.318-.159v-.318c.477-.794.953-1.748,1.43-2.542,3.178-5.561,6.514-11.122,9.692-16.842V8.312c.159-.159.159-.318.318-.318h0c.159,0,.159.159.318.318v.159L32.859,27.7c.477.159.477.318.318.477Z" transform="translate(5.432 4.24)"/></svg>