
<svg xmlns="http://www.w3.org/2000/svg" width="41" height="41" viewBox="0 0 41 41"><defs><style>.a,.d{fill:none;}.a{stroke:#fff;}.b{fill:#fff;}.c{stroke:none;}</style></defs><g transform="translate(-0.102)"><g class="a" transform="translate(0.102)"><circle class="c" cx="20.5" cy="20.5" r="20.5"/><circle class="d" cx="20.5" cy="20.5" r="20"/></g><g transform="translate(12.222 12.222)"><g transform="translate(0 0)"><rect class="b" width="3.684" height="11.065" transform="translate(0.211 5.327)"/><path class="b" d="M161.756,130.867a3.968,3.968,0,0,0-3.07-1.267,4.5,4.5,0,0,0-1.279.172,2.93,2.93,0,0,0-.97.485,4.749,4.749,0,0,0-.63.579,4.622,4.622,0,0,0-.434.591v-1.572H151.7l.012.536q.012.534.012,3.305t-.023,7.224h3.673v-6.172a2.692,2.692,0,0,1,.121-.9,2.379,2.379,0,0,1,.708-.954,1.8,1.8,0,0,1,1.177-.387,1.588,1.588,0,0,1,1.412.665,3.234,3.234,0,0,1,.454,1.838v5.918h3.673v-6.34A5.323,5.323,0,0,0,161.756,130.867Z" transform="translate(-145.766 -124.531)"/><path class="b" d="M2.077,0a2.106,2.106,0,0,0-1.5.54A1.8,1.8,0,0,0,0,1.909,1.829,1.829,0,0,0,.559,3.27a2.021,2.021,0,0,0,1.475.548h.023A2.11,2.11,0,0,0,3.571,3.27a1.762,1.762,0,0,0,.563-1.361A1.859,1.859,0,0,0,3.563.54,2.048,2.048,0,0,0,2.077,0Z" transform="translate(0 0)"/></g></g></g></svg>