
<svg xmlns="http://www.w3.org/2000/svg" width="24.081" height="24.116" viewBox="0 0 24.081 24.116"><defs><style>.a{fill:#fff;}</style></defs><g transform="translate(0.011 0.006)"><g transform="translate(-0.011 -0.006)"><path class="a" d="M19.03,40.944a2.372,2.372,0,0,0-1.72-.789,2.453,2.453,0,0,0-1.741.784l-1.608,1.6c-.132-.071-.265-.137-.392-.2-.183-.092-.356-.178-.5-.27a17.481,17.481,0,0,1-4.189-3.817A10.313,10.313,0,0,1,7.5,36.083c.417-.382.8-.779,1.181-1.16.143-.143.285-.29.428-.433a2.335,2.335,0,0,0,0-3.522l-1.39-1.39c-.158-.158-.321-.321-.473-.484-.305-.316-.626-.641-.957-.947A2.409,2.409,0,0,0,4.585,27.4a2.493,2.493,0,0,0-1.731.748l-.01.01L1.114,29.9a3.724,3.724,0,0,0-1.1,2.367,8.923,8.923,0,0,0,.651,3.777,21.915,21.915,0,0,0,3.894,6.495,23.952,23.952,0,0,0,7.976,6.245,12.427,12.427,0,0,0,4.479,1.323c.107.005.219.01.321.01a3.835,3.835,0,0,0,2.937-1.262c.005-.01.015-.015.02-.025a11.572,11.572,0,0,1,.891-.921c.219-.209.443-.428.662-.657a2.539,2.539,0,0,0,.769-1.761,2.446,2.446,0,0,0-.784-1.746Zm1.822,5.36c-.005,0-.005.005,0,0-.2.214-.4.407-.621.621a13.383,13.383,0,0,0-.982,1.018,2.454,2.454,0,0,1-1.914.809c-.076,0-.158,0-.234-.005a11.039,11.039,0,0,1-3.97-1.191,22.609,22.609,0,0,1-7.513-5.884,20.664,20.664,0,0,1-3.665-6.1,7.267,7.267,0,0,1-.57-3.186,2.336,2.336,0,0,1,.7-1.512l1.736-1.736a1.157,1.157,0,0,1,.774-.361,1.089,1.089,0,0,1,.743.356l.015.015c.31.29.606.59.916.911.158.163.321.326.484.494l1.39,1.39a.971.971,0,0,1,0,1.578c-.148.148-.29.3-.438.438-.428.438-.835.845-1.278,1.242-.01.01-.02.015-.025.025a1.038,1.038,0,0,0-.265,1.155l.015.046A11.156,11.156,0,0,0,7.8,39.107l.005.005a18.681,18.681,0,0,0,4.52,4.113,6.951,6.951,0,0,0,.626.341c.183.092.356.178.5.27.02.01.041.025.061.036a1.1,1.1,0,0,0,.5.127,1.088,1.088,0,0,0,.774-.351l1.741-1.741a1.151,1.151,0,0,1,.769-.382,1.037,1.037,0,0,1,.733.372l.01.01,2.8,2.8A1.006,1.006,0,0,1,20.852,46.3Z" transform="translate(0.011 -26.005)"/><path class="a" d="M245.153,87.282a6.551,6.551,0,0,1,5.334,5.334.683.683,0,0,0,.677.57.909.909,0,0,0,.117-.01.688.688,0,0,0,.565-.794,7.921,7.921,0,0,0-6.454-6.454.691.691,0,0,0-.794.56A.68.68,0,0,0,245.153,87.282Z" transform="translate(-232.138 -81.546)"/><path class="a" d="M259.845,10.632A13.042,13.042,0,0,0,249.217,0a.686.686,0,1,0-.224,1.354,11.65,11.65,0,0,1,9.5,9.5.683.683,0,0,0,.677.57.909.909,0,0,0,.117-.01A.674.674,0,0,0,259.845,10.632Z" transform="translate(-235.775 0.006)"/></g></g></svg>