
<svg xmlns="http://www.w3.org/2000/svg" width="963.226" height="397.1" viewBox="0 0 963.226 397.1"><defs><style>.a,.b{fill:#f2f2f2;}.a{opacity:0.899;}.c{fill:#b1d7f8;}.d{fill:#98c7f0;}.e{fill:#e0f0ff;}.f,.g{fill:#b9deff;}.g{stroke:#e0f0ff;stroke-width:2px;}.h{fill:#dce9ea;}.i{fill:#fff;}.j{fill:#e3e6e8;}.k{fill:#b1b9c7;}.l{fill:#313032;}.m{fill:#585858;}.n,.y{fill:bisque;}.o{fill:#1c77c6;}.p{fill:#ffe4c3;}.q{fill:none;}.r{fill:#f0ecec;}.s{fill:#0e4e86;}.t{fill:#40373b;}.u{fill:#0a5fa8;}.v{fill:#3278b4;}.w{fill:#399af0;}.x{fill:#ed9e75;}.y{opacity:0.92;}.z{fill:#807974;opacity:0.25;}.aa{fill:#5e4218;}.ab{fill:#dbdbd4;}.ac{fill:#a8d4fa;}.ad{fill:#b1e5eb;fill-rule:evenodd;}.ae{fill:#414042;}.af{fill:#0b3253;}.ag{fill:#062946;}.ah{fill:#e3f2ff;}.ai{fill:#ffefdb;}.aj{fill:#74b9f7;}.ak{fill:#cadff2;}.al{fill:#639ed1;opacity:0.296;}.am{fill:#eee;}</style></defs><g transform="translate(-205 -325.9)"><ellipse class="a" cx="159.5" cy="19.5" rx="159.5" ry="19.5" transform="translate(540 644)"/><ellipse class="b" cx="155" cy="4.5" rx="155" ry="4.5" transform="translate(205 714)"/><ellipse class="b" cx="137" cy="4.5" rx="137" ry="4.5" transform="translate(890 710)"/><g transform="translate(556.518 360.669)"><g transform="translate(0 53.923)"><path class="c" d="M415.4,216.166V447.911q34.182,8.185,68.341,16.348V205.768a153.906,153.906,0,0,0-68.341,10.4Z" transform="translate(-415.4 -202.262)"/><path class="c" d="M483.741,216.166V447.912Q449.559,456.1,415.4,464.259V205.768a153.905,153.905,0,0,1,68.341,10.4Z" transform="translate(-181.789 -205.33)"/><path class="d" d="M771.068,441.17,707.2,465.691V207.2q31.934,14.474,63.868,28.971Z" transform="translate(-638.859 -203.694)"/><path class="d" d="M707.2,441.17l63.867,24.521V207.2q-31.934,14.474-63.867,28.971Z" transform="translate(-537.456 -206.762)"/><path class="e" d="M509.2,478.9a104.9,104.9,0,0,1-51.5-10.4V259.545a152.633,152.633,0,0,1,23.772-4.45,155.969,155.969,0,0,1,27.73-.492Z" transform="translate(-447.793 -239.692)"/><path class="e" d="M457.7,478.9a104.9,104.9,0,0,0,51.5-10.4V259.545a152.634,152.634,0,0,0-23.772-4.45,155.975,155.975,0,0,0-27.73-.492Z" transform="translate(-217.156 -242.76)"/><g transform="translate(52.11 40.453)"><path class="f" d="M643.872,368.9c0,2.342-1.335,4.356-3,4.5-1.639.164-2.974-1.616-2.974-3.935s1.335-4.333,2.974-4.5S643.872,366.558,643.872,368.9Z" transform="translate(-637.9 -364.955)"/><path class="f" d="M643.872,433.6c0,2.342-1.335,4.356-3,4.5-1.639.164-2.974-1.616-2.974-3.935s1.335-4.333,2.974-4.5S643.872,431.258,643.872,433.6Z" transform="translate(-637.9 -414.502)"/><path class="f" d="M643.872,503.1c0,2.342-1.335,4.356-3,4.5-1.639.164-2.974-1.616-2.974-3.935s1.335-4.333,2.974-4.5S643.872,500.758,643.872,503.1Z" transform="translate(-637.9 -467.725)"/><path class="f" d="M643.872,572.6c0,2.342-1.335,4.356-3,4.5-1.639.164-2.974-1.616-2.974-3.935s1.335-4.333,2.974-4.5S643.872,570.258,643.872,572.6Z" transform="translate(-637.9 -520.947)"/><path class="f" d="M643.872,637.3c0,2.342-1.335,4.356-3,4.5-1.639.164-2.974-1.616-2.974-3.935s1.335-4.333,2.974-4.5S643.872,634.958,643.872,637.3Z" transform="translate(-637.9 -570.494)"/><path class="f" d="M643.872,707.6c0,2.342-1.335,4.356-3,4.5-1.639.164-2.974-1.616-2.974-3.934s1.335-4.333,2.974-4.5S643.872,705.258,643.872,707.6Z" transform="translate(-637.9 -624.33)"/><path class="f" d="M643.872,773.1c0,2.342-1.335,4.356-3,4.5-1.639.164-2.974-1.616-2.974-3.935s1.335-4.333,2.974-4.5S643.872,770.758,643.872,773.1Z" transform="translate(-637.9 -674.489)"/><path class="f" d="M643.872,841c0,2.342-1.335,4.356-3,4.5-1.639.164-2.974-1.616-2.974-3.935s1.335-4.333,2.974-4.5S643.872,838.658,643.872,841Z" transform="translate(-637.9 -726.487)"/><path class="f" d="M643.872,908.9c0,2.342-1.335,4.356-3,4.5-1.639.164-2.974-1.616-2.974-3.935s1.335-4.333,2.974-4.5S643.872,906.558,643.872,908.9Z" transform="translate(-637.9 -778.484)"/><path class="f" d="M643.872,976.8c0,2.342-1.335,4.356-3,4.5-1.639.164-2.974-1.616-2.974-3.935s1.335-4.333,2.974-4.5S643.872,974.458,643.872,976.8Z" transform="translate(-637.9 -830.482)"/><path class="f" d="M643.872,1044.7c0,2.342-1.335,4.356-3,4.5-1.639.164-2.974-1.616-2.974-3.935s1.335-4.333,2.974-4.5S643.872,1042.358,643.872,1044.7Z" transform="translate(-637.9 -882.479)"/></g><g transform="translate(243.87 37.385)"><path class="f" d="M637.9,368.9c0,2.342,1.335,4.356,3,4.5,1.639.164,2.974-1.616,2.974-3.935s-1.335-4.333-2.974-4.5S637.9,366.558,637.9,368.9Z" transform="translate(-637.9 -364.955)"/><path class="f" d="M637.9,433.6c0,2.342,1.335,4.356,3,4.5,1.639.164,2.974-1.616,2.974-3.935s-1.335-4.333-2.974-4.5S637.9,431.258,637.9,433.6Z" transform="translate(-637.9 -414.502)"/><path class="f" d="M637.9,503.1c0,2.342,1.335,4.356,3,4.5,1.639.164,2.974-1.616,2.974-3.935s-1.335-4.333-2.974-4.5S637.9,500.758,637.9,503.1Z" transform="translate(-637.9 -467.725)"/><path class="f" d="M637.9,572.6c0,2.342,1.335,4.356,3,4.5,1.639.164,2.974-1.616,2.974-3.935s-1.335-4.333-2.974-4.5S637.9,570.258,637.9,572.6Z" transform="translate(-637.9 -520.947)"/><path class="f" d="M637.9,637.3c0,2.342,1.335,4.356,3,4.5,1.639.164,2.974-1.616,2.974-3.935s-1.335-4.333-2.974-4.5S637.9,634.958,637.9,637.3Z" transform="translate(-637.9 -570.494)"/><path class="f" d="M637.9,707.6c0,2.342,1.335,4.356,3,4.5,1.639.164,2.974-1.616,2.974-3.934s-1.335-4.333-2.974-4.5S637.9,705.258,637.9,707.6Z" transform="translate(-637.9 -624.33)"/><path class="f" d="M637.9,773.1c0,2.342,1.335,4.356,3,4.5,1.639.164,2.974-1.616,2.974-3.935s-1.335-4.333-2.974-4.5S637.9,770.758,637.9,773.1Z" transform="translate(-637.9 -674.489)"/><path class="f" d="M637.9,841c0,2.342,1.335,4.356,3,4.5,1.639.164,2.974-1.616,2.974-3.935s-1.335-4.333-2.974-4.5S637.9,838.658,637.9,841Z" transform="translate(-637.9 -726.487)"/><path class="f" d="M637.9,908.9c0,2.342,1.335,4.356,3,4.5,1.639.164,2.974-1.616,2.974-3.935s-1.335-4.333-2.974-4.5S637.9,906.558,637.9,908.9Z" transform="translate(-637.9 -778.484)"/><path class="f" d="M637.9,976.8c0,2.342,1.335,4.356,3,4.5,1.639.164,2.974-1.616,2.974-3.935s-1.335-4.333-2.974-4.5S637.9,974.458,637.9,976.8Z" transform="translate(-637.9 -830.482)"/><path class="f" d="M637.9,1044.7c0,2.342,1.335,4.356,3,4.5,1.639.164,2.974-1.616,2.974-3.935s-1.335-4.333-2.974-4.5S637.9,1042.358,637.9,1044.7Z" transform="translate(-637.9 -882.479)"/></g><g transform="translate(13.092 42.43)"><path class="f" d="M507.953,378.67l-36.653,3.4v-5.082l36.653-3.583Z" transform="translate(-471.3 -373.4)"/><path class="f" d="M507.953,445.77,471.3,448.6v-5.082l36.653-3.021Z" transform="translate(-471.3 -424.785)"/><path class="f" d="M507.953,512.869,471.3,515.141v-5.082l36.653-2.459Z" transform="translate(-471.3 -476.17)"/><path class="f" d="M507.953,579.97l-36.653,1.71V576.6l36.653-1.9Z" transform="translate(-471.3 -527.555)"/><path class="f" d="M507.953,647.07,471.3,648.217v-5.082l36.653-1.335Z" transform="translate(-471.3 -578.94)"/><path class="f" d="M507.953,714.17l-36.653.585v-5.082l36.653-.773Z" transform="translate(-471.3 -630.324)"/><path class="f" d="M507.953,781.27l-36.653.023v-5.082L507.953,776Z" transform="translate(-471.3 -681.709)"/><path class="f" d="M509.077,847.783,471.3,847.2v-5.6l37.777.351Z" transform="translate(-471.3 -731.945)"/><path class="f" d="M509.077,911.921,471.3,910.8v-4.5l37.777.937Z" transform="translate(-471.3 -781.492)"/><path class="f" d="M509.077,977.745l-37.777-1.71V971l37.777,1.5Z" transform="translate(-471.3 -831.039)"/><path class="f" d="M509.077,1042.984l-37.777-2.272V1035.7l37.777,2.084Z" transform="translate(-471.3 -880.586)"/></g><g transform="translate(251.083 39.363)"><path class="f" d="M471.3,378.67l36.653,3.4v-5.082L471.3,373.4Z" transform="translate(-470.176 -373.4)"/><path class="f" d="M471.3,445.77l36.653,2.834v-5.082L471.3,440.5Z" transform="translate(-470.176 -424.785)"/><path class="f" d="M471.3,512.869l36.653,2.272v-5.082L471.3,507.6Z" transform="translate(-470.176 -476.17)"/><path class="f" d="M471.3,579.97l36.653,1.71V576.6L471.3,574.7Z" transform="translate(-470.176 -527.555)"/><path class="f" d="M471.3,647.07l36.653,1.147v-5.082L471.3,641.8Z" transform="translate(-470.176 -578.94)"/><path class="f" d="M471.3,714.17l36.653.585v-5.082L471.3,708.9Z" transform="translate(-470.176 -630.324)"/><path class="f" d="M471.3,781.27l36.653.023v-5.082L471.3,776Z" transform="translate(-470.176 -681.709)"/><path class="f" d="M471.3,847.783l37.777-.586v-5.6l-37.777.351Z" transform="translate(-471.3 -731.945)"/><path class="f" d="M471.3,911.921l37.777-1.124v-4.5l-37.777.937Z" transform="translate(-471.3 -781.492)"/><path class="f" d="M471.3,977.745l37.777-1.71V971L471.3,972.5Z" transform="translate(-471.3 -831.039)"/><path class="f" d="M471.3,1042.984l37.777-2.272V1035.7l-37.777,2.084Z" transform="translate(-471.3 -880.586)"/></g></g><g transform="translate(85.65 0)"><g transform="translate(0 0)"><path class="c" d="M0,.27S33.931-7.691,66.983-7.691,132.208.27,132.208.27V305.255H0Z" transform="translate(0 7.691)"/><path class="e" d="M1010.693,324.507a512.584,512.584,0,0,1-59.183,3.219,524.983,524.983,0,0,1-56.209-3.219V45.8c17.1-2.068,38.039-8.212,59.258-8.212,17.238,0,35.033,5.651,56.111,8.212Q1010.7,185.164,1010.693,324.507Z" transform="translate(-887.876 -24.453)"/></g><g transform="translate(16.066 62.587)"><rect class="g" width="84.033" height="8.399" rx="4.2" transform="translate(0 1.218)"/><path class="g" d="M5.323,0A5.323,5.323,0,1,1,0,5.323,5.323,5.323,0,0,1,5.323,0Z" transform="translate(88.295)"/><g transform="translate(0 20.227)"><rect class="g" width="84.033" height="8.399" rx="4.2" transform="translate(0 1.218)"/><circle class="g" cx="5.323" cy="5.323" r="5.323" transform="translate(88.295)"/></g><g transform="translate(0 42.584)"><rect class="g" width="84.033" height="8.399" rx="4.2" transform="translate(0 1.218)"/><circle class="g" cx="5.323" cy="5.323" r="5.323" transform="translate(88.295)"/></g><g transform="translate(0 62.811)"><rect class="g" width="84.033" height="8.399" rx="4.2" transform="translate(0 1.218)"/><circle class="g" cx="5.323" cy="5.323" r="5.323" transform="translate(88.295)"/></g><g transform="translate(0 85.168)"><rect class="g" width="84.033" height="8.399" rx="4.2" transform="translate(0 1.218)"/><circle class="g" cx="5.323" cy="5.323" r="5.323" transform="translate(88.295)"/></g><g transform="translate(0 105.395)"><rect class="g" width="84.033" height="8.399" rx="4.2" transform="translate(0 1.218)"/><circle class="g" cx="5.323" cy="5.323" r="5.323" transform="translate(88.295)"/></g><g transform="translate(0 127.752)"><rect class="g" width="84.033" height="8.399" rx="4.2" transform="translate(0 1.218)"/><circle class="g" cx="5.323" cy="5.323" r="5.323" transform="translate(88.295)"/></g><g transform="translate(0 147.979)"><rect class="g" width="84.033" height="8.399" rx="4.2" transform="translate(0 1.218)"/><circle class="g" cx="5.323" cy="5.323" r="5.323" transform="translate(88.295)"/></g><g transform="translate(0 170.335)"><rect class="g" width="84.033" height="8.399" rx="4.2" transform="translate(0 1.218)"/><circle class="g" cx="5.323" cy="5.323" r="5.323" transform="translate(88.295)"/></g><g transform="translate(0 190.563)"><rect class="g" width="84.033" height="8.399" rx="4.2" transform="translate(0 1.218)"/><circle class="g" cx="5.323" cy="5.323" r="5.323" transform="translate(88.295)"/></g></g></g></g><g transform="translate(908.16 362.555)"><rect class="h" width="8.657" height="184.834" transform="translate(15.555 349.861) rotate(180)"/><g transform="translate(22.442 0)"><path class="h" d="M154.92,157.165h24.024c1.3,0,1.948-.433,1.948-1.515h0c0-1.3-.433-1.731-1.515-1.948l-24.241-1.082a8.311,8.311,0,0,1-6.06-2.381,8.1,8.1,0,0,1-2.164-7.792l14.5-58a2.079,2.079,0,0,1,1.948-1.515V78.6a6.243,6.243,0,0,0-6.06,4.762l-14.5,58a12.715,12.715,0,0,0,3.679,12.337A11.436,11.436,0,0,0,154.92,157.165Z" transform="translate(-142.428 2.563)"/><g transform="translate(19.436)"><path class="h" d="M159.4,41.2l4.545,137c-5.627.216-11.038-30.3-12.337-68.177C150.524,72.15,153.987,41.2,159.4,41.2Z" transform="translate(-151.409 -40.984)"/><path class="i" d="M160.078,41.1a1.94,1.94,0,0,1,1.948,1.948l.649,16.882,3.247,99.343.649,16.882a1.94,1.94,0,0,1-1.948,1.948l-4.978.216-4.545-137Z" transform="translate(-147.111 -41.1)"/></g></g><g transform="translate(124.047 122.934)"><g transform="translate(3.304)"><g transform="translate(19.046 133.972)"><rect class="j" width="4.978" height="46.317" transform="translate(48.048 10.822)"/><path class="k" d="M217.3,159.8l22.293.866-7.359,8.008v3.247h-4.978v-2.814Z" transform="translate(-179.208 -159.8)"/><path class="l" d="M242.074,193.522V182.7h8.874v10.822l39.174,10.389v1.3h0v8.224h-.866l-1.3-5.627L248.135,201.1l-.433,6.493h0l-.649,4.978h-1.3l-.649-5.627h.216l-.433-5.844-39.824,6.709-1.3,5.627H202.9v-5.411h0V203.91Z" transform="translate(-195.974 -133.137)"/><path d="M239.3,202.809a7.156,7.156,0,1,0,7.142-6.709A6.848,6.848,0,0,0,239.3,202.809Z" transform="translate(-153.592 -117.535)"/><path class="m" d="M240.6,201.3a4.353,4.353,0,1,0,4.329-3.9A3.877,3.877,0,0,0,240.6,201.3Z" transform="translate(-152.079 -116.03)"/><path d="M219.8,202.809a7.156,7.156,0,1,0,7.142-6.709A6.848,6.848,0,0,0,219.8,202.809Z" transform="translate(-176.297 -117.535)"/><path class="m" d="M221.1,201.3a4.353,4.353,0,1,0,4.329-3.9A3.877,3.877,0,0,0,221.1,201.3Z" transform="translate(-174.783 -116.03)"/><path d="M199.7,202.809a7.156,7.156,0,1,0,7.142-6.709A6.848,6.848,0,0,0,199.7,202.809Z" transform="translate(-199.7 -117.535)"/><path class="m" d="M201,201.3a4.353,4.353,0,1,0,4.329-3.9A3.992,3.992,0,0,0,201,201.3Z" transform="translate(-198.186 -116.03)"/></g><path class="l" d="M249.536,182.958h0c-.866,0-4.112-3.9-6.493-6.926a8.6,8.6,0,0,1-1.082-6.926l10.822-40.04,4.545-22.726c1.948-5.627,4.112-8.441,5.411-8.441h0c1.3.216,1.948,1.948,1.731,3.9l-12.12,77.916C251.916,181.66,250.618,183.175,249.536,182.958Z" transform="translate(-131.796 -97.9)"/><path class="k" d="M302.58,191.675a8.221,8.221,0,0,1-8.224,8.224H190.9l2.814,2.6,98.694,3.246a16.442,16.442,0,0,0,16.449-16.449l7.359-67.094h-1.948Z" transform="translate(-190.9 -69.607)"/></g><path class="l" d="M198.737,153.266a40.064,40.064,0,0,1,7.575-.866h1.731c9.74.866,28.353,1.3,35.5,1.731,2.164,0,4.329.216,6.277.216l11.038.216,7.792-.649c1.3,0,2.6-.216,3.679-.216l4.762-.649c.433,0,.649,0,.866-.216.649-.216,2.164-.216,2.6-.433h10.389c3.9,0,6.493,5.844,6.493,9.956s-3.247,2.164-6.926,2.164H195.924c-3.9,0-5.627,0-6.493-2.164v-1.515C188.782,156.3,193.76,154.348,198.737,153.266Z" transform="translate(-189.374 -34.444)"/></g><g transform="translate(31.254 22.218)"><path class="n" d="M180.351,215.2c.216-.866.649-2.381,1.082-4.545,0-.433.216-1.082,0-1.515l9.739-15.583-8.008-6.06-10.389,16.665c-1.515.433-5.411,1.3-8.224,1.731l-.649.216a51.983,51.983,0,0,1-6.926,1.082c-3.03.433-6.06,1.082-6.277,1.082h0l29.219,8.441A2.522,2.522,0,0,1,180.351,215.2Z" transform="translate(-141.61 107.141)"/><path class="o" d="M226.3,152.125l.433,1.731c3.246,3.463,1.731,6.493-1.731,9.74l-49.347,88.738L161.8,244.109l52.161-94.582C217.856,146.281,223.051,148.662,226.3,152.125Z" transform="translate(-128.686 61.137)"/><path class="o" d="M196.922,146.348l83.543-1.948c.649,0,.866,2.381.866,2.814v15.15c0,.216.216.433.433.649-1.515.216-3.247.433-5.627.649l-3.679.216-7.792.649-11.038-.216-6.277-.216c-7.142-.216-25.756-.649-35.5-1.515h-1.732a62.4,62.4,0,0,0-7.575.649h-4.112c-4.762,0-12.337-3.9-12.337-8.441h0C186.1,149.811,192.16,146.348,196.922,146.348Z" transform="translate(-100.392 56.959)"/><g transform="translate(94.582 128.105)"><path class="p" d="M216.133,117.544l-.216-5.627L199.9,111.7v5.844Z" transform="translate(-178.906 -109.221)"/><path class="p" d="M201.859,118.228l-5.194-2.814c-2.814-2.164,0-1.948.433-3.247h0c.216-.866.649-1.948,3.246-1.515l8.874,3.247c2.164.866,1.515,1.082.649,3.463h0C209,119.527,204.672,119.96,201.859,118.228Z" transform="translate(-184.111 -110.554)"/><path class="p" d="M204.7,114.5l-12.553,1.515a2.192,2.192,0,0,1-1.948-1.3h0a2.169,2.169,0,0,1,2.164-2.164L204.7,110.6a2.169,2.169,0,0,1,2.164,2.164h0C207.082,113.846,206,114.5,204.7,114.5Z" transform="translate(-190.2 -110.501)"/></g><path class="o" d="M234.9,174.424h0a17.654,17.654,0,0,1-13.2-20.778l2.381-8.224L226.03,134.6l33.98,7.792-4.329,19.046C253.734,170.528,244.427,176.372,234.9,174.424Z" transform="translate(-59.376 45.548)"/><rect class="n" width="10.389" height="26.621" transform="matrix(0.997, 0.071, -0.071, 0.997, 205.473, 52.977)"/><path class="n" d="M229.426,91.65c-.866,12.553,9.956,15.367,19.479,16.233,9.523.649,18.83-6.493,19.046-23.158,0-1.731,2.814-19.479,2.6-21.211L232.023,60.7C231.591,62.431,229.643,89.919,229.426,91.65Z" transform="translate(-50.003 -40.497)"/><path class="o" d="M239.333,82.309l1.515.216,2.814-7.142,3.03.433,8.874,15.15,1.3.433,3.9-28.786L238.9,59.8Z" transform="translate(-38.915 -41.544)"/><path class="i" d="M239,139.2" transform="translate(-38.799 50.904)"/><path class="q" d="M245.6,121.69l2.6-9.09a71.666,71.666,0,0,1-2.6,9.09Z" transform="translate(-31.114 19.933)"/><path class="f" d="M222.315,197.628c-.649-1.732.433-4.545,0-3.679L237.9,156.722c5.844-24.457,11.471-59.3,22.942-67.744,4.112-3.03,8.225-3.9,12.553-1.731l.216.433s12.986,14.5,1.948,55.84l-2.6,9.09c-8.008,24.89-9.09,38.092-10.605,43.936-1.515,5.627-3.463,4.545-3.463,4.545l-1.082,3.03-34.2-5.411Z" transform="translate(-58.474 -10.987)"/><path class="r" d="M254.283,88.779,254.5,85.1l-13.2.649-2.6,6.277C238.916,92.026,246.492,87.264,254.283,88.779Z" transform="translate(-39.148 -12.087)"/><path class="s" d="M257.329,143.611,222.7,141.23V138.2l35.279,2.164Z" transform="translate(-57.777 49.74)"/><path class="q" d="M220.577,153.816c-1.948,0-4.112,0-6.277-.216Z" transform="translate(-67.558 67.67)"/><path class="q" d="M229.679,153.4c-1.082,0-2.381.216-3.679.216Z" transform="translate(-53.935 67.438)"/><path class="t" d="M193.015,155.679a12.312,12.312,0,0,1,5.411-1.3L194.746,152l-2.6.866-.649,1.3Z" transform="translate(-94.105 65.807)"/><g transform="translate(0 308.926)"><path class="u" d="M146.5,199.511l.649-1.3h0l.433-2.164,1.948-1.731,9.523,1.3,17.964-1.515.433,3.247,11.038,2.6c.216,0,.433.433.433.649l-1.948,9.307-11.9-3.463-.216,1.3Z" transform="translate(-146.5 -194.1)"/><path class="v" d="M146.5,197.4l.649-1.3,39.824,11.471-.433,1.3Z" transform="translate(-146.5 -191.771)"/><path class="u" d="M160.826,204.572l-6.926-5.844.433-3.463,12.986-.866,1.515,2.6,11.038,2.164c.216,0,.433.433.433.649l-1.948,9.523Z" transform="translate(-137.884 -193.751)"/></g><path class="w" d="M253.174,93.127l4.762-5.627-4.112,2.164-.649,2.6c-5.844,3.246-13.992,32.779-20.268,55.721-4.329,15.583-9.994,27.1-10.643,30.779l6.9-5.829c.433-1.731,5.612-10.33,7.993-19.2,1.082-4.112,2.164-9.956,2.6-11.9C244.084,123.212,250.577,98.105,253.174,93.127Z" transform="translate(-55.57 -9.292)"/><path class="f" d="M271.213,90.249a5.739,5.739,0,0,0-8.008,2.164l-40.257,42.854a6.037,6.037,0,0,0,2.164,8.224c2.814,1.731,5.844.866,8.008-2.164l40.257-42.854A6.037,6.037,0,0,0,271.213,90.249Z" transform="translate(-58.459 -7.063)"/><path class="f" d="M248.287,110.116l-1.3-.216-41.122,2.814h-.649L205,120.938l41.772-.433c3.463.216,6.277-1.515,6.709-4.762C253.914,112.714,251.533,110.766,248.287,110.116Z" transform="translate(-78.386 16.789)"/><g transform="translate(15.8 302.433)"><path class="n" d="M188.3,212.743a46.156,46.156,0,0,0-.216-4.762,4.013,4.013,0,0,0-.433-1.515l4.978-11.687-9.523-3.679L177.7,204.086c-1.515.866-4.978,2.6-7.359,3.9l-.433.216a57.186,57.186,0,0,1-6.277,3.03c-2.814,1.3-5.627,2.814-5.627,2.814h30.3C188.3,213.609,188.3,212.96,188.3,212.743Z" transform="translate(-148.91 -191.1)"/><g transform="translate(0 11.255)"><path class="u" d="M153.8,209.719l.433-1.3h0l-.216-2.164,1.515-2.164,9.307-1.515L181.72,196.3l1.3,3.03,11.255-.649c.433,0,.649.216.649.433l.649,9.307H183.235l.216,1.3Z" transform="translate(-153.8 -196.3)"/><path class="v" d="M153.8,203.2l.433-1.3h41.122l.216,1.3Z" transform="translate(-153.8 -189.78)"/><path class="u" d="M169.474,208.187l-8.225-3.679-.649-3.463,12.12-4.545,2.164,2.164,11.255-.866c.216,0,.649.216.649.433l.649,9.74Z" transform="translate(-145.883 -196.067)"/><path class="x" d="M164.105,201.9Z" transform="translate(-146.141 -196.053)"/></g></g><path class="o" d="M222.941,150.194l.216,1.731c2.814,3.679,1.082,6.709-2.6,9.523l-37.876,92.2L168.4,247.156l40.257-99.343C213.2,145,220.128,146.3,222.941,150.194Z" transform="translate(-121.001 59.173)"/><path class="y" d="M238.3,83.642l1.732-22.293L232.02,60.7c-.433,1.731-2.381,29.219-2.6,30.95-.649,10.172,6.277,14.068,14.068,15.367C237.431,96.628,238.3,83.642,238.3,83.642Z" transform="translate(-49.999 -40.497)"/><path class="o" d="M268.876,60.747s-2.164-9.74-11.687-8.008c0,0-2.814-2.6-8.008-.649-6.709,2.381-11.687,5.194-18.4,0,0,0-10.389,13.635.649,19.479,9.523,4.978,13.2,3.03,22.293,2.6,0,0,14.717.216,19.263,16.016,1.082.433,1.948-6.06,2.814-9.956C275.369,80.443,282.944,63.561,268.876,60.747Z" transform="translate(-53.524 -51.365)"/><path class="z" d="M249.019,96.938c-9.523-.649-20.561-3.679-19.479-16.233,0-.433.216-1.948.216-4.329,16.449,6.493,20.778-6.277,20.778-6.277l1.515.216s-1.515,9.956,1.515,19.046c1.3,3.679.649,5.844-.433,7.142A14.021,14.021,0,0,1,249.019,96.938Z" transform="translate(-49.9 -29.552)"/><path class="n" d="M229.516,75.233V74.8h4.329a1.515,1.515,0,0,1,0,3.03H229.3A8.918,8.918,0,0,0,229.516,75.233Z" transform="translate(-50.093 -24.079)"/><path class="aa" d="M229.4,67.348l24.457,1.082,6.709,1.948V68.43l-6.709-2.164L229.4,65.4Z" transform="translate(-49.976 -35.024)"/><path class="aa" d="M229.233,77.77h.433a.465.465,0,0,0,.433-.433v-11.9a.465.465,0,0,0-.433-.433h-.433a.465.465,0,0,0-.433.433v11.9A.465.465,0,0,0,229.233,77.77Z" transform="translate(-50.675 -35.49)"/></g><path class="ab" d="M218.988,116.4a1.022,1.022,0,0,1-1.082,1.082H180.463A3.419,3.419,0,0,1,177,114.015v-.433a1.022,1.022,0,0,1,1.082-1.082l40.04,1.948a1.022,1.022,0,0,1,1.082,1.082v.866Z" transform="translate(-79.734 42.034)"/><g transform="translate(68.697 133.319)"><path class="ac" d="M175.906,106.8H172.6v1.78h3.306a1.094,1.094,0,0,1,1.017,1.017v7.375a1.094,1.094,0,0,1-1.017,1.017H172.6v1.78h3.306a2.822,2.822,0,0,0,2.8-2.8V109.6A3.228,3.228,0,0,0,175.906,106.8Z" transform="translate(-150.222 -100.951)"/><path class="ac" d="M185.161,104.5H164.817a1.094,1.094,0,0,0-1.017,1.017V128.15a2.548,2.548,0,0,0,2.543,2.543h17.292a2.548,2.548,0,0,0,2.543-2.543V105.517C185.924,105.009,185.67,104.5,185.161,104.5Z" transform="translate(-163.8 -104.5)"/></g><g transform="translate(77.097 119.332)"><path class="ad" d="M168.621,111.461c-1.78-5.34,2.8-6.1-1.017-12.461C169.638,104.849,164.806,106.375,168.621,111.461Z" transform="translate(-167.103 -99)"/><path class="ad" d="M169.342,109.809c-1.272-4.069,2.289-4.577-.763-9.409C170.1,104.977,166.29,105.995,169.342,109.809Z" transform="translate(-165.536 -96.84)"/></g><rect class="h" width="8.657" height="184.834" transform="translate(189.863 349.861) rotate(180)"/><rect class="ae" width="194.357" height="5.844" transform="translate(194.357 165.501) rotate(180)"/></g><g transform="translate(214.033 413.787)"><g transform="translate(0)"><g transform="translate(0 0)"><g transform="translate(0 0)"><g transform="translate(27.262 113.633)"><path class="af" d="M92.929,454.4l5.1-5.1h70.356l-5.1,5.1a2.076,2.076,0,0,1-1.429.663H91.5A2.453,2.453,0,0,0,92.929,454.4Z" transform="translate(-76.126 -349.455)"/><g transform="translate(2.415)"><path class="ag" d="M83.467,353.394h62.857c3.51-3.979,5.789-10.153,6.245-16.99.593-9.235-.046-21.377-1.869-36.071-2.37-18.826-4.786-29.744-8.113-36.428-3.464-6.939-7.658-9.03-13.31-10.255-.091,0-.182-.051-.273-.051H66.1a.523.523,0,0,1,.273.051c5.652,1.173,9.846,3.316,13.31,10.255,3.327,6.684,5.743,17.551,8.113,36.428,1.823,14.694,2.461,26.836,1.869,36.071C89.3,343.241,87.022,349.466,83.467,353.394Z" transform="translate(-66.1 -253.6)"/></g><g transform="translate(0 0)"><path class="af" d="M63.782,253.651c-1.224,0-2.245,1.275-2.4,3.01-.153,1.888.765,3.622,2.092,3.878,5.408,1.02,8.826,2.551,11.735,7.653,3.163,5.714,5.663,16.02,8.163,33.52,2.449,17.449,2.449,28.163,2.041,34.03-.357,4.847-2.143,9.235-4.949,12.041l-5.1,5.1a4.5,4.5,0,0,0-.561,4.8,2.235,2.235,0,0,0,1.99,1.428,1.962,1.962,0,0,0,1.429-.663l5.1-5.1c3.929-3.979,6.479-10.153,6.99-16.99.663-9.235-.051-21.377-2.092-36.071-2.653-18.826-5.357-29.744-9.081-36.428-3.877-6.939-8.571-9.03-14.9-10.255A.754.754,0,0,1,63.782,253.651Z" transform="translate(-61.367 -253.6)"/></g><path class="af" d="M109.457,451.028a.187.187,0,0,0,.153-.051c.051,0,.1-.051.153-.051a2.782,2.782,0,0,0,.867-.561,6.175,6.175,0,0,1,3.98-2.041l52.142-3.724h.357c2.908,0,5.561,2.5,6.633,6.275,0,.1.051.153.1.255H109.1A.55.55,0,0,1,109.457,451.028Z" transform="translate(-84.747 -347.153)"/><g transform="translate(7.125 96.05)"><path class="af" d="M78.543,535.348c1.5,0,2.842-.714,3.158-1.735l22.971-78.468a7.243,7.243,0,0,1,6.394-5.2l80.519-3.724a7.129,7.129,0,0,1,3.71.918,7.2,7.2,0,0,1,3.552,5.561l7.815,80.611c.079,1.173,1.658,2.092,3.394,1.99s3.079-1.122,3-2.3l-5.573-57.487-1.12-11.557-1.121-11.568a11.17,11.17,0,0,0-5.763-8.52,15.105,15.105,0,0,0-8.368-1.99L110.593,445.6c-5.92.255-10.815,3.724-12.236,8.673L75.386,532.8c-.316,1.173.789,2.3,2.526,2.551Z" transform="translate(-75.332 -441.86)"/></g></g><g transform="translate(92.966 67.557)"><path class="f" d="M140.893,232.03l-10.2-53.979c-.926-3.471-2.452-7.21-1.211-9.47a3.094,3.094,0,0,1,2-1.354c4.439-1.173,8.245,2.688,9.419,7.127l9.739,48.516,2.154,9.16c.714,2.7,4.36,6.4,7.166,6.4l25.451,6.167c.714,0,11.408-.714,11.408,0h0c0,.714.714,2.68,0,2.68l-35.765,1.109C150.74,248.332,143.547,241.979,140.893,232.03Z" transform="translate(-129.012 -167.014)"/></g><g transform="translate(49.278 204.142)"><path class="af" d="M164.917,431H164.3l-52.142,3.724a10.014,10.014,0,0,0-6.684,3.469,4.486,4.486,0,0,0-.459,4.847,2.253,2.253,0,0,0,1.939,1.378,1.948,1.948,0,0,0,1.48-.714,6.175,6.175,0,0,1,3.98-2.041l52.142-3.724h.357c2.908,0,5.561,2.5,6.633,6.275.408,1.327,1.276,2.143,2.245,2.143a2.079,2.079,0,0,0,.918-.255c1.224-.714,1.837-2.755,1.327-4.49C174.2,435.133,169.764,431,164.917,431Z" transform="translate(-104.52 -431)"/><path class="af" d="M231.828,446.355H300.96a2.08,2.08,0,0,0,.918-.255c1.224-.714,1.837-2.755,1.327-4.49-1.888-6.377-6.326-10.51-11.173-10.51H222.9c4.847,0,9.286,4.133,11.173,10.51.51,1.735-.051,3.775-1.327,4.49A2.079,2.079,0,0,1,231.828,446.355Z" transform="translate(-187.367 -431.049)"/></g><g transform="translate(120.678 73.582)"><path class="ah" d="M488.572,175.967h-69.03c-2.908.255-4.643,2.908-5.306,5.765L402.2,245.3l-2.3-.867,12.041-63.57c.663-2.857,2.347-5.51,5.306-5.765h69.081c1.071.1,1.224.255,3.367,1.071A2.908,2.908,0,0,0,488.572,175.967Z" transform="translate(-345.462 -175.1)"/><path class="ah" d="M352.124,321.7l.1.051a10.638,10.638,0,0,0,3.367,1.071h65.1v.051a.806.806,0,0,1-.816.816H299.267a.894.894,0,0,1-.867-.867V321.7h53.724Z" transform="translate(-295.747 -246.905)"/><path class="ah" d="M347.485,247.311a7.473,7.473,0,0,1,.1-2.143l2.3.867,12.041-63.57c.663-2.908,2.4-5.51,5.306-5.765H436.31a2.665,2.665,0,0,1,1.071.2c2.092,1.071,2.4,3.214,2.092,5.561l-12.041,63.57c-.663,2.857-2.347,5.51-5.306,5.765H353.046a12.961,12.961,0,0,1-3.367-1.071l-.1-.051H294.067a.894.894,0,0,1-.867-.867v-2.194a.349.349,0,0,1,.357-.357C312.689,247.311,328.761,247.311,347.485,247.311Z" transform="translate(-293.2 -175.884)"/></g><g transform="translate(93.59 183.221)"><g transform="translate(83.312 92.96)"><path class="n" d="M442.761,595.72c.255-.051,1.429-.561,1.429-3.265,0-2.4-1.633-3.112-3.929-3.776-.357-.1-.663-.2-.969-.306a30.965,30.965,0,0,1-11.071-7.3c-1.173-1.173-2.194-2.347-3.163-3.469-2.755-3.163-4.745-5.408-7.857-5.408-5.765,0-8.52,6.122-9.643,9.8l-.2.612c-.918,2.908-3.01,9.643-1.224,12.143a2.54,2.54,0,0,0,2.245.969h34.387Z" transform="translate(-404.394 -572.2)"/><path class="u" d="M403.623,593.2a34.584,34.584,0,0,1,1.837-7.143l.2-.561a10.636,10.636,0,0,1,.714-1.633,2.542,2.542,0,0,1,1.071-1.02c-.867,1.429-1.735,5.459,1.276,5.459,2.245,0,4.337-3.571,6.071-3.571a1.2,1.2,0,0,1,.816.255c0-4.847,3.265-6.786,6.224-6.786,1.429,0,2.4.051,3.01,1.275a21.286,21.286,0,0,0,3.01,4.694,28.252,28.252,0,0,0,10.051,6.071c.255.1.561.153.867.255,1.786.51,4.745,1.327,5.1,4.592.408,3.622-.561,7.092-2.041,7.092h-37.3C403.01,602.128,403.47,594.985,403.623,593.2Z" transform="translate(-403.419 -575.139)"/><path class="o" d="M443.859,617.2c-.255,2.3-1.02,4.031-2.092,4.031h-37.3c-.765,0-1.02-1.939-1.071-4.031Z" transform="translate(-403.4 -594.241)"/><path class="o" d="M430.594,591.416a.918.918,0,0,0,.765-.357,10.269,10.269,0,0,1,6.888-3.776,5.43,5.43,0,0,1,2.347.306c.1-.816-.51-1.99-2.449-1.99a10.684,10.684,0,0,0-8.316,4.49.791.791,0,0,0,.2,1.173A1.162,1.162,0,0,0,430.594,591.416Z" transform="translate(-416.258 -578.763)"/><path class="o" d="M438.81,596.786a1.085,1.085,0,0,0,.765-.357,10.03,10.03,0,0,1,7.551-3.98c.153-.663-.612-1.582-2.347-1.378a10.459,10.459,0,0,0-6.735,4.439.8.8,0,0,0,.255,1.173A1.811,1.811,0,0,0,438.81,596.786Z" transform="translate(-420.29 -581.43)"/><path class="o" d="M447.683,601.455a.9.9,0,0,0,.765-.408,10.071,10.071,0,0,1,6.48-4.031c.051-.51-.765-1.582-2.959-.918a9.359,9.359,0,0,0-5.1,4.082.834.834,0,0,0,.255,1.173A2.63,2.63,0,0,0,447.683,601.455Z" transform="translate(-424.622 -583.802)"/><path class="o" d="M456.446,605.6a.9.9,0,0,0,.765-.408c1.939-2.857,5.1-4.337,6.837-4.286,0-.459-1.071-1.48-2.806-1.02-3.061.714-4.337,2.551-5.561,4.439a.848.848,0,0,0,.306,1.173A1.019,1.019,0,0,0,456.446,605.6Z" transform="translate(-428.946 -585.705)"/></g><path class="o" d="M299.749,486.753a1.352,1.352,0,0,1-1.166-1.48V419c0-3.418-2.212-6.224-4.906-6.224H233.955c-4.464,0-19.569-5.347-19.569-11.01s-2.06-12.083,2.4-12.083l76.886,2.583c11.582,0,21.033,11.99,21.033,26.683v66.274a1.352,1.352,0,0,1-1.166,1.48H299.749Z" transform="translate(-213.911 -389.681)"/></g><g transform="translate(62.136 163.221)"><path class="o" d="M356.708,578.824a7.7,7.7,0,0,1-15.408,0V562.6h15.357v16.224Z" transform="translate(-258.218 -454.538)"/><g transform="translate(0 0)"><path class="n" d="M362.835,595.72a3.419,3.419,0,0,0,3.418-3.418c0-1.684-1.429-2.653-3.061-3.775a14.091,14.091,0,0,1-2.347-1.888,39.062,39.062,0,0,1-5.153-7.6c-.867-1.531-3.98-6.582-8.928-6.837-5.357.255-7.449,6.224-8.265,9.694l-.153.612c-.714,3.112-2.194,9.643-.2,12.143a2.974,2.974,0,0,0,2.449,1.02h22.245Z" transform="translate(-256.182 -459.24)"/><path class="u" d="M362.749,590.4a10.493,10.493,0,0,1-2.041-1.48,45.583,45.583,0,0,1-4.694-6.377c-.408-.714-.306-4.439-4.745-4.439-4.745,0-6.122,3.571-6.888,6.786a.812.812,0,0,0-.51-.255c-1.173,0-2.245,3.418-3.98,3.571-1.684.2-2.194-1.888-2.092-3.622.051-.51-.459-.51-.561-.051-.255,1.02-.408,1.48-.408,1.48-1.633,6.479-1.735,11.428-.408,14.694a2.3,2.3,0,0,0,2.3,1.378H363.31c2.6,0,3.01-4.847,3.01-7.245C366.32,592.641,364.432,591.467,362.749,590.4Z" transform="translate(-255.381 -462.129)"/><path class="o" d="M14.427,39.824h0c-9.307-2.164-17.633-.565-13.2-20.778l2.381-8.224L5.553,0l33.98,7.792L35.2,26.838C33.257,35.928,23.95,41.772,14.427,39.824Z" transform="translate(0 7.543) rotate(-11)"/><path class="o" d="M354.825,591.244a1.028,1.028,0,0,1-.561-.153.787.787,0,0,1-.153-1.173,10.51,10.51,0,0,1,10.153-4.133c1.582.2,1.99,1.531,1.735,1.99-1.275-.867-6.786-1.275-10.459,3.163A.856.856,0,0,1,354.825,591.244Z" transform="translate(-264.396 -465.835)"/><path class="o" d="M358.194,596.284a1.028,1.028,0,0,1-.561-.153.791.791,0,0,1-.2-1.173,10.745,10.745,0,0,1,9.592-4.388c1.99.153,2.347,1.48,2.194,1.837-1.939-.714-7.041-.51-10.306,3.52A.974.974,0,0,1,358.194,596.284Z" transform="translate(-266.031 -468.222)"/><path class="o" d="M362.532,600.821a.861.861,0,0,1-.51-.153.834.834,0,0,1-.255-1.173c2.653-3.622,5.306-4.745,8.571-4.8,2.143-.051,2.551,1.122,2.5,1.582a10.086,10.086,0,0,0-9.49,4.184A1.087,1.087,0,0,1,362.532,600.821Z" transform="translate(-268.174 -470.259)"/><path class="o" d="M368.31,604.842a.984.984,0,0,1-.51-.153.8.8,0,0,1-.255-1.173c2.3-3.214,4.643-4.439,7.4-4.745,2.449-.255,3.163,1.173,2.959,1.48-2.041-.612-6.173.459-8.826,4.184A.9.9,0,0,1,368.31,604.842Z" transform="translate(-270.994 -472.239)"/><path class="o" d="M366.208,617.2H335.8a13.44,13.44,0,0,0,.714,2.653,2.3,2.3,0,0,0,2.3,1.378h24.642C365.085,621.231,365.851,619.241,366.208,617.2Z" transform="translate(-255.524 -481.281)"/></g><path class="o" d="M235,483.831a1.352,1.352,0,0,1-1.253-1.432v-64.13c0-3.308-2.377-6.023-5.273-6.023H164.287c-4.8,0-8.687-4.443-8.687-9.923s3.89-9.923,8.687-9.923h64.182c12.447,0,22.6,11.6,22.6,25.82v64.13a1.353,1.353,0,0,1-1.253,1.432H235Z" transform="translate(-150.033 -368.116)"/></g><path class="f" d="M0,7.907c.037.251.712,3.055,1.559,5.818L3.152,19.67l8.523,28.055c5.844,24.457,13.5,58.976,24.975,67.417,4.112,3.03,8.224,3.9,12.553,1.731l.216-.433s12.986-14.5,1.948-55.84l-2.6-9.09C40.763,26.621,37.707,14.433,36.192,8.589,34.677,2.962,34.7,3.03,34.7,3.03L33.621,0,.939,7.656Z" transform="matrix(-0.966, -0.259, 0.259, -0.966, 100.146, 188.063)"/><ellipse class="ai" cx="20.5" cy="36" rx="20.5" ry="36" transform="translate(65.967 1.213)"/><path class="f" d="M109.473,79.565s12.1,7.619,20.264,1.694-7.973,9.527-9.669,10.391-3.039,1.223-4.466,0S109.473,79.565,109.473,79.565Z" transform="translate(-34.375 -18.774)"/><path class="o" d="M38.185,8.17C35.722,8.874,18.22,5.747,6.3,0,6.3,0,3.362,3.674,0,16.418c0,0,4.3,5.591,14.113,6.451,6.1.508,8.718-2.541,11.611-.9,2.033,1.134,4.352,4.832,8.3,5.105A45.574,45.574,0,0,0,38.185,8.17Z" transform="translate(64.236 24.928) rotate(-10)"/><path class="aj" d="M236.361,78.406c.548.759,2.109.928,5.4.38a17.878,17.878,0,0,0,7.341-3.248c1.941-1.434,2.742-2.447,4.767-5.611,3.712-5.822,7.847-17.592,8.4-33.413.759-21.769-8.775-30.164-20-29.827C246.025,8.416,252.325,11.4,254.25,23.5c.087.542.2,1.406.283,2.316a56.114,56.114,0,0,1,.054,8.5c-1.055,17.213-4.05,27.591-9.914,35.606C240.327,75.916,234.885,76.3,236.361,78.406Z" transform="translate(-151.794 -3.86)"/><path class="f" d="M97.124,88.144s-7.331-.5-12.786,1.674S91.819,117.1,91.819,117.1l9.005,10.215,5.306-17.311L109.2,93.884Z" transform="translate(-33.053 -20.15)"/><g transform="translate(163.177 150.367)"><path class="ae" d="M505.4,325.6c.342,0,.65.459.65.969v4.9c0,.51-.308.969-.65.969H377.15c-.342,0-.65-.459-.65-.969v-4.9c0-.51.308-.969.65-.969Z" transform="translate(-376.5 -325.6)"/></g><g transform="translate(76.989 33.531) rotate(-10)"><path class="ai" d="M.116,1.471c-.508,1.447.7,3.245,2.7,3.949s4.066.117,4.574-1.368C7.9,2.6,6.527,1.432,4.612.532,2.383-.484.624.024.116,1.471Z" transform="translate(0)"/><path class="ai" d="M5.982,2.148a2.848,2.848,0,0,1-2.893,2.7A2.8,2.8,0,0,1,0,2.344C-.038.9,1.252.272,2.894.037,4.731-.2,6.021.7,5.982,2.148Z" transform="translate(17.708 4.327)"/></g><g transform="translate(0 150.367)"><path class="ae" d="M170.664,325.6a.94.94,0,0,1,.83.969v4.9a.94.94,0,0,1-.83.969H.83a.94.94,0,0,1-.83-.969v-4.9a.94.94,0,0,1,.83-.969Z" transform="translate(0 -325.6)"/><path class="ae" d="M128.876,325.6v6.837H.969A1,1,0,0,1,0,331.467v-4.9a1,1,0,0,1,.969-.969Z" transform="translate(0 -325.6)"/></g><path class="aj" d="M155.863,47.781c.422.548.844,1.1,1.308,1.6l1.012,1.139c.169.169.3.338.464.506l1.139,1.139.422.422c.422.38.844.8,1.308,1.181.084.084.169.127.253.211,2.7,2.278,4.229,6.305,7.435,7.824V59.763c-3.038-5.653-3.047-12.4-3.132-19.111v-.633c0-12.994,4.43-23.541,19.533-23.541,11.855,0,15.82,5.78,17.086,12.234h0a25.9,25.9,0,0,0-1.392-7.72c-.042-.084-.084-.211-.127-.3-.127-.337-.253-.633-.38-.928a.6.6,0,0,1-.084-.253,9.036,9.036,0,0,0-.422-.928h0a15.417,15.417,0,0,0-.759-1.434,5.092,5.092,0,0,1,.337.633c.422-10.378-9.872-14.386-25.4-14.386S148.1,15.93,148.1,26.688c0,15.82,6.792,19.744,6.792,19.744,0-.042,0-.042-.042-.084C155.188,46.811,155.525,47.317,155.863,47.781Z" transform="translate(-97.055 -1.966)"/><path class="f" d="M174.271,0C180.894,0,186,1.181,189.838,3.291h0c-20.377,0-28.181,15.019-28.688,29.827s4.356,35.564,8.617,35.986c4.261.38,4.715,5.78,3.069,5.78-4.894,0-14.259-4.978-17-5.78-6.2-1.772-14.723-29.869-14.259-43.327C142.461.97,169.377,0,174.271,0Z" transform="translate(-93.273 0)"/><path class="aj" d="M215.1,5.906a30.264,30.264,0,0,0-8.691-.8C195.014,6.286,180.8,12.277,179.953,36.2c-.759,22.191,11.391,38.6,14.217,41.175.422.38,1.115-.186,1.115-.186l4.194,1.08c2.15.276,1.913-1.385,1.491-2.1-2.911-4.641-13.466-23.6-12.876-41.528.338-10.378,5.147-18.816,12.361-23.119,7.889-4.725,18.436-4.683,23.541.422A17.309,17.309,0,0,0,215.1,5.906Z" transform="translate(-119.306 -2.911)"/></g><g transform="translate(96.001 68.735)"><path class="aj" d="M252,167.08a.7.7,0,0,0,.153-.2,4.806,4.806,0,0,1,1.837-1.275c.153.867.306,1.684.51,2.551a17.355,17.355,0,0,0,.357,1.735,235.39,235.39,0,0,1,4.286,37.6,2.032,2.032,0,0,0-1.122-.255,2.831,2.831,0,0,0-1.122.306,221.165,221.165,0,0,0-4.031-35.867c-.1-.612-.2-1.275-.357-1.888C252.357,168.916,252.2,168,252,167.08Z" transform="translate(-252 -165.6)"/><path class="aj" d="M262.615,247.491a2.217,2.217,0,0,1,1.275,2.041v.1a2.364,2.364,0,0,1-2.3,2.347,2.352,2.352,0,0,1-1.225-4.388,2.057,2.057,0,0,1,1.122-.306A1.934,1.934,0,0,1,262.615,247.491Z" transform="translate(-255.523 -205.604)"/></g><path class="f" d="M138.5,229.483l-7.9-51.768c-.879-3.366-2.329-6.99-1.15-9.181a2.941,2.941,0,0,1,1.9-1.313c4.216-1.138,7.831,2.606,8.946,6.91l13.472,51.2c.678,2.622,1.211,16.533,3.876,16.533l27.895-2.215c.678,0,7.869-.693,7.869,0v2.587c0,.693-5.982,3.153-6.66,3.153L151.948,249C142.159,248.951,141.024,239.129,138.5,229.483Z" transform="translate(-80.701 -97.557)"/></g></g><rect class="h" width="8.657" height="145.881" transform="translate(290.691 303.38) rotate(180)"/><rect class="h" width="8.657" height="145.881" transform="translate(13.264 303.38) rotate(180)"/><g transform="translate(104.542 138.995)"><path class="p" d="M199.9,117.544l.216-5.627,16.016-.216v5.844Z" transform="translate(-199.9 -109.221)"/><path class="p" d="M204.249,118.228l5.194-2.814c2.814-2.164,0-1.948-.433-3.247h0c-.216-.866-.649-1.948-3.246-1.515L196.89,113.9c-2.164.866-1.515,1.082-.649,3.463h0C197.107,119.527,201.435,119.96,204.249,118.228Z" transform="translate(-184.77 -110.554)"/><path class="p" d="M192.392,114.5l12.553,1.515a2.192,2.192,0,0,0,1.948-1.3h0a2.169,2.169,0,0,0-2.164-2.164L192.392,110.6a2.169,2.169,0,0,0-2.164,2.164h0C190.011,113.846,191.093,114.5,192.392,114.5Z" transform="translate(-169.667 -110.501)"/></g><rect class="aj" width="4" height="7" rx="1" transform="translate(102.967 141.213)"/><g transform="translate(212.387 98.552)"><path class="ak" d="M12.414,0A12.4,12.4,0,0,0,4.5,21.963a.828.828,0,0,1,.291.727,20.3,20.3,0,0,0-.125,2.387c0,.789,2.74,2.325,7.743,2.325,5.024,0,7.743-1.536,7.743-2.325a20.3,20.3,0,0,0-.125-2.387.807.807,0,0,1,.291-.727A12.4,12.4,0,0,0,12.414,0ZM7,17.542c-2.117,0-3.425-1.723-3.425-3.84S4.878,10.691,7,10.691s3.84.893,3.84,3.01A3.845,3.845,0,0,1,7,17.542Zm5.418,2.886c-1.308,0-2.367.208-2.367-1.1s1.059-3.633,2.367-3.633,2.367,2.325,2.367,3.633S13.722,20.427,12.414,20.427Zm5.418-2.886a3.845,3.845,0,0,1-3.84-3.84c0-2.117,1.723-3.01,3.84-3.01s3.425.893,3.425,3.01S19.97,17.542,17.832,17.542Z" transform="translate(0 0)"/></g><g transform="translate(74.131 72.657)"><path class="aj" d="M214,167.7a5.2,5.2,0,0,1,2.143.765,1.068,1.068,0,0,1,.306.2c.2.969.357,1.888.51,2.806.1.714.255,1.48.357,2.194,1.888,12.092,2.4,22.194,2.806,35.561a2.032,2.032,0,0,0-1.122-.255,2.831,2.831,0,0,0-1.122.306c-.408-13.826-.918-24.081-3.01-36.683-.1-.714-.255-1.378-.357-2.143C214.357,169.588,214.2,168.618,214,167.7Z" transform="translate(-214 -167.7)"/><path class="aj" d="M222.818,248.843a2.216,2.216,0,0,1,1.275,2.041,2.331,2.331,0,0,1-2.245,2.4,2.384,2.384,0,0,1-2.449-2.3,2.421,2.421,0,0,1,1.173-2.092,2.057,2.057,0,0,1,1.122-.306A1.747,1.747,0,0,1,222.818,248.843Z" transform="translate(-216.645 -207.313)"/></g></g><g transform="translate(665.671 325.9)"><path class="al" d="M32,10.577A44.715,44.715,0,0,0,61.079,0,44.818,44.818,0,0,0,90.157,10.577V31.209c0,18.578-12.012,34.444-29.079,41.186C44.012,65.653,32,49.787,32,31.209V10.577" transform="translate(-21.671)"/><path class="o" d="M32,10.138A44.19,44.19,0,0,0,60.408,0,44.293,44.293,0,0,0,88.816,10.138V29.912c0,17.806-11.735,33.013-28.408,39.474C43.735,62.925,32,47.718,32,29.912V10.138" transform="translate(-21.092)"/><path class="am" d="M137.156,94.469a6.313,6.313,0,1,1,12.626,0v9.469h3.156V94.469a9.469,9.469,0,0,0-18.939,0v9.469h3.156V94.469" transform="translate(-104.153 -69.218)"/><path class="f" d="M139.615,175.1H119.637A2.635,2.635,0,0,1,117,172.459V155.637A2.635,2.635,0,0,1,119.637,153h19.979a2.635,2.635,0,0,1,2.637,2.637v16.822a2.635,2.635,0,0,1-2.637,2.637" transform="translate(-90.31 -124.592)"/><circle class="o" cx="3.156" cy="3.156" r="3.156" transform="translate(35.191 36.17) rotate(-22.5)"/><rect class="o" width="3.156" height="6.313" transform="translate(37.738 37.878)"/></g></g></svg>