
<svg xmlns="http://www.w3.org/2000/svg" xmlns:xlink="http://www.w3.org/1999/xlink" width="610.667" height="581.478" viewBox="0 0 610.667 581.478"><defs><style>.a{fill:#7bc3ff;opacity:0.08;}.b{fill:#e3f2ff;}.c{fill:#fff;}.d{fill:#e6f3ff;}.e{fill:#e1f4ff;}.f{fill:#c9e2f6;}.g,.h,.i{fill:none;stroke-miterlimit:10;}.g{stroke:#e5f1fb;}.h{stroke:#c9e2f6;}.i{stroke:#e9f5ff;}.j{fill:#004d72;}.k{fill:#1477af;}.l{fill:#0984e3;}.m{fill:url(#a);}.n{fill:#fff6ea;}.o{fill:#96caff;}.p{fill:#cae8ff;}.q{fill:#d0dbe2;}</style><linearGradient id="a" x1="-1.179" y1="8.472" x2="-0.05" y2="8.472" gradientUnits="objectBoundingBox"><stop offset="0" stop-color="#012a45"/><stop offset="1" stop-color="#000f1c"/></linearGradient></defs><g transform="translate(-649.761 -1715.8)"><path class="a" d="M2512.852,1325.5c29.8,2.279,234.418,379.53,216.133,412.982s-578.041,108.038-607.891,80.528S2483.055,1323.222,2512.852,1325.5Z" transform="translate(-1469.711 390.307)"/><g transform="translate(-1265.092 1850.429)"><g transform="translate(2008.988 120.734)"><g transform="translate(161.553 134.855)"><path class="b" d="M2215.548,536.943V348.056h10.086V537.778a.081.081,0,0,1,0,.013v.012h0c-.082.864-1.773,1.512-4.163,1.512-2.75,0-5.377-.857-5.868-1.915A.748.748,0,0,1,2215.548,536.943Z" transform="translate(-2215.534 -348.055)"/><g transform="translate(2.14)"><path class="b" d="M2218.27,348.055h3.341V539.3a12.382,12.382,0,0,1-3.341-.548Z" transform="translate(-2218.27 -348.055)"/></g></g><g transform="translate(7.679 100.221)"><path class="b" d="M2018.821,492.664V303.776h10.085V493.5a.033.033,0,0,1,0,.013v.013h0c-.081.864-1.773,1.512-4.163,1.512-2.75,0-5.377-.857-5.867-1.915A.736.736,0,0,1,2018.821,492.664Z" transform="translate(-2018.806 -303.776)"/><g transform="translate(2.14)"><path class="b" d="M2021.542,303.776h3.341V495.018a12.332,12.332,0,0,1-3.341-.548Z" transform="translate(-2021.542 -303.776)"/></g></g><g transform="translate(465.183 36.139)"><path class="b" d="M2603.738,410.735V221.847h10.086V411.57a.071.071,0,0,1,0,.013v.013h0c-.082.864-1.773,1.512-4.163,1.512-2.75,0-5.377-.857-5.867-1.915A.748.748,0,0,1,2603.738,410.735Z" transform="translate(-2603.724 -221.847)"/><g transform="translate(2.139)"><path class="b" d="M2606.459,221.847h3.342V413.089a12.333,12.333,0,0,1-3.342-.548Z" transform="translate(-2606.459 -221.847)"/></g></g><g transform="translate(311.309 2.346)"><path class="b" d="M2407.011,337.813V178.643H2417.1V338.515s0,.008,0,.011v.01h0c-.082.728-1.773,1.274-4.163,1.274-2.75,0-5.376-.722-5.868-1.613A.536.536,0,0,1,2407.011,337.813Z" transform="translate(-2406.996 -178.642)"/><g transform="translate(2.14)"><path class="b" d="M2409.732,178.642h3.341V339.8a14.472,14.472,0,0,1-3.341-.461Z" transform="translate(-2409.732 -178.642)"/></g></g><path class="c" d="M2175.909,310.336l-166.921-35.972,305.346-98.721,176.51,33.034Z" transform="translate(-2008.988 -175.643)"/><g transform="translate(7.194 6.773)"><path class="c" d="M2177.912,317.473l-159.726-34.45L2323.532,184.3l169.292,26.25v5.262Z" transform="translate(-2018.186 -184.302)"/></g><path class="b" d="M2222.4,324.784v-5.251l314.911-101.67v5.262Z" transform="translate(-2055.475 -184.84)"/><path class="b" d="M2009.016,307.13v-5.251l166.9,35.955v5.251Z" transform="translate(-2008.995 -203.141)"/></g><g transform="translate(2234.401 166.791)"><path class="c" d="M2334.823,267.61l-37.645-8.668,75.633-24.415,37.682,8.706Z" transform="translate(-2297.178 -234.527)"/><path class="d" d="M2334.823,274.41v3.226l-37.645-8.668v-3.226Z" transform="translate(-2297.178 -241.327)"/><path class="d" d="M2420.978,245.657v3.226l-75.67,24.377v-3.226Z" transform="translate(-2307.663 -236.952)"/><g transform="translate(13.28 3.696)"><path class="d" d="M2401.465,248.455l-3.735-.845,5.267-1.637,3.735.846Z" transform="translate(-2332.362 -240.717)"/><path class="d" d="M2389.6,250.134l5.266-1.635,3.734.845-5.266,1.635Z" transform="translate(-2330.591 -241.267)"/><path class="d" d="M2373.347,255.182l5.267-1.635,3.736.845-5.268,1.635Z" transform="translate(-2327.05 -242.367)"/><path class="d" d="M2381.475,252.657l5.267-1.635,3.735.846-5.268,1.635Z" transform="translate(-2328.821 -241.817)"/><path class="d" d="M2395.282,247.057l-3.735-.846,5.267-1.635,3.735.845Z" transform="translate(-2331.015 -240.412)"/><path class="d" d="M2394.366,244.021l-5.267,1.635-3.737-.845,5.267-1.637Z" transform="translate(-2329.667 -240.107)"/><path class="d" d="M2339.919,262.242l3.735.845-5.267,1.637-3.735-.846Z" transform="translate(-2318.621 -244.261)"/><path class="d" d="M2340.835,265.276l5.267-1.635,3.735.846-5.267,1.635Z" transform="translate(-2319.968 -244.565)"/><path class="d" d="M2386.238,246.545l-5.267,1.637-3.736-.846,5.266-1.635Z" transform="translate(-2327.897 -240.657)"/><path class="d" d="M2333.734,260.842l3.737.846-5.268,1.635-3.736-.845Z" transform="translate(-2317.274 -243.956)"/><path class="d" d="M2357.091,260.23l5.267-1.635,3.735.845-5.267,1.635Z" transform="translate(-2323.509 -243.466)"/><path class="d" d="M2365.219,257.705l5.266-1.635,3.735.845-5.267,1.637Z" transform="translate(-2325.28 -242.916)"/><path class="d" d="M2348.964,262.753l5.266-1.635,3.735.845L2352.7,263.6Z" transform="translate(-2321.739 -244.016)"/><path class="d" d="M2375.292,251.259l5.267-1.635,3.735.845-5.267,1.635Z" transform="translate(-2327.474 -241.512)"/><path class="d" d="M2350.908,258.829l5.267-1.635,3.735.845-5.267,1.637Z" transform="translate(-2322.162 -243.161)"/><path class="d" d="M2367.164,253.782l5.267-1.635,3.735.846-5.267,1.635Z" transform="translate(-2325.703 -242.062)"/><path class="d" d="M2359.036,256.307l5.266-1.635,3.735.845-5.266,1.635Z" transform="translate(-2323.933 -242.612)"/><path class="d" d="M2392.421,247.945l-5.267,1.635-3.735-.845,5.267-1.635Z" transform="translate(-2329.244 -240.962)"/><path class="d" d="M2326.019,261.923l-3.736-.845,5.268-1.635,3.735.845Z" transform="translate(-2315.927 -243.651)"/><path class="d" d="M2378.11,249.069l-5.268,1.635-3.736-.846,5.267-1.635Z" transform="translate(-2326.126 -241.207)"/><path class="d" d="M2361.854,254.117l-5.266,1.635-3.737-.846,5.266-1.635Z" transform="translate(-2322.585 -242.307)"/><path class="d" d="M2342.781,261.354l5.266-1.635,3.735.845-5.266,1.635Z" transform="translate(-2320.392 -243.711)"/><path class="d" d="M2369.982,251.592l-5.268,1.637-3.736-.846,5.267-1.635Z" transform="translate(-2324.356 -241.757)"/><path class="d" d="M2353.726,256.64l-5.267,1.635-3.737-.845,5.267-1.637Z" transform="translate(-2320.815 -242.856)"/><path class="d" d="M2341.861,258.319l3.737.846-5.267,1.635-3.736-.846Z" transform="translate(-2319.044 -243.406)"/><path class="d" d="M2334.147,259.4l-3.736-.845,5.267-1.637,3.735.846Z" transform="translate(-2317.697 -243.101)"/><path class="d" d="M2360.413,262.516l3.737.846L2358.883,265l-3.737-.846Z" transform="translate(-2323.085 -244.32)"/><path class="d" d="M2352.285,265.041l3.737.845-5.267,1.635-3.737-.845Z" transform="translate(-2321.315 -244.87)"/><path class="d" d="M2347.894,268.41l-5.267,1.635-3.736-.846,5.266-1.635Z" transform="translate(-2319.545 -245.42)"/><path class="d" d="M2342.274,256.877l-3.735-.846,5.267-1.635,3.735.846Z" transform="translate(-2319.468 -242.551)"/><path class="d" d="M2392.925,252.42l3.736.846-5.267,1.635-3.737-.845Z" transform="translate(-2330.167 -242.121)"/><path class="d" d="M2341.709,267.01l-5.266,1.635-3.735-.845,5.266-1.635Z" transform="translate(-2318.198 -245.115)"/><path class="d" d="M2323.157,262.812l-5.266,1.635-3.734-.846,5.266-1.635Z" transform="translate(-2314.157 -244.201)"/><path class="d" d="M2335.526,265.611l-5.266,1.635-3.735-.846,5.267-1.635Z" transform="translate(-2316.851 -244.81)"/><path class="d" d="M2329.343,264.211l-5.266,1.635L2320.34,265l5.266-1.635Z" transform="translate(-2315.503 -244.506)"/><path class="d" d="M2382.914,244.258l-3.735-.846,5.267-1.635,3.736.845Z" transform="translate(-2328.321 -239.803)"/><path class="d" d="M2366.658,249.3l-3.735-.845,5.267-1.635,3.735.845Z" transform="translate(-2324.78 -240.902)"/><path class="d" d="M2374.786,246.781l-3.735-.846,5.266-1.635,3.735.846Z" transform="translate(-2326.55 -240.352)"/><path class="d" d="M2358.53,251.829l-3.736-.845,5.268-1.637,3.735.846Z" transform="translate(-2323.009 -241.452)"/><path class="d" d="M2401.052,249.9l3.737.846-5.266,1.635-3.737-.846Z" transform="translate(-2331.938 -241.572)"/><path class="d" d="M2350.4,254.352l-3.735-.845,5.266-1.635,3.735.845Z" transform="translate(-2321.239 -242.002)"/><path class="d" d="M2405.859,245.086l5.266-1.635,3.736.845-5.267,1.637Z" transform="translate(-2334.132 -240.167)"/><path class="d" d="M2409.181,247.374l3.736.846-5.268,1.635-3.736-.846Z" transform="translate(-2333.708 -241.022)"/><path class="d" d="M2417.309,244.849l3.736.846-5.267,1.635-3.736-.845Z" transform="translate(-2335.479 -240.472)"/><path class="d" d="M2393.49,242.287l5.267-1.635,3.736.846-5.266,1.635Z" transform="translate(-2331.438 -239.558)"/><path class="d" d="M2387.307,240.889l5.266-1.635,3.735.845-5.266,1.635Z" transform="translate(-2330.091 -239.253)"/><path class="d" d="M2399.676,243.688l5.266-1.635,3.735.845-5.266,1.635Z" transform="translate(-2332.786 -239.863)"/><path class="d" d="M2325.781,255.045l3.735.845-5.267,1.635-3.736-.845Zm45.2-6.836-5.267,1.636-3.735-.845,5.267-1.636Zm-2.645-1.183,5.267-1.635,3.735.845-5.266,1.636Zm-3.714,3.158-5.267,1.636-3.735-.846,5.266-1.636Zm-6.358,1.973-5.266,1.636-3.735-.845,5.267-1.635Zm-6.357,1.973-5.267,1.637-3.735-.846,5.267-1.636Zm-6.358,1.975-5.266,1.636-3.735-.845,5.265-1.635Zm-10.1.541-3.736-.846,5.266-1.635,3.737.846Zm2.621-2.82,5.266-1.636,3.737.846-5.267,1.635Zm6.357-1.974,5.266-1.636,3.737.846-5.267,1.635Zm6.357-1.974,5.267-1.635,3.736.845-5.267,1.636Zm6.358-1.974,5.267-1.636,3.737.846-5.268,1.635Zm6.358-1.973,5.266-1.636,3.737.845-5.267,1.636Zm6.356-1.973,5.267-1.637,3.736.846-5.267,1.635Zm10.1-.542,3.735.845-5.267,1.637-3.734-.846Zm4.836,1.094,3.735.846-5.267,1.635-3.734-.845Zm-2.623,2.82-5.266,1.635-3.735-.844,5.266-1.636Zm-6.357,1.974-5.267,1.636-3.735-.846,5.267-1.636Zm-6.358,1.974-5.267,1.635-3.735-.845,5.266-1.635Zm-6.357,1.973-5.267,1.636-3.735-.846,5.266-1.635Zm-6.357,1.974-5.267,1.635-3.735-.845,5.267-1.635Zm-6.359,1.973-5.266,1.636-3.734-.845,5.265-1.635Zm-6.356,1.975-5.267,1.636-3.735-.846,5.267-1.635Zm-10.1.541-3.735-.846,5.267-1.636,3.735.845Zm-4.837-1.1-3.736-.845,5.267-1.636,3.737.845Zm3.052-5.55,3.735.846-5.266,1.636-3.736-.845Zm6.358-1.973,3.735.846-5.267,1.635-3.735-.846Zm6.357-1.973,3.735.845-5.266,1.636-3.735-.845Zm6.357-1.975,3.735.846-5.267,1.636-3.736-.845Zm6.357-1.973,3.735.845-5.267,1.636-3.735-.845Zm6.358-1.974,3.735.846-5.266,1.636-3.735-.846Zm6.357-1.973,3.736.844-5.268,1.637-3.735-.846Zm10.092-1.129-5.266,1.636-3.735-.845,5.266-1.635Zm4.838,1.1-5.266,1.635-3.737-.846,5.267-1.636Zm4.836,1.093-5.267,1.636-3.735-.845,5.266-1.636Zm4.836,1.094-5.266,1.636-3.735-.846,5.266-1.636Zm-.429,2.731-3.736-.845,5.267-1.637,3.736.846Zm-6.358,1.975-3.736-.846,5.268-1.636,3.737.846Zm-6.357,1.973-3.736-.846,5.266-1.636,3.736.846Zm-6.357,1.973-3.737-.845,5.267-1.637,3.736.846Zm-19.125,5.92-3.737-.846,18.034-5.581,3.737.846Zm-6.3,1.977-3.736-.846,5.266-1.635,3.737.846ZM2343.6,261.9l-3.737-.845,5.267-1.636,3.737.845Zm-10.094,1.129,5.266-1.636,3.737.846-5.267,1.635Zm-4.836-1.094,5.266-1.635,3.735.844-5.267,1.635Zm-4.837-1.1,5.267-1.635,3.735.846-5.266,1.635Zm-4.837-1.094,5.266-1.635,3.737.845-5.267,1.635Zm-4.836-1.1,5.266-1.635,3.734.846-5.267,1.636Z" transform="translate(-2314.157 -239.253)"/></g></g><g transform="translate(2085.967 -76.429)"><g transform="translate(248.813 14.335)"><path class="e" d="M2425.525,120.519V-58.1h9.537v179.41s0,.009,0,.013v.011h0c-.076.817-1.676,1.43-3.936,1.43-2.6,0-5.085-.81-5.549-1.81A.7.7,0,0,1,2425.525,120.519Z" transform="translate(-2425.511 58.102)"/><g transform="translate(2.023)"><path class="e" d="M2428.1-58.1h3.16V122.745a11.7,11.7,0,0,1-3.16-.519Z" transform="translate(-2428.098 58.102)"/></g></g><g transform="translate(202.775)"><path class="f" d="M2366.656,30.527l0-93.17,2.31.929V31.4Z" transform="translate(-2366.652 73.427)"/><path class="f" d="M2368.963-64.691l-2.311-.956L2476.7-76.429l2.553,1.413Z" transform="translate(-2366.652 76.429)"/><path class="c" d="M2369.619,28.8V-64.313L2479.846-74.67v93.1Z" transform="translate(-2367.299 76.046)"/><path class="g" d="M2377.152,23.871V-57.576l99.668-9.059v81.2Z" transform="translate(-2368.939 74.296)"/></g><g transform="translate(26.388 83.498)"><path class="e" d="M2141.155,208.944V30.323h9.538v179.41a.054.054,0,0,1,0,.013v.011h0c-.077.817-1.677,1.43-3.937,1.43-2.6,0-5.085-.81-5.549-1.811A.7.7,0,0,1,2141.155,208.944Z" transform="translate(-2141.142 -30.323)"/></g><g transform="translate(133.259 35.443)"><path class="e" d="M2277.789,147.5V-31.116h9.538v179.41a.107.107,0,0,1,0,.013v.011h0c-.077.817-1.677,1.43-3.937,1.43-2.6,0-5.085-.81-5.549-1.811A.7.7,0,0,1,2277.789,147.5Z" transform="translate(-2277.776 31.116)"/><g transform="translate(2.023)"><path class="e" d="M2280.362-31.116h3.16V149.731a11.706,11.706,0,0,1-3.16-.519Z" transform="translate(-2280.362 31.116)"/></g></g><g transform="translate(93.593 116.687)"><g transform="translate(4.644 80.898)"><g transform="translate(0 36.981)"><path class="f" d="M2259.725,248.2,2233,243.449l61.912-19.986,26.756,4.782Z" transform="translate(-2233 -223.463)"/></g><g transform="translate(21.941)"><path class="f" d="M2263.832,185.517l-2.78-.608,26.681-8.726,2.8.626Z" transform="translate(-2261.052 -176.183)"/><path class="f" d="M2261.077,229.722V187.349l2.763.607v42.358Z" transform="translate(-2261.058 -178.615)"/><path class="f" d="M2261.077,227.464V185.6l29.458-8.614v41.861Z" transform="translate(-2261.058 -176.357)"/></g></g><path class="f" d="M2229.97,106.527l-2.4-.491,102.207-33.281,3.132.535Z" transform="translate(-2227.172 -72.755)"/><path class="f" d="M2227.063,208.452l.394-93.148,2.412.506v93.111Z" transform="translate(-2227.063 -82.023)"/><path class="c" d="M2230.65,199.8V106.691l102.926-33.252v93.1Z" transform="translate(-2227.844 -72.904)"/><path class="g" d="M2238.183,194.874V111.315l92.367-29.841v83.548Z" transform="translate(-2229.485 -74.654)"/></g><g transform="translate(0.424 154.125)"><path class="f" d="M2147.792,303.263l-26.725-4.751,48-28.629,26.755,4.782Z" transform="translate(-2110.805 -153.134)"/><g transform="translate(28.252 80.296)"><path class="f" d="M2144.067,281.825V239.532l26.695-16.255v42.352Z" transform="translate(-2144.067 -223.277)"/></g><path class="f" d="M2110.513,168.815l-2.567-.344,78.891-47.851,3.662.712Z" transform="translate(-2107.947 -120.619)"/><path class="f" d="M2108.062,274.685l-.115-92.888,2.521.341v93.111Z" transform="translate(-2107.947 -133.945)"/><path class="c" d="M2111.183,262.173V169.062l79.946-47.521v93.1Z" transform="translate(-2108.652 -120.82)"/><path class="h" d="M2118.716,255.081V174.216l69.387-42.209v81.646Z" transform="translate(-2110.292 -123.1)"/></g><g transform="translate(202.837 105)"><g transform="translate(14.812 72.452)"><g transform="translate(0 39.196)"><path class="f" d="M2407.772,215.759l-22.1-8.6,61.912-6.6,22.136,8.641Z" transform="translate(-2385.668 -200.555)"/><path class="f" d="M2407.772,217.6v2.641l-22.1-8.6v-2.641Z" transform="translate(-2385.668 -202.393)"/><path class="f" d="M2475.872,211.6v2.641l-61.943,6.564v-2.641Z" transform="translate(-2391.824 -202.961)"/></g><g transform="translate(23.473)"><path class="f" d="M2418.458,154.221l-2.78-1.254,26.681-2.524,2.8,1.276Z" transform="translate(-2415.678 -150.442)"/><path class="f" d="M2415.7,195.594V153.22l2.763,1.2v42.358Z" transform="translate(-2415.684 -151.047)"/><path class="f" d="M2419.237,196.3V153.94L2445.931,151v42.352Z" transform="translate(-2416.453 -150.563)"/></g></g><path class="f" d="M2366.73,164.554l.249-92.72,1.99.993v93.111Z" transform="translate(-2366.73 -60.867)"/><path class="f" d="M2369.05,69.781l-2-1,109.419-10.967,2.87,1.643Z" transform="translate(-2366.8 -57.813)"/><path class="c" d="M2369.619,163.334V70.223l110.227-10.357v93.1Z" transform="translate(-2367.36 -58.26)"/><path class="i" d="M2377.152,158.406V76.96L2476.82,67.9V149.1Z" transform="translate(-2369 -60.01)"/></g><g transform="translate(93 11.213)"><path class="f" d="M2229.7-28.077l-3.391-.553,102.335-33.464,3.99.78Z" transform="translate(-2226.305 62.094)"/><path class="f" d="M2226.3,73.741V-19.311l3.4.568V74.368Z" transform="translate(-2226.305 52.774)"/><path class="c" d="M2230.65,65.266V-27.845L2333.576-61.1V32Z" transform="translate(-2227.251 61.877)"/></g><path class="h" d="M2238.183,60.339V-23.221l92.367-29.84V30.486Z" transform="translate(-2135.892 71.339)"/><g transform="translate(0 49.06)"><path class="f" d="M2110.48,34.325l-2.687-.707,79.538-47.324,3.137.547Z" transform="translate(-2107.489 13.706)"/><path class="f" d="M2107.4,140.212l.3-93.414,2.641.7v93.111Z" transform="translate(-2107.405 0.526)"/><path class="c" d="M2111.183,127.638V34.527l79.946-47.521V80.1Z" transform="translate(-2108.228 13.551)"/><path class="h" d="M2118.716,120.546V39.68L2188.1-2.529V79.118Z" transform="translate(-2109.868 11.271)"/></g><g transform="translate(108.963 167.129)"><g transform="translate(0 0)"><path class="f" d="M2319.545,177.751l7.043-2.281v-16.1l-7.043,2.281Z" transform="translate(-2262.578 -142.064)"/><path class="f" d="M2305.4,179.756l7.043-2.281V152.12L2305.4,154.4Z" transform="translate(-2259.496 -140.485)"/><path class="f" d="M2291.246,185.851l7.043-2.281V163.649l-7.043,2.281Z" transform="translate(-2256.414 -142.996)"/><path class="f" d="M2277.1,186.9l7.043-2.281v-32.6L2277.1,154.3Z" transform="translate(-2253.332 -140.463)"/><path class="f" d="M2262.946,193.952l7.043-2.281V167.926l-7.043,2.281Z" transform="translate(-2250.249 -143.928)"/><path class="f" d="M2248.8,194.107l7.043-2.281V152.184l-7.043,2.281Z" transform="translate(-2247.167 -140.499)"/><path class="f" d="M2313.071,149.78l.365-.62-16.463-6.66-.174.158-10.841,9.818-10.039-8.794-13.464,9.787-11.931-12.841-.506.524,12.215,13.146,13.5-9.812,10.085,8.835,11.119-10.07Z" transform="translate(-2247.433 -137.982)"/><ellipse class="f" cx="2.364" cy="1.713" rx="2.364" ry="1.713" transform="translate(46.484 5.852) rotate(-49.599)"/><ellipse class="f" cx="2.364" cy="1.713" rx="2.364" ry="1.713" transform="translate(36.02 15.278) rotate(-49.599)"/><path class="f" d="M2284.722,143.723a1.413,1.413,0,0,0-2.013-1.36,3.024,3.024,0,0,0-2.012,2.664,1.413,1.413,0,0,0,2.012,1.36A3.024,3.024,0,0,0,2284.722,143.723Z" transform="translate(-2254.116 -138.337)"/><path class="f" d="M2267.485,156a1.413,1.413,0,0,0-2.013-1.361,3.025,3.025,0,0,0-2.012,2.664,1.413,1.413,0,0,0,2.012,1.361A3.023,3.023,0,0,0,2267.485,156Z" transform="translate(-2250.361 -141.01)"/><ellipse class="f" cx="2.364" cy="1.713" rx="2.364" ry="1.713" transform="translate(0 3.601) rotate(-49.599)"/></g><path class="f" d="M2248.63,202.251l75.617-24.49v-1.243l-75.617,24.49Z" transform="translate(-2247.131 -145.799)"/><g transform="translate(70.895 2.553)"><path class="f" d="M2337.352,142.519l6.209-2.011v.577l-6.209,2.011Z" transform="translate(-2337.352 -140.508)"/><path class="f" d="M2337.352,144.276l6.209-2.011v.577l-6.209,2.011Z" transform="translate(-2337.352 -140.891)"/><path class="f" d="M2337.352,146.032l6.209-2.011v.577l-6.209,2.011Z" transform="translate(-2337.352 -141.274)"/><path class="f" d="M2337.352,147.789l6.209-2.011v.577l-6.209,2.011Z" transform="translate(-2337.352 -141.656)"/><path class="f" d="M2337.352,149.545l6.209-2.011v.577l-6.209,2.011Z" transform="translate(-2337.352 -142.039)"/><path class="f" d="M2337.352,151.3l6.209-2.011v.577l-6.209,2.011Z" transform="translate(-2337.352 -142.421)"/><path class="f" d="M2337.352,153.058l6.209-2.011v.577l-6.209,2.011Z" transform="translate(-2337.352 -142.804)"/><path class="f" d="M2337.352,154.814l6.209-2.011v.577l-6.209,2.011Z" transform="translate(-2337.352 -143.187)"/></g></g><g transform="translate(105.741 37.318)"><g transform="translate(0 0)"><g transform="translate(0.275 16.413)"><g transform="translate(0 0)"><g transform="translate(0.536)"><path class="f" d="M2243.631,18.342l67.648-21.924v-.477l-67.648,21.924Z" transform="translate(-2243.631 6.933)"/><path class="f" d="M2329.737,22.47l.21-.068-.03-30.136-.21.068Z" transform="translate(-2262.381 7.734)"/><path class="f" d="M2320.183,25.566l.21-.068-.03-30.136-.21.068Z" transform="translate(-2260.3 7.059)"/><path class="f" d="M2310.629,28.663l.21-.068-.03-30.136-.21.068Z" transform="translate(-2258.219 6.385)"/><path class="f" d="M2301.075,31.759l.21-.068-.03-30.136-.21.068Z" transform="translate(-2256.137 5.71)"/><path class="f" d="M2291.52,34.856l.21-.068-.03-30.136-.21.068Z" transform="translate(-2254.056 5.036)"/><path class="f" d="M2281.966,37.952l.21-.068-.03-30.136-.21.068Z" transform="translate(-2251.975 4.362)"/><path class="f" d="M2272.411,41.049l.21-.068-.03-30.136-.21.068Z" transform="translate(-2249.893 3.687)"/><path class="f" d="M2262.857,44.145l.21-.068-.03-30.136-.21.068Z" transform="translate(-2247.812 3.012)"/><path class="f" d="M2253.3,47.241l.21-.068-.03-30.136-.21.068Z" transform="translate(-2245.731 2.338)"/><path class="f" d="M2243.749,50.338l.21-.068-.03-30.136-.21.068Z" transform="translate(-2243.65 1.663)"/></g><path class="f" d="M2255.2,8.8l2.51-.813,0,2.847-2.51.813Z" transform="translate(-2245.614 4.31)"/><path class="f" d="M2249.071,10.781l2.51-.813,0,2.847-2.51.813Z" transform="translate(-2244.28 3.878)"/><path class="f" d="M2242.946,12.766l2.509-.813,0,2.847-2.509.813Z" transform="translate(-2242.946 3.446)"/></g><g transform="translate(72.246 14.988)"><g transform="translate(5.283 4.911)"><path class="f" d="M2342.066,17.708" transform="translate(-2342.066 -17.708)"/></g><path class="f" d="M2341.275,26.132l1.046-.339,0-3.81-1.047.339Z" transform="translate(-2336.61 -13.728)"/><path class="f" d="M2339.29,27.265l1.047-.339,0-2.054-1.047.339Z" transform="translate(-2336.178 -14.357)"/><path class="f" d="M2337.3,27.567l1.047-.339,0-3.28-1.047.339Z" transform="translate(-2335.745 -14.156)"/><path class="f" d="M2335.317,27.611l1.047-.339-.005-5.433-1.047.339Z" transform="translate(-2335.312 -13.696)"/><g transform="translate(7.192 4.379)"><path class="f" d="M2344.508,19.1l5.875-1.9v-.166l-5.875,1.9Z" transform="translate(-2344.507 -17.027)"/><path class="f" d="M2344.509,20.41l5.875-1.9V18.34l-5.875,1.9Z" transform="translate(-2344.507 -17.313)"/><path class="f" d="M2344.51,21.723l5.875-1.9v-.166l-5.875,1.9Z" transform="translate(-2344.508 -17.599)"/><path class="f" d="M2344.511,23.036l5.875-1.9v-.166l-5.875,1.9Z" transform="translate(-2344.508 -17.885)"/><path class="f" d="M2344.513,24.349l5.875-1.9v-.166l-5.875,1.9Z" transform="translate(-2344.509 -18.171)"/><path class="f" d="M2344.514,25.662l5.875-1.9v-.166l-5.875,1.9Z" transform="translate(-2344.509 -18.457)"/></g><line class="f" y1="0.166" transform="translate(13.131)"/></g></g><path class="f" d="M2242.651,55.8l84.7-27.448v.834l-84.7,27.448Z" transform="translate(-2242.607 16.287)"/><path class="f" d="M2242.655,59.8l84.7-27.448v.834l-84.7,27.448Z" transform="translate(-2242.607 15.416)"/><path class="f" d="M2242.594-1.269l84.7-27.448v.834L2242.6-.435Z" transform="translate(-2242.594 28.718)"/><path class="f" d="M2305.447,47.882l35.584-11.532v.834l-35.584,11.532Z" transform="translate(-2256.286 14.544)"/></g></g><g transform="translate(215.286 25.092)"><path class="f" d="M2471.625,13.749l.7-.952-10.729-7.451-6.864,2.319-9.149-4.733-9.886,7.711L2422.682-.4l-11.137,4.954-14.583-7.618-9.15-15.968-.992.633,9.294,16.219,15.3,7.99,11-4.891L2435.583,12.1l10.033-7.827,8.926,4.618,6.786-2.294Z" transform="translate(-2383.556 38.835)"/><path class="f" d="M2439.659,14.007l7.268-4.045,8.386-1.525,8.177-2.768,9.217,4,.529-1.047-9.6-4.17-8.508,2.887-8.587,1.588-7.03,3.912-12.645-1.182-9.291,2.311-6.695-11.85L2401.007-4.3l-14.386-2.693-.306,1.116L2400.6-3.2l9.407,6.163,6.954,12.308,9.89-2.459Z" transform="translate(-2383.447 36.212)"/><ellipse class="f" cx="2.514" cy="2.287" rx="2.514" ry="2.287" transform="matrix(0.69, -0.724, 0.724, 0.69, 0, 20.086)"/><path class="f" d="M2388.711-31.043a2.143,2.143,0,0,0-2.4-2.171,2.694,2.694,0,0,0-2.4,2.625,2.144,2.144,0,0,0,2.4,2.171A2.694,2.694,0,0,0,2388.711-31.043Z" transform="translate(-2382.924 41.926)"/><ellipse class="f" cx="2.514" cy="2.287" rx="2.514" ry="2.287" transform="matrix(0.69, -0.724, 0.724, 0.69, 0, 29.8)"/><path class="f" d="M2472,.181l.626-1-9.447-5.4-17.74,1.112-.078.027L2433.55-.938l-9.769-9.4-11.473-1.429-8.427-16.675L2386.837-31l-.269,1.123,16.526,2.475,8.435,16.689,11.67,1.455,9.987,9.609,12.379-4.342,17.257-1.08Z" transform="translate(-2383.502 41.441)"/><path class="f" d="M2480.505-41.657l13.8-1.31v-1.383l-13.8,1.31Z" transform="translate(-2403.964 44.349)"/><path class="f" d="M2480.505-37.79l13.8-1.31v-1.383l-13.8,1.31Z" transform="translate(-2403.964 43.507)"/><path class="f" d="M2480.505-33.922l13.8-1.31v-1.383l-13.8,1.31Z" transform="translate(-2403.964 42.665)"/></g><g transform="translate(13.815 186.359)"><path class="f" d="M2125.246,219.449l8.88-4.741-1.8,3.475,20.357,3.063,6.8-13.137h0v0l24.762,3.728-2.006,3.872-22.1-3.325-6.8,13.137-23.021-3.464-2.035,3.928Z" transform="translate(-2125.105 -171.91)"/><path class="f" d="M2191.018,170.412l7.779-4.692V161.83l-7.779,4.692Z" transform="translate(-2139.433 -161.83)"/><path class="f" d="M2177.828,178.367l7.779-4.692v-3.891l-7.779,4.692Z" transform="translate(-2136.559 -163.562)"/><path class="f" d="M2164.637,186.322l7.779-4.692V177.74l-7.779,4.692Z" transform="translate(-2133.686 -165.295)"/><path class="f" d="M2151.447,194.278l7.779-4.692v-3.891l-7.779,4.692Z" transform="translate(-2130.813 -167.028)"/><path class="f" d="M2138.257,202.233l7.779-4.692V193.65l-7.779,4.692Z" transform="translate(-2127.94 -168.761)"/><path class="f" d="M2125.066,210.188l7.779-4.692v-3.891l-7.779,4.692Z" transform="translate(-2125.066 -170.494)"/><path class="f" d="M2191.018,176.657l7.779-4.692v-3.891l-7.779,4.692Z" transform="translate(-2139.433 -163.19)"/><path class="f" d="M2177.828,184.613l7.779-4.692V176.03l-7.779,4.692Z" transform="translate(-2136.559 -164.923)"/><path class="f" d="M2164.637,192.568l7.779-4.692v-3.891l-7.779,4.692Z" transform="translate(-2133.686 -166.656)"/><path class="f" d="M2151.447,200.523l7.779-4.692V191.94l-7.779,4.692Z" transform="translate(-2130.813 -168.389)"/><path class="f" d="M2138.257,208.478l7.779-4.692V199.9l-7.779,4.692Z" transform="translate(-2127.94 -170.121)"/><path class="f" d="M2125.066,216.433l7.779-4.692V207.85l-7.779,4.692Z" transform="translate(-2125.066 -171.854)"/><path class="f" d="M2191.018,182.9l7.779-4.692V174.32l-7.779,4.692Z" transform="translate(-2139.433 -164.55)"/><path class="f" d="M2177.828,190.858l7.779-4.692v-3.891l-7.779,4.692Z" transform="translate(-2136.559 -166.283)"/><path class="f" d="M2164.637,198.813l7.779-4.692V190.23l-7.779,4.692Z" transform="translate(-2133.686 -168.016)"/><path class="f" d="M2151.447,206.768l7.779-4.692v-3.891l-7.779,4.692Z" transform="translate(-2130.813 -169.749)"/><path class="f" d="M2138.257,214.723l7.779-4.692v-3.891l-7.779,4.692Z" transform="translate(-2127.94 -171.482)"/><path class="f" d="M2191.018,189.148l7.779-4.692v-3.891l-7.779,4.692Z" transform="translate(-2139.433 -165.911)"/><path class="f" d="M2177.828,197.1l7.779-4.692V188.52l-7.779,4.692Z" transform="translate(-2136.559 -167.644)"/><path class="f" d="M2164.637,205.058l7.779-4.692v-3.891l-7.779,4.692Z" transform="translate(-2133.686 -169.377)"/><path class="f" d="M2151.447,213.013l7.779-4.692v-3.891l-7.779,4.692Z" transform="translate(-2130.813 -171.109)"/><path class="f" d="M2191.018,195.393l7.779-4.692V186.81l-7.779,4.692Z" transform="translate(-2139.433 -167.271)"/><path class="f" d="M2177.828,203.348l7.779-4.692v-3.891l-7.779,4.692Z" transform="translate(-2136.559 -169.004)"/><path class="f" d="M2191.018,201.638l7.779-4.692v-3.891l-7.779,4.692Z" transform="translate(-2139.433 -168.632)"/></g><g transform="translate(14.627 92.555)"><path class="f" d="M2126.1,114.152l3.869-3.941V111.3l52.16-31.272V46.092l-1.092.653,1.63-4.843,1.648,2.885-1.111.664V80.462l-53.235,31.914v1.111Z" transform="translate(-2126.105 -41.902)"/><path class="f" d="M2189.852,89.012c0,.373.3.494.676.272l2.386-1.426a1.437,1.437,0,0,0,.676-1.079V73.59c0-.372-.3-.5-.676-.271l-2.386,1.426a1.438,1.438,0,0,0-.676,1.079Z" transform="translate(-2139.991 -48.721)"/><path class="f" d="M2183.9,94.139c0,.372.3.494.676.272l2.386-1.426a1.438,1.438,0,0,0,.676-1.079V84.347c0-.372-.3-.494-.676-.271l-2.386,1.426a1.438,1.438,0,0,0-.676,1.079Z" transform="translate(-2138.694 -51.064)"/><path class="f" d="M2173.379,97.393c0,.372.3.494.676.271l2.387-1.426a1.442,1.442,0,0,0,.677-1.079V76.721c0-.374-.3-.5-.677-.272l-2.387,1.426a1.442,1.442,0,0,0-.676,1.08Z" transform="translate(-2136.403 -49.403)"/><path class="f" d="M2167.424,101.8c0,.372.3.494.676.271l2.387-1.426a1.441,1.441,0,0,0,.676-1.079V84.183c0-.373-.3-.494-.676-.271l-2.387,1.426a1.44,1.44,0,0,0-.676,1.079Z" transform="translate(-2135.105 -51.028)"/><path class="f" d="M2156.907,107.1c0,.372.3.494.676.271l2.386-1.426a1.438,1.438,0,0,0,.676-1.079V85.953c0-.374-.3-.5-.676-.273l-2.386,1.426a1.438,1.438,0,0,0-.676,1.08Z" transform="translate(-2132.815 -51.414)"/><path class="f" d="M2150.952,109.064c0,.373.3.5.676.272l2.386-1.426a1.437,1.437,0,0,0,.677-1.079V82.189c0-.372-.3-.5-.677-.272l-2.386,1.427a1.438,1.438,0,0,0-.676,1.079Z" transform="translate(-2131.517 -50.594)"/><path class="f" d="M2140.435,117.261c0,.372.3.494.675.272l2.387-1.427a1.439,1.439,0,0,0,.676-1.079V97.258c0-.373-.3-.494-.676-.271l-2.387,1.426a1.438,1.438,0,0,0-.675,1.079Z" transform="translate(-2129.227 -53.877)"/><path class="f" d="M2134.479,117.162c0,.372.3.494.676.272l2.387-1.427a1.437,1.437,0,0,0,.675-1.079v-30.9c0-.373-.3-.494-.675-.272l-2.387,1.426a1.44,1.44,0,0,0-.676,1.079Z" transform="translate(-2127.929 -50.994)"/></g><g transform="translate(217.892 132.013)"><g transform="translate(0 47.387)"><path class="f" d="M2429.656,157.363l-5.189-4.429-38.488,3.653,5.19,4.429Z" transform="translate(-2385.979 -152.933)"/></g><g transform="translate(1.434 16.352)"><path class="f" d="M2387.812,145.758l5.19,4.432v-32.5l-5.19-4.432Z" transform="translate(-2387.812 -113.255)"/></g><g transform="translate(9.902 0)"><path class="f" d="M2398.639,140.4l5.189,4.432V96.782l-5.189-4.433Z" transform="translate(-2398.639 -92.349)"/></g><g transform="translate(18.371 12.626)"><path class="f" d="M2409.466,143.109l5.189,4.433V112.924l-5.189-4.432Z" transform="translate(-2409.466 -108.492)"/></g><g transform="translate(26.839 20.317)"><path class="f" d="M2420.292,144.447l5.189,4.432V122.756l-5.189-4.432Z" transform="translate(-2420.292 -118.324)"/></g><g transform="translate(35.307 8.977)"><path class="f" d="M2431.119,140.484l5.189,4.432V108.258l-5.189-4.431Z" transform="translate(-2431.119 -103.826)"/></g></g><g transform="translate(272.95 164.421)"><path class="c" d="M2456.371,137.786l20.74-1.929v-2.074l-20.74,1.929Z" transform="translate(-2456.371 -133.783)"/><path class="c" d="M2456.371,144.777l20.74-1.929v-2.074l-20.74,1.929Z" transform="translate(-2456.371 -135.306)"/><path class="c" d="M2456.371,151.768l20.74-1.929v-2.074l-20.74,1.929Z" transform="translate(-2456.371 -136.829)"/><path class="c" d="M2456.371,158.758l20.74-1.929v-2.074l-20.74,1.929Z" transform="translate(-2456.371 -138.351)"/></g></g><path class="j" d="M2495.525,369.491l-73.114,20.341,10.987,8.228,48.4,7.75c10.95.73,16.972-8.943,16.972-26.827Z" transform="translate(-90.057 -97.136)"/><g transform="translate(2264.267 62.974)"><path class="k" d="M2379.786,504.972v2.7a5.084,5.084,0,0,1-2.216,4.2l-1.962,1.34a5.084,5.084,0,0,1-4.56.6l-10.945-3.86a5.086,5.086,0,0,0-1.276-.272l-11.651-.953a5.087,5.087,0,0,1-2.66-1.018l-7.144-5.424a5.084,5.084,0,0,1-1.262-6.7h0a5.086,5.086,0,0,1,4.914-2.4l19.376,2.212a5.1,5.1,0,0,1,.905.188l14.877,4.532A5.085,5.085,0,0,1,2379.786,504.972Z" transform="translate(-2335.362 -187.045)"/><path class="k" d="M2437.077,462.294v2.7a5.084,5.084,0,0,1-2.217,4.2l-1.961,1.34a5.082,5.082,0,0,1-4.56.6l-10.945-3.859a5.05,5.05,0,0,0-1.276-.272l-11.651-.954a5.086,5.086,0,0,1-2.66-1.018l-7.144-5.424a5.085,5.085,0,0,1-1.262-6.7h0a5.085,5.085,0,0,1,4.914-2.4l19.377,2.211a5.1,5.1,0,0,1,.906.189l14.877,4.532A5.085,5.085,0,0,1,2437.077,462.294Z" transform="translate(-2347.841 -177.748)"/><path class="l" d="M2418.269,386.613l19.939-34.067c-25.677.271-58.95,10.041-63.762,15.457-9.284,10.454,3.092,107.428,3.092,107.428l9.852,2.711,9.836-64.186-.824-30.93S2406.173,384.7,2418.269,386.613Z" transform="translate(-2343.123 -156.418)"/><path class="l" d="M2504.841,339.834s-4.56,31.286-8.723,45.165l-51.187-1.966-2.579,54.343-13-2.171s-18.114-88.059-10.562-90.283C2443.2,337.735,2504.841,339.834,2504.841,339.834Z" transform="translate(-2353.134 -153.587)"/><path class="l" d="M2520.133,337.936s3.391,36.072-9.794,48.505c-10.542,9.941-37.689,8.876-52.609,8.182s-56.927-12.679-56.927-12.679,1.342-7.816,10.627-18.269C2424.2,349.3,2520.133,337.936,2520.133,337.936Z" transform="translate(-2349.617 -153.236)"/><path class="m" d="M2476.013,229.856l-32.8,4.2-3.688,11.255s43.779,6.476,55.265,4.912,7.165-55.426,7.165-55.426Z" transform="translate(-2358.052 -122.056)"/><path class="n" d="M2423.819,268.328s-6.789-5.176-8.116-5.741a20.418,20.418,0,0,0-7.386-.789c-1.988.275-2.773,2.885-2.773,2.885a12.679,12.679,0,0,0-2.623,2.189,6.757,6.757,0,0,0-.694,2.417,5.044,5.044,0,0,0-2,1.565,5.245,5.245,0,0,0-.422,2.84,5.555,5.555,0,0,0-1.126,2.332c-.2,1.235.832,4.314,2.151,4.522s3.1-1.962,3.1-1.962,6.413.981,8,1.05,6.584-.325,6.584-.325l3.41.777,3.69-11.256Z" transform="translate(-2349.148 -136.633)"/><path class="n" d="M2369.079,270.288s-4.213-7.425-5.212-8.465a20.415,20.415,0,0,0-6.483-3.625c-1.937-.527-3.683,1.565-3.683,1.565a12.629,12.629,0,0,0-3.27.985,6.764,6.764,0,0,0-1.587,1.951,5.044,5.044,0,0,0-2.457.652,5.248,5.248,0,0,0-1.5,2.447,5.558,5.558,0,0,0-1.951,1.7c-.666,1.058-.927,4.295.2,5s3.626-.585,3.626-.585,5.513,3.418,6.948,4.106,6.184,2.283,6.184,2.283l2.831,2.053,7.809-8.9Z" transform="translate(-2336.886 -135.848)"/><path class="o" d="M2438.285,198.758l-34.53,71.85-27.549-12.081-7.809,8.9s36.308,25.214,46.988,29.722,28.557-43.492,28.557-43.492Z" transform="translate(-2342.558 -122.919)"/><path class="o" d="M2516.063,299.62s-14.171,17.875-37.73,22.864c-2.186.463-7.092-1.733-12.095-4.219l-.219-.109a21.769,21.769,0,0,1-11.556-23.751l-.1-6.87-1.122-28.111-4.251-53.46,5.076-14.548s41.028-24.311,44.995-26.093,10.4,5.579,13.213,10.034c2.618,4.171,1.641,90.672,1.5,102.1a20.423,20.423,0,0,0,.123,2.5Z" transform="translate(-2360.113 -115.576)"/><g transform="translate(92.722 13.691)"><path class="n" d="M2456.316,119.3l-1.352,6.482.676,2.971-1.735,5.637,4.354,27,2.913,1.409,2.765.419,6.913-14.015,1-15.882-10.913-7.083Z" transform="translate(-2453.906 -119.302)"/><path class="n" d="M2466.618,167.553l3.676,14.756a23.649,23.649,0,0,0,9.079,1.014c7.646-.67,15.427-9.48,15.427-9.48l-1.118-15.431-22.945-2.971Z" transform="translate(-2456.675 -127.174)"/></g><path class="l" d="M2447.974,121.95s-5.113-16.784,14.274-19.826c7.321-1.148,14.763.874,21.191,3.835a28.728,28.728,0,0,1,16.318,30.668c-1.118,7.005-2.688,13.715-4.73,15.359-4.647,3.741-18.893,18.494-25.266,10.928s.226-14.817-6.495-19.935-4.059-4.358-7.1-3.218-6.481-1.044-4.182-6.083S2447.974,121.95,2447.974,121.95Z" transform="translate(-2359.76 -101.797)"/></g><g transform="translate(2346.352 280.172)"><circle class="p" cx="5.985" cy="5.985" r="5.985" transform="translate(97.712 117.17)"/><circle class="p" cx="5.985" cy="5.985" r="5.985" transform="translate(47.134 138.369)"/><circle class="p" cx="5.985" cy="5.985" r="5.985" transform="translate(0 111.732)"/><path class="b" d="M2515.883,453.952v53.429c0,2.471-4.731,4.473-10.569,4.473s-10.569-2-10.569-4.473V453.952Z" transform="translate(-2452.166 -395.705)"/><ellipse class="b" cx="10.569" cy="4.474" rx="10.569" ry="4.474" transform="translate(42.58 53.772)"/><g transform="translate(52.232)"><path class="q" d="M2507.085,440.434V379.523c.291-.015.576-.039.876-.039a15.376,15.376,0,0,1,3.705.444v60.1a15.417,15.417,0,0,1-3.705.443C2507.661,440.474,2507.376,440.449,2507.085,440.434Z" transform="translate(-2507.085 -379.484)"/></g><path class="b" d="M2566.067,524.818V526.8c0,1.189-1.375,1.86-2.687,1.738l-45.4-4.91V514.6l3.368.027,41.223,9.776Z" transform="translate(-2457.227 -408.916)"/><path class="b" d="M2441.993,521.535v1.982c0,.793.67.885,1.341.885l43.154-1.037V514.4l-6.5-.884-36.378,7.592Z" transform="translate(-2440.674 -408.68)"/><path class="b" d="M2511.375,515.9l.311,9.076-.508,20.813c-.113,2.688-.9,5.017-4.41,5.017-3.151,0-4-2.406-4.141-5.259l-.616-20.691v-9.076l4.346,5.134Z" transform="translate(-2453.748 -409.173)"/><path class="b" d="M2517.984,513.357l45.061,11.441c2.691.659,4.483-1.921,1.251-2.867L2520.939,508.9v1.448C2520.813,511.838,2519.255,513.007,2517.984,513.357Z" transform="translate(-2457.228 -407.674)"/><path class="b" d="M2486.487,513.473l-43.056,7.959c-2.2.4-1.585-2.013.122-2.379l39.733-9.788v1.219C2483.285,511.126,2484.14,512.761,2486.487,513.473Z" transform="translate(-2440.679 -407.755)"/><path class="b" d="M2502.05,515.778l1.4,27.9c.216,2.895,6.7,2.972,6.8-.183l1.139-27.6C2509.512,516.123,2504.24,516.3,2502.05,515.778Z" transform="translate(-2453.757 -409.173)"/><path class="b" d="M2506.082,379.484a16.385,16.385,0,0,0-2.44.181c1.366,18.651-1.783,23.108-3.544,24.74l-1.642,32.679c0,1.872,3.414,3.39,7.626,3.39s7.626-1.518,7.626-3.39V382.873C2513.708,381,2510.293,379.484,2506.082,379.484Z" transform="translate(-2452.974 -379.484)"/></g><g transform="translate(2330.781 181.513)"><path class="b" d="M2504.244,389.23,2511.555,369l1.46-94.918,54.2-16.934v-3.761l12.454,2.163v93.419c0,10.4-5.147,17.782-13.473,20.242Z" transform="translate(-2438.663 -253.357)"/><path class="p" d="M2486.319,279.229v91.622c0,8.815-3.538,14.271-12.773,13.012l-53.148-8.973v11.558l52.587,8.906c15.3,3.06,25.787-5.682,25.787-20.542V281.393Z" transform="translate(-2420.399 -258.987)"/><path class="p" d="M2517.186,275.747l-12.42-2.155L2567.3,253.35l12.455,2.19Z" transform="translate(-2438.777 -253.35)"/></g></g></g></svg>