
<svg xmlns="http://www.w3.org/2000/svg" width="577.674" height="462.624" viewBox="0 0 577.674 462.624"><defs><style>.a{fill:#7bc3ff;opacity:0.081;}.b{fill:#ebf6fc;}.c{fill:#fff;}.d{fill:#aeb9bd;}.e{fill:#c5c5c5;opacity:0.21;}.e,.f,.g,.h{isolation:isolate;}.f{fill:none;stroke:#4480b4;stroke-miterlimit:10;opacity:0.22;}.g{fill:#b3d5ee;}.g,.h{opacity:0.92;}.h{fill:#e7e7e7;}.i{fill:#e1f1ff;}.j{fill:#96caff;}.k{fill:#fcf4e8;}.l{fill:#eddcc8;}.m{fill:#93c8fd;}.n{fill:#c4e5f5;}.o{fill:#f1dab1;}.p{fill:#0e82e1;}.q{fill:#1b3b49;}.r{fill:#085fa6;}.s{fill:#22467f;}.t{fill:#d6eaff;}.u{fill:#e2f0ff;}.v{fill:#e8e0d6;}.w{opacity:0.25;}.x{fill:#807975;}</style></defs><g transform="translate(-105.358 -2460.887)"><path class="a" d="M2314.058,1325.5c-26.685,1.722-209.927,286.714-193.552,311.985s517.65,81.617,544.382,60.834S2340.742,1323.777,2314.058,1325.5Z" transform="matrix(0.996, 0.087, -0.087, 0.996, -1857.637, 955.714)"/><g transform="translate(-216.428 1660.255)"><g transform="translate(571.644 876.526)"><g transform="translate(6.262 201.374)"><path class="b" d="M620.744,1065.017c-2.78-.375-5.613.494-6.493,1.99l-55.325,102.052c-.726,1.464.821,2.978,3.474,3.4a9.264,9.264,0,0,0,1.4.13c2.216.056,4.222-.715,4.885-1.878l55.667-102.343c.757-1.407-.707-2.884-3.267-3.3C620.974,1065.046,620.859,1065.03,620.744,1065.017Z" transform="translate(-558.748 -1054.196)"/><path class="b" d="M816.381,1171.061l-63.225-109.04c-1.089-1.568-4.234-2.386-7.131-1.854-2.88.376-4.661,1.963-3.978,3.546.011.026.024.053.036.079L804.9,1172.5c.877,1.324,3.165,2.208,5.73,2.214a11.792,11.792,0,0,0,1.649-.088c2.8-.25,4.692-1.7,4.239-3.233A1.821,1.821,0,0,0,816.381,1171.061Z" transform="translate(-535.705 -1054.816)"/><path class="b" d="M678.83,1055.4c-2.951.015-5.363,1.3-5.491,2.915v106.012c.122,1.617,2.545,2.891,5.491,2.888,2.845.1,5.306-1.077,5.5-2.641,0-.032.007-.065.009-.1V1058.115c-.088-1.549-2.445-2.766-5.265-2.718C678.991,1055.4,678.91,1055.4,678.83,1055.4Z" transform="translate(-544.331 -1055.396)"/></g><path class="b" d="M847.724,1091.088l-294.5,2.174v-10.394l294.5-3.141Z" transform="translate(-553.181 -850.96)"/><path class="b" d="M847.724,1112.992l-294.5,2.482V899.419l294.5-22.553Z" transform="translate(-553.181 -876.483)"/><path class="c" d="M559.5,1107.824v-205.7l279.042-21.039v223.769Z" transform="translate(-552.392 -875.952)"/><path class="d" d="M847.724,878.693l-294.5,22.381Z" transform="translate(-553.181 -876.253)"/><path class="b" d="M847.512,885.442,553.186,907.82V896.406L847.7,876.526Z" transform="translate(-553.186 -876.526)"/></g><g transform="translate(632.765 919.712)"><path class="e" d="M611.906,929.219l163.861-10.1,4.179,144.12-164.078,2.592Z" transform="translate(-606.919 -914.354)"/><path class="c" d="M607.476,925.221l163.306-10.336,4.171,143.873-163.523,2.849Z" transform="translate(-607.476 -914.886)"/><path class="f" d="M615.178,933.421l145.655-8.731,3.553,122.549-145.821,3.027Z" transform="translate(-606.507 -913.652)"/><path class="g" d="M650.948,976.576l61.877-2.65a1.485,1.485,0,0,1,1.438,1.545l.033,1.124a1.534,1.534,0,0,1-1.345,1.663l-61.879,2.563a1.447,1.447,0,0,1-1.38-1.516l-.031-1.1A1.492,1.492,0,0,1,650.948,976.576Z" transform="translate(-602.169 -907.458)"/><path class="g" d="M650.533,962.3l61.867-2.98a1.476,1.476,0,0,1,1.439,1.538l.033,1.124a1.544,1.544,0,0,1-1.345,1.67l-61.87,2.892a1.437,1.437,0,0,1-1.38-1.509l-.032-1.1A1.5,1.5,0,0,1,650.533,962.3Z" transform="translate(-602.222 -909.296)"/><path class="h" d="M643.172,995.74l80.937-2.9a.922.922,0,0,1,.888.956l.019.677a.936.936,0,0,1-.83,1.017l-80.939,2.829a.89.89,0,0,1-.842-.932l-.019-.659A.9.9,0,0,1,643.172,995.74Z" transform="translate(-603.084 -905.078)"/><path class="h" d="M647.258,1002.032l71.95-2.4a.924.924,0,0,1,.886.958l.019.674a.933.933,0,0,1-.828,1.014l-71.952,2.341a.9.9,0,0,1-.844-.937l-.019-.659A.9.9,0,0,1,647.258,1002.032Z" transform="translate(-602.571 -904.224)"/><path class="h" d="M644.429,1008.607l78.9-2.443a.927.927,0,0,1,.887.96l.02.676a.93.93,0,0,1-.831,1.012l-78.9,2.377a.9.9,0,0,1-.842-.937l-.019-.658A.9.9,0,0,1,644.429,1008.607Z" transform="translate(-602.926 -903.402)"/><g transform="translate(127.771 80.464)"><path class="i" d="M723.515,1001.906s-1.084,4.236-1.583,26.626l4.7-5.734,3.85,5.493s1.731-22.5-.9-28.01S723.515,1001.906,723.515,1001.906Z" transform="translate(-720.847 -984.869)"/><path class="i" d="M733.5,997.527s3.961,8.285,4.187,15.307l.226,7.023-3.781-2.692-2.705,2.968s-3.967-19.572-1.609-22.466S733.5,997.527,733.5,997.527Z" transform="translate(-719.95 -985.102)"/><path class="j" d="M738.117,995.833c.175,5.429-3.538,9.969-8.279,10.139s-8.69-4.071-8.864-9.47,3.506-9.937,8.232-10.137S737.943,990.4,738.117,995.833Z" transform="translate(-720.969 -986.358)"/></g></g><g transform="translate(406.474 932.69)"><path class="k" d="M476.5,1068.542c-1.934-5.066-5.808-14.46-5.808-14.46h0c.048-1.437-2.027-2.175-2.715-2.181l-4.913,1.393c-1.386-.011-2.13,1.413-2.18,2.845l-.048,1.431-1.48,2.845a9.15,9.15,0,0,0-1.622,7.127l1.163,6.453a.676.676,0,0,0,.623.725h.045l.691.013a1.924,1.924,0,0,0,2.158-2.114l-1.217-5.03.62,2.16L463,1075.5c-.024.715,1.339,1.457,2.038,1.47a1.551,1.551,0,0,0,1.438-1.408h0c-.024.717,1.343,1.464,2.043,1.471s1.442-1.408,1.464-2.13h0a2.492,2.492,0,0,0,2.073.755c.7.011,1.423-.694,1.471-2.139C476.376,1072.141,477.151,1069.988,476.5,1068.542Z" transform="translate(-400.045 -910.626)"/><g transform="translate(77.256 124.065)"><g transform="translate(10.253 0.311)"><path class="k" d="M484.2,1044.334l12.455-7.444,6.959,12.511-12.527,7.4Z" transform="translate(-484.203 -1036.89)"/></g><g transform="translate(0.197)"><path class="k" d="M489.4,1040.966l.124-3.625-3.523-.727c-2.126,0-4.267.72-5.022,2.167l-5.179,7.205c-.752,1.438-.825,3.6.555,4.329l11.757,7.318,14.63-10.066Z" transform="translate(-475.271 -1036.614)"/></g><g transform="translate(12.466 1.128)"><path class="l" d="M487.808,1047.365h0c-1.419-.008-2.082-1.464-1.32-2.906l1.594-5.066a1.843,1.843,0,0,1,2.9-1.445h0c1.425,0,2.092,1.454,1.324,2.907l-1.6,5.072A3.8,3.8,0,0,1,487.808,1047.365Z" transform="translate(-486.169 -1037.616)"/></g><g transform="translate(13.493 2.18)"><path class="k" d="M488.427,1046.528h0c-.71,0-1.37-1.456-1.345-2.185l.859-4.347c.025-.725,1.47-1.447,2.186-1.445h0c.712,0,1.374,1.455,1.351,2.184l-.861,4.352C490.587,1045.813,489.139,1046.53,488.427,1046.528Z" transform="translate(-487.081 -1038.55)"/></g><g transform="translate(15.876 0.012)"><path class="k" d="M489.2,1037.346l7.159-.721-5.145,4.352Z" transform="translate(-489.198 -1036.625)"/></g><g transform="translate(9.284 10.617)"><g transform="translate(0 6.458)"><path class="k" d="M491.319,1057.213h0c-.736.719-1.474,1.437-2.87.7l-4.181-2.219a2.161,2.161,0,0,1-.608-2.9h0c.732-.717,1.464-1.435,2.86-.7l4.187,2.214A4.35,4.35,0,0,1,491.319,1057.213Z" transform="translate(-483.343 -1051.782)"/></g><g transform="translate(4.327 4.315)"><path class="k" d="M495.193,1055.313h0c-.74.72-1.478,1.44-2.881.7l-4.2-2.218a2.164,2.164,0,0,1-.611-2.906h0c.735-.719,1.471-1.44,2.87-.7l4.2,2.215A4.353,4.353,0,0,1,495.193,1055.313Z" transform="translate(-487.187 -1049.878)"/></g><g transform="translate(7.958 2.16)"><path class="k" d="M498.44,1053.4h0c-.741.722-1.483,1.442-2.889.7l-4.207-2.218a2.163,2.163,0,0,1-.612-2.91h0c.736-.721,1.475-1.442,2.878-.707l4.216,2.213C498.514,1051.222,499.182,1052.686,498.44,1053.4Z" transform="translate(-490.412 -1047.964)"/></g><g transform="translate(11.598)"><path class="k" d="M501.7,1051.487h0c-.744.724-1.487,1.447-2.9.707l-4.221-2.218a2.161,2.161,0,0,1-.615-2.913h0c.74-.724,1.479-1.447,2.887-.711l4.23,2.213C502.493,1049.305,502.468,1050.034,501.7,1051.487Z" transform="translate(-493.645 -1046.045)"/></g></g><g transform="translate(17.811 4.356)"><path class="l" d="M490.992,1040.483l11.151,8.781-11.227-6.6Z" transform="translate(-490.917 -1040.483)"/></g><g transform="translate(0 9.372)"><path class="l" d="M476.536,1044.939h0a11.95,11.95,0,0,0,1.967,4.339l13.862,8.8c-.736.717-1.474,1.436-2.87.7l-13.155-8.069C474.958,1049.97,474.352,1047.088,476.536,1044.939Z" transform="translate(-475.096 -1044.939)"/></g><g transform="translate(0.972 11.246)"><path class="l" d="M476.882,1051.938h0c-.676-.726-1.332-2.176-.606-2.889l.753-1.438c.727-.716,2.163-1.431,2.84-.7h0c.675.725,1.336,2.177.606,2.892l-.754,1.438a1.773,1.773,0,0,1-2.258,1.071A1.662,1.662,0,0,1,476.882,1051.938Z" transform="translate(-475.959 -1046.604)"/><g transform="translate(3.444 2.188)"><path class="l" d="M479.942,1053.888h0c-.675-.727-1.334-2.181-.607-2.9l.754-1.438c.731-.717,2.171-1.431,2.849-.7h0c.682.727,1.339,2.184.608,2.9l-.758,1.441a1.78,1.78,0,0,1-2.266,1.068A1.7,1.7,0,0,1,479.942,1053.888Z" transform="translate(-479.018 -1048.547)"/></g><g transform="translate(6.166 5.098)"><path class="l" d="M482.364,1056.476h0c-.682-.73-1.339-2.185-.608-2.9l.755-1.44c.732-.717,2.175-1.43,2.855-.7h0a2.828,2.828,0,0,1,1.318,2.907l-.759,1.441C485.194,1056.5,483.777,1056.49,482.364,1056.476Z" transform="translate(-481.436 -1051.132)"/></g><g transform="translate(9.626 7.3)"><path class="l" d="M485.439,1058.438h0c-.683-.731-1.342-2.19-.608-2.9l.758-1.441c.734-.717,2.182-1.431,2.864-.7h0c.685.731,1.351,2.192.611,2.907l-.76,1.442C488.278,1058.469,486.833,1059.178,485.439,1058.438Z" transform="translate(-484.509 -1053.088)"/></g><g transform="translate(0.259 0.999)"><path class="k" d="M476.853,1051.829h0a2.634,2.634,0,0,1-.629-2.172l.752-1.437a2.606,2.606,0,0,1,2.139-.708h0a2.632,2.632,0,0,1,.63,2.173l-.754,1.438C478.939,1052.563,477.531,1052.553,476.853,1051.829Z" transform="translate(-476.19 -1047.491)"/></g><g transform="translate(3.703 3.187)"><path class="k" d="M479.913,1053.776h0a2.645,2.645,0,0,1-.63-2.176l.754-1.438a2.614,2.614,0,0,1,2.145-.707h0a2.633,2.633,0,0,1,.632,2.176l-.755,1.441C482.005,1054.516,480.593,1054.5,479.913,1053.776Z" transform="translate(-479.249 -1049.434)"/></g><g transform="translate(7.158 5.381)"><path class="k" d="M482.983,1055.731h0a2.64,2.64,0,0,1-.632-2.18l.755-1.44a2.63,2.63,0,0,1,2.151-.707h0a2.832,2.832,0,0,1,1.318,2.909l-.759,1.441A2.117,2.117,0,0,1,482.983,1055.731Z" transform="translate(-482.317 -1051.383)"/></g><g transform="translate(10.597 8.307)"><path class="k" d="M486.041,1058.333h0a2.653,2.653,0,0,1-.635-2.182l.759-1.441a2.631,2.631,0,0,1,2.158-.706h0a2.642,2.642,0,0,1,.635,2.185l-.76,1.442C488.171,1058.357,486.749,1058.34,486.041,1058.333Z" transform="translate(-485.372 -1053.982)"/></g></g><g transform="translate(15.85 0.009)"><path class="l" d="M489.175,1038.068l7.159-.717.025-.729-7.159.72Z" transform="translate(-489.175 -1036.622)"/></g></g><g transform="translate(37.39 70.298)"><path class="m" d="M464.546,1063.37q-4.154-.039-6.079-4.343c-2.442-9.294-6.2-19.993-9.291-29.947-3.033-11.352-6.762-21.953-9.144-31.842a6.05,6.05,0,0,1,3.152-7.5,5.611,5.611,0,0,1,1.19-.387c3.461-1.5,6.809.563,8.061,4.1q4.644,14.886,9.244,32,4.647,16.08,9.392,30.093c1.271,3.6-.94,7.172-4.466,8.573A2.447,2.447,0,0,0,464.546,1063.37Z" transform="translate(-439.685 -988.856)"/><g transform="translate(13.429 37.181)"><path class="m" d="M463.1,1057.782c-1.385-.011-3.412-1.464-3.363-2.891l-8.015-27.851a4.259,4.259,0,0,1,2.916-5.008,3.76,3.76,0,0,1,4.661,2.56c.026.089.048.179.068.269h0l8.064,27.939a4.206,4.206,0,0,1-2.927,4.99h-.019Z" transform="translate(-451.613 -1021.881)"/></g><g transform="translate(17.079 66.437)"><g transform="translate(0 0.007)"><path class="n" d="M455.038,1055.872h0a2.99,2.99,0,0,0,3.514,2.353c.053-.01.1-.021.157-.035a2.992,2.992,0,0,0,.4-.129l10.534-3.481a3.3,3.3,0,0,0,2.364-3.886,2.984,2.984,0,0,0-.113-.408h0a3.027,3.027,0,0,0-3.581-2.347,2.985,2.985,0,0,0-.529.161l-10.52,3.509a3.339,3.339,0,0,0-2.221,4.264Z" transform="translate(-454.855 -1047.874)"/></g><g transform="translate(2.964)"><path class="c" d="M457.488,1055.185h0a3,3,0,0,0,3.527,2.354c.051-.01.1-.023.153-.035a3.166,3.166,0,0,0,.4-.129l7.742-2.794a3.3,3.3,0,0,0,2.364-3.886,2.979,2.979,0,0,0-.113-.408h0a3.012,3.012,0,0,0-3.546-2.359c-.056.011-.113.025-.169.039a3.193,3.193,0,0,0-.4.133l-7.729,2.815C458.323,1050.9,457.562,1053.041,457.488,1055.185Z" transform="translate(-457.488 -1047.868)"/></g></g></g><g transform="translate(0 8.787)"><g transform="translate(7.477 143.286)"><path class="k" d="M421.448,1218.526a7.2,7.2,0,0,1-7.111-6.776c-2.669-18.7-.465-52.281,1.851-84.623,1.706-22.606,5.635-42.917,5.291-57,5.831-.64-.061-8.323,3.911-8.6l.145-.008c4.025-.374,6.967,2.9,7.27,7.141.391,14.874-1.4,36.979-2.473,59.665-1.849,30.4-4.718,64.912-2.13,82.33a7.169,7.169,0,0,1-6.425,7.841c-.111.011-.223.02-.334.026Z" transform="translate(-413.116 -1061.492)"/></g><g transform="translate(27.601 136.834)"><path class="k" d="M441.71,1224.789c-3.831-.027-9.547-9.5-9.786-13.326-2.7-18.869,1.016-52.338,4.03-85.733,2.332-24.286,4.1-47.2,3.713-62.139a7.339,7.339,0,0,1,6.855-7.791l.137-.007c4.108-.39,7.1,2.918,7.415,7.2.433,15.743-2.006,39.559-3.7,63.941-3.174,32.18-6.183,66.3-3.613,83.168.355,4.932,7.02,14.571,2.288,14.691Z" transform="translate(-430.99 -1055.761)"/></g><g transform="translate(19.812 135.981)"><path class="o" d="M443.323,1090.99c.94-7.779-7.121-10.074-8.781-.925l-10.47-28.386,37.6-6.675-1.053,10.705Z" transform="translate(-424.072 -1055.003)"/></g><g transform="translate(11.576 54.983)"><path class="c" d="M454.7,992.044c-9.833-11.851-14.678-8.894-22.126-8-12.713.314-17.618,8.138-15.242,16.5,3.546,13.276,10.92,52.622,6.732,77.906-2.426,12.6,37.082,7.732,38.181-4.391C463.376,1061.2,464.622,1003.994,454.7,992.044Z" transform="translate(-416.757 -983.057)"/></g><g transform="translate(10.935 289.495)"><path class="k" d="M427.639,1193.071l-11.452-1.71L422,1208.652l12.289-.609Z" transform="translate(-416.187 -1191.361)"/></g><g transform="translate(0 136.695)"><g transform="translate(0 0.006)"><path class="p" d="M466.8,1123.954s-21.541,10.239-27.436,11.159c-5.992.934-32.885,1.031-32.885,1.031,3.6-47.557,13.059-44.984,14.9-75.408l42.483-5.094" transform="translate(-406.474 -1055.642)"/></g><g transform="translate(50.389)"><path class="p" d="M451.323,1056.282l-.084,22.8a3.884,3.884,0,0,0,1.943,3.6l2.02,1.47a192.77,192.77,0,0,0,3.04-28.518Z" transform="translate(-451.232 -1055.637)"/></g><g transform="translate(8.764 3.301)"><path class="p" d="M425.308,1061.229l13.541-2.66c-2.764,21.872-6.952,46.467-11.847,72.35l-12.743,2.257C416.786,1117.17,425.308,1061.229,425.308,1061.229Z" transform="translate(-414.259 -1058.569)"/></g></g><g transform="translate(34.869 54.369)"><path class="m" d="M452.74,993.523c8.539,11.981,11.2,76.365,9.381,89.217q-.145,4.289-2.294,6.392c-2.139,2.1-4.841.615-4.748-2.239,0-40.642-1.351-81.985-13.027-100.243l-4.607-4.138C441.493,983.119,446.209,984.424,452.74,993.523Z" transform="translate(-437.446 -982.512)"/></g><g transform="translate(11.122 55.987)"><path class="m" d="M431.958,983.949l-2.113,2.872c6.7,21.043,8.775,59.918,6.8,98.78-.189,5.649-5.045,9.777-9.694,8.262-5.291-1.523-9.194-4.413-8.321-10.707,4.165-25.218,1.641-69.447-1.9-82.721C414.99,992.771,419.228,984.965,431.958,983.949Z" transform="translate(-416.353 -983.949)"/></g><g transform="translate(11.106 55.984)"><path class="m" d="M423.016,991.2c1.428-2.844,4.868-5.742,7.527-5.1l1.414-2.152c-12.728,1.013-16.967,8.824-15.257,17.2,3.546,13.271,6.073,57.5,1.9,82.719a7.545,7.545,0,0,0,3.715,8.5C428.794,1058.689,421.612,993.333,423.016,991.2Z" transform="translate(-416.339 -983.946)"/></g><g transform="translate(25.133 55.016)"><path class="k" d="M428.906,988.321l.578,2.808a9.766,9.766,0,0,0,10.562,6.854h0c3.394-.063,5.556-3.654,4.993-7.192l-.632-1.4c-1.218-4.227-4.517-6.98-9.277-6.154l-4.044.1A4.634,4.634,0,0,0,428.906,988.321Z" transform="translate(-428.798 -983.086)"/></g><g transform="translate(17.923 56.708)"><path class="m" d="M429.712,988.133c-4.692.113-6.674-.549-7.318-1.238l4.751-2.224,3.355-.082Z" transform="translate(-422.394 -984.589)"/></g><g transform="translate(3.456)"><g transform="translate(16.521 42.643)"><path class="p" d="M452.434,972.1l-.215,6.417h0a3.057,3.057,0,0,1,3.311,2.78,2.707,2.707,0,0,1,.011.287,3.45,3.45,0,0,1-.013.4h0c-.072,2.139-1.493,3.6-2.864,3.635a21.345,21.345,0,0,1-11.611.991l-16.834.408,17.258-13.172Z" transform="translate(-424.219 -972.096)"/></g><g transform="translate(23.889 38.311)"><path class="k" d="M440.528,978.585l-.308,9.907-9.457.245.636-20.49Z" transform="translate(-430.763 -968.248)"/></g><g transform="translate(23.89 38.313)"><path class="k" d="M440.528,977.873l-.309,9.217h0l-4.548-5.546a8.722,8.722,0,0,1-2.218,5.709l-2.69.065.636-19.069Z" transform="translate(-430.764 -968.25)"/></g><g transform="translate(18.964 3.16)"><path class="k" d="M443.942,937.034c6.137-.289,12.729,7.246,13.887,13.616.471,6.4-1.29,17.879-2.788,21.5-1.464,2.9-5.814,10.138-9.225,10.232s-12.077-3.192-15.856-10.839c-4.413-8.3-4.036-19.577-2.579-23.159C428.146,945.528,434.459,937.481,443.942,937.034Z" transform="translate(-426.388 -937.026)"/></g><g transform="translate(0 1.134)"><path class="p" d="M443.416,935.259a8.345,8.345,0,0,1,8.645,8.035,8.2,8.2,0,0,1-.021.972,9.826,9.826,0,0,1-.128,1.258c-.9,6.437-4.522,12.972-12.664,13.285-4.053.153-1.576,26.919-7.824,32.723-2.73,1.474-9.411,1.631-15.366,1.072a6.4,6.4,0,0,1-6.512-6.293c0-.177,0-.354.012-.53a7.615,7.615,0,0,1,.167-1.41h0c.8-4.214,3.532-7.093,7.506-7.212l1.995-.062c.233-7.021,2.768-23.251,4.239-27.526C424.266,945.316,428.633,934.562,443.416,935.259Z" transform="translate(-409.544 -935.226)"/></g><g transform="translate(34.991)"><path class="p" d="M441.546,935.289c3.472-2.3,12.321-1.3,16.847,7.047,4.544,8.384-2.149,22.932-4.357,27.286,1.708-10.046,4.212-22.995-6.079-22.553C437.042,948.245,441.546,935.289,441.546,935.289Z" transform="translate(-440.625 -934.219)"/></g><g transform="translate(35.909 0.706)"><path class="p" d="M441.44,935.209c4.109-.906,8.87-.427,12.793,5.092,1.971,2.764-2.231,5.088-3.527,3.009A12.707,12.707,0,0,0,441.44,935.209Z" transform="translate(-441.44 -934.846)"/></g><g transform="translate(0.09 1.14)"><path class="p" d="M450.561,944.865a14.813,14.813,0,0,1-12.579,11.155c-7.43,1-.734,21.938-11.118,31.392-2.767,2.882-14.057,3.162-16.646,1.828a10.623,10.623,0,0,1-.5-4.878h0c.8-4.214,3.532-7.093,7.506-7.212l1.995-.062c.233-7.021,2.768-23.251,4.239-27.526.8-4.248,5.169-15,19.954-14.3l.676-.033C448.143,935.739,451.481,937.713,450.561,944.865Z" transform="translate(-409.624 -935.231)"/></g></g><g transform="translate(33.781 215.575)"><path class="k" d="M446.451,1216.761a3.967,3.967,0,0,1-3.541-1.973l-3.886-6.727c-.825-2.024-1.6-3.363-1.752-5.4-1.632-12.891-.75-37.483,2.708-73.261a5.023,5.023,0,0,1,4.5-3.7,4.651,4.651,0,0,1,3.764,4.594c-4.226,35.248-4.061,58.283-2.471,70.535a12.5,12.5,0,0,0,1.645,4.041l3.923,7.469c.777,1.858-1.487,2.869-2.852,4.377Z" transform="translate(-436.48 -1125.702)"/></g><g transform="translate(7.634 219.398)"><path class="k" d="M418.876,1213.209a3.5,3.5,0,0,1-2.92-2.282l-2.685-9.286.835,3.083c-.692-1.745-.868-6.072-.85-7.938-.053-17.483,2.625-41.1,5.574-59.128l.766-5.358a3.423,3.423,0,0,1,3.616-3.2l.082,0c1.8.087,2.941,2.176,2.879,4.2l-.77,5.374c-2.991,18.76-6.739,42.81-6.684,60.355a2.775,2.775,0,0,0,.534,2.072l2.784,6.986a5.5,5.5,0,0,1-1.366,5.283Z" transform="translate(-413.255 -1129.098)"/></g><g transform="translate(28.443 291.072)"><path class="q" d="M438.453,1202.16a9.854,9.854,0,0,0,11.131,3.962,3.312,3.312,0,0,0,1.743-4.282l-4.059-9.078,6.75,12.027a9.757,9.757,0,0,1,1.245,4.489c.074,2.481-.088,5.987-1.5,6.871a4.365,4.365,0,0,1-1.377.513c-1.256.728-10.176.187-15.249-4.637l.051.7a1.746,1.746,0,0,1-1.27,2.115c-.03.008-.061.015-.09.02a1.741,1.741,0,0,1-.513.011,1.951,1.951,0,0,1-2.159-1.716,2.014,2.014,0,0,1-.008-.35l-1.41-19.6Z" transform="translate(-431.738 -1192.762)"/><g transform="translate(0.015 0.45)"><path class="q" d="M445.564,1206.869l-2.034.047c-1.4-.672-4.2-2.017-5.7-4.088l-6.076-9.666,1.409,19.6a1.96,1.96,0,0,0,1.655,2.073,1.617,1.617,0,0,0,.51-.01,1.69,1.69,0,0,0,1.9-1.455c.007-.052.011-.1.014-.155a2.08,2.08,0,0,0-.038-.535l-.051-.7a15.376,15.376,0,0,0,6.374,4.092C446.948,1216.711,447.851,1210.343,445.564,1206.869Z" transform="translate(-431.751 -1193.162)"/></g></g><g transform="translate(7.872 291.661)"><g transform="translate(0.042)"><path class="q" d="M419.394,1202.616a9.64,9.64,0,0,0,10.936,3.93,3.289,3.289,0,0,0,1.7-4.243l-3.806-9.018,7.506,13.836.871,2.787a4.785,4.785,0,0,1-1.5,6.558,4.265,4.265,0,0,1-1.35.508,7.935,7.935,0,0,1-3.96.772c-1.333.028-5.992.109-10.976-4.67l.051.695a1.728,1.728,0,0,1-1.251,2.1l-.081.018a1.638,1.638,0,0,1-.5.01,1.878,1.878,0,0,1-2.093-1.517,1.942,1.942,0,0,1-.039-.529l-1.4-19.429Z" transform="translate(-413.503 -1193.285)"/></g><g transform="translate(0 0.439)"><path class="q" d="M427.05,1207.27l-2,.044c-1.378-.665-4.132-2-5.607-4.052l-5.978-9.587,1.4,19.429a1.946,1.946,0,0,0,1.628,2.056,1.641,1.641,0,0,0,.5-.01,1.662,1.662,0,0,0,1.858-1.442,1.425,1.425,0,0,0,.012-.153,2,2,0,0,0-.037-.531l-.05-.695a21.49,21.49,0,0,0,6.263,4.057C428.419,1217.023,429.3,1210.713,427.05,1207.27Z" transform="translate(-413.466 -1193.675)"/></g><g transform="translate(3.639 14.261)"><path class="q" d="M416.7,1205.952l.507,6.945a1.666,1.666,0,0,0,1.859-1.446c.006-.051.01-.1.011-.151a1.989,1.989,0,0,0-.037-.53Z" transform="translate(-416.698 -1205.952)"/></g></g><g transform="translate(11.787 60.524)"><g transform="translate(49.846 47.242)"><path class="k" d="M480.268,1050.439a4.067,4.067,0,0,1-2.788-.739c-4.133-2.186-8.226-5.076-13-7.962-3.419-1.44-3.967-5.736-2.485-8.6,2.182-2.87,5.7-4.313,8.421-2.169,4.8,2.872,8.937,5.031,13.091,7.205a6.866,6.866,0,0,1,2.529,8.682A5.777,5.777,0,0,1,480.268,1050.439Z" transform="translate(-461.22 -1029.941)"/></g><g transform="translate(48.833 45.706)"><path class="k" d="M483.954,1049.187a2.486,2.486,0,0,1-2.1-.734,14.1,14.1,0,0,1-4.124-2.906c-4.806-2.9-10.29-5.783-15.727-9.372-2.033-1.432-1.959-3.579-1.191-5.727,1.464-2.154,3.541-2.162,5.6-1.447,4.757,3.58,10.26,6.457,15.086,9.344a14.054,14.054,0,0,1,4.137,2.9c2.076,1.452,2.708,3.627,1.217,5.792C486.8,1048.479,485.366,1049.2,483.954,1049.187Z" transform="translate(-460.32 -1028.577)"/></g><path class="m" d="M468.038,1044.864a5.967,5.967,0,0,1-3.438-.72c-25.443-16.305-40.382-31.689-47.192-47.026a6.958,6.958,0,0,1,2.935-8.475,5.792,5.792,0,0,1,7.821,2.442q.052.1.1.2c5.6,13.285,19.378,26.569,42.937,42.111a6.837,6.837,0,0,1,1.773,9.326A8.106,8.106,0,0,1,468.038,1044.864Z" transform="translate(-416.944 -987.978)"/><g transform="translate(2.976 1.725)"><path class="m" d="M470.556,1042.522a2.429,2.429,0,0,1-2.062-.717c-18.914-10.669-41.242-30.291-48.715-46.336a5.054,5.054,0,0,1,2.187-5.662,4.181,4.181,0,0,1,5.277,2c6.224,14.693,28.7,33.605,45.647,43.544,2.044,1.432,2.666,3.588,1.2,5.742A5.4,5.4,0,0,1,470.556,1042.522Z" transform="translate(-419.588 -989.511)"/></g><g transform="translate(48.062 43.201)"><path class="n" d="M461.185,1042.9h0a3.672,3.672,0,0,0,4.906-1.421l6.619-10.056a3.763,3.763,0,0,0-1.225-5.031h0a5.307,5.307,0,0,0-4.954,2.176l-6.585,10.038A3.424,3.424,0,0,0,461.185,1042.9Z" transform="translate(-459.635 -1026.351)"/><g transform="translate(2.028 0.342)"><path class="c" d="M463.135,1040h0a3.684,3.684,0,0,0,4.916-1.428l4.409-6.47a3.767,3.767,0,0,0-1.223-5.031h0a3.715,3.715,0,0,0-4.93,1.454l-4.385,6.459C461.178,1036.422,461.08,1039.281,463.135,1040Z" transform="translate(-461.436 -1026.655)"/></g></g></g></g><g transform="translate(98.545)"><g transform="translate(2.057 62.515)"><path class="m" d="M503.066,1053.727a8.237,8.237,0,0,1-6.338-3.671c-2.026-3.644-.465-7.281,3.2-9.465,22.91-12.521,41.968-30.429,54.766-54.452a7.024,7.024,0,0,1,8.82-3.775c.383.151.934,1.136,1.277,1.351,3.74,1.41,4.915,5.08,3.265,8.861a153.2,153.2,0,0,1-15.067,22.466,149.462,149.462,0,0,1-46.283,37.97C505.253,1053.007,504.507,1053.735,503.066,1053.727Z" transform="translate(-495.833 -981.943)"/></g><g transform="translate(46.139 317.479)"><path class="r" d="M567.446,1209.532l.832,11.967L550,1221.134l-14.99.314c-.259-3.689,2.363-8.929,5.352-9l10.522-.258,2-3.775Z" transform="translate(-534.988 -1208.413)"/><g transform="translate(12.795 0.546)"><path class="r" d="M559.1,1208.9l-.447,4.494-9.144-.525c-2.266.053-4.262,3.817-2.445,8.234l18.967-.4-.781-11.217Z" transform="translate(-546.353 -1208.898)"/></g></g><g transform="translate(70.198 316.854)"><path class="r" d="M589.471,1208.984l.836,12.086-18.645-.366-15.287.321c-.259-3.726,2.419-9.018,5.467-9.091l10.732-.264,2.047-3.812Z" transform="translate(-556.359 -1207.858)"/><g transform="translate(13.049 0.552)"><path class="r" d="M580.957,1208.348l-.463,4.537-9.324-.528c-2.311.057-4.35,3.857-2.5,8.318l19.346-.406-.784-11.327Z" transform="translate(-567.949 -1208.348)"/></g></g><g transform="translate(94.751 140.846)"><path class="s" d="M593.158,1069.044c1.343,6.105-3.422,8.3-14.149,4.333l-.841-19.661,10.16-2.2Z" transform="translate(-578.168 -1051.52)"/></g><g transform="translate(82.688 149.798)"><path class="p" d="M581.654,1230.5h0c-4.632-.369-8.343-4.433-7.415-8.886,2.267-20.211-.92-60.386-3.466-96.67-1.523-21.886-3.064-42.993-3.32-57.291.161-4.51,3.357-8.236,7.966-8.185s8.386,3.121,8.218,7.662c.26,14.389,1.847,34.874,3.391,56.9,3.277,38.841,6.53,78.53,3.4,100.332A8.586,8.586,0,0,1,581.654,1230.5Z" transform="translate(-567.453 -1059.472)"/></g><g transform="translate(58.509 148.031)"><path class="p" d="M559.824,1229.494h0c-4.542-.364-8.181-4.391-7.269-8.8,2.222-20.012-.822-62.032-3.294-98.7-1.494-21.671-3.033-41.823-3.284-55.982.158-4.467,3.294-8.16,7.813-8.113s8.218,3.086,8.063,7.581c.28,13.5,1.836,33.785,3.352,55.593,2.477,37.66,5.535,80.7,3.229,102.337C567.562,1226.355,563.623,1229.8,559.824,1229.494Z" transform="translate(-545.976 -1057.901)"/></g><g transform="translate(63.239 156.689)"><path class="p" d="M562.846,1107.291c-1.2-9.035,7.186-8.807,8.393.257l12.3-20.8,1.532-21.156-33.635.284-1.255,14.162Z" transform="translate(-550.178 -1065.592)"/></g><g transform="translate(57.475 53.284)"><path class="c" d="M585.045,1074.113c-.556-6.058-.7-45.393,6.12-84.116,2.881-15.248-15.632-16.253-15.632-16.253l-13.013,1.111a39.594,39.594,0,0,0-11.847,14.5c-3.265,7.524-6.712,62.655-5.282,85.747C562.641,1078.331,571.035,1078.452,585.045,1074.113Z" transform="translate(-545.058 -973.743)"/></g><g transform="translate(57.383 55.146)"><path class="c" d="M560.407,1077.342c-4.187-31.471.849-66.687,5.827-99.792l-3.728-2.153s-8.463,3.967-11.875,15.247c-4.2,12.752-6.632,60.42-5.281,85.742A101.585,101.585,0,0,1,560.407,1077.342Z" transform="translate(-544.976 -975.397)"/></g><g transform="translate(55.388 54.353)"><path class="m" d="M562.723,974.736s-8.644,3.968-12.128,15.25c-4.348,14.244-9.682,77.511-6.344,90.941.6,4.476,8.253,5.353,7.807-3.614-.487-29.12,3.212-88.92,11.387-101.1l.832-1.522Z" transform="translate(-543.204 -974.693)"/></g><g transform="translate(86.242 308.272)"><g transform="translate(0.982)"><path class="p" d="M571.483,1202.228h0a4.064,4.064,0,0,0,2.938,4l13.093,2.526a3.761,3.761,0,0,0,4-2.728h0a4.09,4.09,0,0,0-2.979-4.021l-13.129-1.742A4.061,4.061,0,0,0,571.483,1202.228Z" transform="translate(-571.482 -1200.235)"/></g><g transform="translate(0 5.216)"><path class="p" d="M570.611,1207.592h0a4.072,4.072,0,0,0,2.936,4l13.087,2.561a3.747,3.747,0,0,0,4-2.716h0a4.1,4.1,0,0,0-2.977-4.027l-13.093-2.523A3.717,3.717,0,0,0,570.611,1207.592Z" transform="translate(-570.61 -1204.868)"/></g><g transform="translate(5.567 0.359)"><path class="p" d="M575.556,1203.285h0a4.074,4.074,0,0,0,2.95,4l8.468,2.172a3.762,3.762,0,0,0,4-2.727h0a4.09,4.09,0,0,0-2.979-4.021l-8.476-2.151C577.98,1200.446,576.379,1201.834,575.556,1203.285Z" transform="translate(-575.555 -1200.554)"/></g><g transform="translate(5.378 5.647)"><path class="p" d="M575.388,1207.964h0a4.084,4.084,0,0,0,2.95,4.01l7.717,1.371a3.75,3.75,0,0,0,4-2.718h0a4.1,4.1,0,0,0-2.978-4.026l-7.723-1.351C577.01,1205.824,575.442,1206.458,575.388,1207.964Z" transform="translate(-575.387 -1205.251)"/></g></g><g transform="translate(62.696 306.521)"><g transform="translate(0.938)"><path class="p" d="M550.529,1201.383h0a4.015,4.015,0,0,0,2.883,3.955l12.843,2.5a3.7,3.7,0,0,0,3.927-2.7h0a4.045,4.045,0,0,0-2.927-3.982l-12.847-2.464C552.9,1198.575,550.581,1199.894,550.529,1201.383Z" transform="translate(-550.528 -1198.68)"/></g><g transform="translate(0 5.159)"><path class="p" d="M549.7,1205.957h0a4.028,4.028,0,0,0,2.882,3.959l12.834,2.523a3.683,3.683,0,0,0,3.925-2.694h0a4.051,4.051,0,0,0-2.927-3.987l-12.843-2.489C552.064,1203.155,549.749,1204.47,549.7,1205.957Z" transform="translate(-549.695 -1203.263)"/></g><g transform="translate(5.435 1.076)"><path class="p" d="M554.524,1202.351h0a4.03,4.03,0,0,0,2.893,3.964l8.331,1.4a3.7,3.7,0,0,0,3.927-2.7h0a4.045,4.045,0,0,0-2.927-3.982l-8.341-1.378A3.676,3.676,0,0,0,554.524,1202.351Z" transform="translate(-554.523 -1199.636)"/></g><g transform="translate(5.252 6.3)"><path class="p" d="M554.361,1206.987h0a4.038,4.038,0,0,0,2.893,3.97l7.57,1.351a3.684,3.684,0,0,0,3.925-2.694h0a4.051,4.051,0,0,0-2.927-3.987l-7.576-1.336C555.978,1204.121,554.414,1205.5,554.361,1206.987Z" transform="translate(-554.36 -1204.276)"/></g></g><g transform="translate(74.936 45.737)"><path class="k" d="M567.214,981.529h0c-3.813.1-6.776-2.083-6.642-5.832l.266-7.506,13.016-1.152.473,8.279C574.216,978.339,571.039,981.434,567.214,981.529Z" transform="translate(-560.567 -967.04)"/></g><g transform="translate(83.797 53.28)"><path class="m" d="M595.166,1078.843a272.667,272.667,0,0,1-7.13-40.3c-1.736-16.671.8-44,.352-53.1-.37-11.371-15.8-11.7-15.8-11.7s-9.886,84.357.842,105.536C577.756,1087.654,591.536,1071.194,595.166,1078.843Z" transform="translate(-568.438 -973.74)"/></g><g transform="translate(91.718 59.458)"><path class="m" d="M619.077,1091.566a7.431,7.431,0,0,1-6.963-5.5c-4.51-28.37-12.186-55.863-35.642-95.779-2.208-2.972-.5-7.543,2.669-9.883s7.777-.95,10,2.033c24.43,41.569,32.93,70.729,37.44,100.8a7.23,7.23,0,0,1-5.9,8.356h-.015Z" transform="translate(-575.474 -979.228)"/></g><g transform="translate(124.084 147.255)"><g transform="translate(0 0.008)"><path class="m" d="M604.224,1063.179h0a4.324,4.324,0,0,1,2.516-3.792l13.622-2.167a4.3,4.3,0,0,1,3.916,2.355h0a4.344,4.344,0,0,1-2.551,3.828l-13.635,2.139C605.717,1065.494,604.165,1064.708,604.224,1063.179Z" transform="translate(-604.222 -1057.219)"/></g><g transform="translate(3.983)"><path class="m" d="M607.76,1062.463h0a4.329,4.329,0,0,1,2.524-3.8l8.822-1.447a4.3,4.3,0,0,1,3.921,2.353h0a4.341,4.341,0,0,1-2.55,3.828l-8.834,1.425A4.271,4.271,0,0,1,607.76,1062.463Z" transform="translate(-607.76 -1057.212)"/></g></g><g transform="translate(124.608 153.428)"><g transform="translate(0 0.001)"><path class="m" d="M604.7,1069.382h0a4.312,4.312,0,0,1,3.333-4.546l12.834-2.139c2.408.029,3.982.82,4.7,3.143h0a4.339,4.339,0,0,1-3.378,4.575l-12.848,2.105C606.971,1072.477,604.646,1070.91,604.7,1069.382Z" transform="translate(-604.689 -1062.697)"/></g><g transform="translate(3.988)"><path class="m" d="M608.244,1068.675h0a4.322,4.322,0,0,1,3.344-4.553l8.836-1.426c2.408.029,3.982.819,4.7,3.143h0a4.339,4.339,0,0,1-3.378,4.575l-8.845,1.4C610.519,1071.771,608.188,1070.206,608.244,1068.675Z" transform="translate(-608.231 -1062.696)"/></g></g><g transform="translate(112.668 175.905)"><g transform="translate(0.781 1.15)"><path class="t" d="M603.624,1130.9c-1.576-.063-3.125-.891-3.071-2.418l-5.775-36.015,52.37-8.781,5.343,32.831.676,3.92c-.056,1.556-.934,3.082-2.578,3.022Z" transform="translate(-594.777 -1083.682)"/></g><g transform="translate(0.809 0.375)"><path class="u" d="M652.459,1117.38c-.057,1.555-.934,3.083-2.578,3.024l-43.724,6.093c-1.576-.062-3.131-.886-3.076-2.415l-3.927-22.265L594.8,1091.79l35.22-6.069,17.152-2.727Z" transform="translate(-594.802 -1082.994)"/></g><g transform="translate(11.883)"><path class="u" d="M628.9,1082.677l-20.923,3.389c-.788-.018-1.611.729-2.435,1.475l-.9,3.04,3.2-.688h0c.056-1.53.9-3.04,2.5-3.007l16.9-2.7c1.611.035,3.2.842,3.139,2.39h0l3.265-.7-2.343-2.375A3.006,3.006,0,0,0,628.9,1082.677Z" transform="translate(-604.638 -1082.661)"/></g><g transform="translate(0 1.133)"><path class="t" d="M646.418,1083.667,642.7,1096c-.9,2.308-2.557,3.034-4.205,3.764l-32.264,5.225c-2.4.691-3.92-.882-5.441-2.458l-6.71-10.089Z" transform="translate(-594.083 -1083.667)"/></g><g transform="translate(39.556 15.598)"><path class="c" d="M631.479,1102.721h0a1.723,1.723,0,0,0,1.675-1.5l-.7-3.116a1.688,1.688,0,0,0-1.566-1.589h0a1.72,1.72,0,0,0-1.673,1.5l.693,3.114A1.689,1.689,0,0,0,631.479,1102.721Z" transform="translate(-629.218 -1096.516)"/></g><g transform="translate(12.996 19.471)"><path class="c" d="M607.841,1106.1h0a1.687,1.687,0,0,0,1.641-1.48l-.682-3.087a1.66,1.66,0,0,0-1.534-1.576h0a1.688,1.688,0,0,0-1.639,1.483l.675,3.081A1.666,1.666,0,0,0,607.841,1106.1Z" transform="translate(-605.627 -1099.956)"/></g></g><g transform="translate(125.521 161.159)"><g transform="translate(3.326 9.945)"><g transform="translate(0 1.366)"><path class="k" d="M611.38,1088.838h0c-1.589-.037-2.364-.822-2.332-1.587l-.6-5.373c.054-1.53.877-2.284,1.67-2.267h0c1.59.031,2.364.814,2.334,1.576l.6,5.386C613.8,1088.124,612.972,1088.874,611.38,1088.838Z" transform="translate(-608.453 -1079.61)"/></g><g transform="translate(4.002 0.673)"><path class="k" d="M615.742,1088.263h0c-1.594-.037-2.364-.822-2.341-1.59l-1.394-5.4c.055-1.534.88-2.289,1.675-2.274h0c1.594.033,2.364.815,2.342,1.583l.6,5.394C617.367,1087.529,616.541,1088.276,615.742,1088.263Z" transform="translate(-612.008 -1078.995)"/></g><g transform="translate(8.815)"><path class="k" d="M619.23,1087.658h0c-1.6-.037-2.377-.824-2.348-1.592l-.6-5.391c.056-1.536.883-2.292,1.689-2.278h0c1.6.03,2.379.816,2.351,1.585l.6,5.4C621.662,1086.94,620.832,1087.7,619.23,1087.658Z" transform="translate(-616.283 -1078.397)"/></g><g transform="translate(12.815 0.078)"><path class="k" d="M623.624,1086.99h0c-1.607-.037-2.384-.825-2.356-1.594l-1.432-4.647c.056-1.54.886-2.3,1.689-2.282h0c1.606.031,2.385.817,2.356,1.589l.607,5.411C625.261,1086.255,624.429,1087.008,623.624,1086.99Z" transform="translate(-619.836 -1078.466)"/></g></g><g transform="translate(1.17)"><path class="k" d="M607.524,1071.63l-.986,5.339,2.132,6.935,17.661-1.945L625,1074.224c.056-1.541-1.464-3.878-2.244-4.661h0Z" transform="translate(-606.538 -1069.563)"/></g><g transform="translate(0 0.61)"><path class="k" d="M607.655,1071.557l-1.778,5.329c-.846,1.515-.113,3.061.625,4.6l2.271,3.111.627,4.616c-.056,1.531,1.532,1.569,2.332,1.588l-1.255-9.232a19.623,19.623,0,0,1,2-11.469h0Z" transform="translate(-605.499 -1070.105)"/></g></g><g transform="translate(96.73 60.43)"><path class="m" d="M619.16,1073.8c-2.395-.029-3.927-1.583-4.638-3.893-2.619-15.35-17.6-58.834-33.866-82.846a4.607,4.607,0,0,1,.991-6.079,4.7,4.7,0,0,1,6.183.607c17.851,26.317,32.913,70.7,35.552,86.107.716,2.32-.968,4.607-4.193,5.335C619.959,1073.807,619.16,1073.8,619.16,1073.8Z" transform="translate(-579.925 -980.09)"/></g><g transform="translate(92.001 69.026)"><path class="m" d="M575.725,987.726,587,1018.58l.352-9.866-6.491-13.535Z" transform="translate(-575.725 -987.726)"/></g><g transform="translate(11.108 99.172)"><path class="m" d="M508.083,1042.342a3.816,3.816,0,0,1-3.537-2.2c-1.367-2.2-.57-4.384,1.646-5.846a154.589,154.589,0,0,0,25.465-18.505,4.1,4.1,0,1,1,5.959,5.63q-.12.127-.25.243-10.365,11.146-27.086,19.951A2.719,2.719,0,0,1,508.083,1042.342Z" transform="translate(-503.872 -1014.503)"/></g><g transform="translate(74.886 45.74)"><path class="v" d="M573.857,967.042l-13.016,1.152-.319,9.007,12.513-8.625Z" transform="translate(-560.523 -967.042)"/></g><g transform="translate(57.606)"><g transform="translate(2.043 2.406)"><path class="k" d="M546.989,943.7s.093,18.622,1.414,23.8,4.821,12.54,9.354,12.416c4.552-.126,16.875-3.483,20.163-9.616,3.3-6.15,1.039-7.582,1.864-9.119s6.424-7.04,6.755-16.138c-.475-8.305-10.181-16.92-19.364-16.475C558.046,929.008,547.87,939.936,546.989,943.7Z" transform="translate(-546.989 -928.551)"/></g><g class="w" transform="translate(4.235 29.973)"><path class="x" d="M577.676,967.22c-2.524,6.11-14.854,9.468-19.378,8.846-5.291.147-8.795-7.214-9.362-12.417l.053-1.494,12.084-.409a14.273,14.273,0,0,0,12.506-8.709l1.452,2.211a5.988,5.988,0,0,0,5.28,2.83h0C578.688,960.4,580.175,961.854,577.676,967.22Z" transform="translate(-548.936 -953.037)"/></g><g transform="translate(20.27 12.029)"><path class="p" d="M563.179,939.6c5.316.52,7.372,7.205,7.9,13.96a2.218,2.218,0,0,0,2.224,2.181h0s-.526-6.764,4.116-7.7c4.632-.186,2.789,8.2,2.789,8.2,1.6-1.576,4.94-8.511,3.635-15.272l-1.422-3.73L568.6,937.1Z" transform="translate(-563.179 -937.099)"/></g><path class="p" d="M565.442,940.94c-6.051-.486-17.37.01-18.2,2.282a7.581,7.581,0,0,1-2.068-5.124c.113-2.982,1.146-11.226,9.424-11.635a53.751,53.751,0,0,1,28.732,6.892c3.787,2.1,4.373,7.373,4.292,9.648-.83,1.549-.966,5.34-.966,5.34s.027-.758-1.386-4.484C582.4,937.934,565.442,940.94,565.442,940.94Z" transform="translate(-545.174 -926.414)"/><g transform="translate(17.855 2.331)"><path class="p" d="M580.588,932.376c-2.261-1.405-8.305-4.134-13.663-3.874-6.122,1.046-7.855,7.125-3.377,9.171,3.733,2.092,13.868-2.889,19.8,3.654a19.006,19.006,0,0,1,1.3,6.755,41.241,41.241,0,0,0,.992-6.1C585.731,939.711,584.373,934.471,580.588,932.376Z" transform="translate(-561.034 -928.485)"/></g><g transform="translate(7.132 42.353)"><path class="k" d="M563.631,964.767a4.175,4.175,0,0,1-3.173,3.849c-.759.024-1.545.8-3.061.842s-2.272.068-3-.657a4.144,4.144,0,0,1-2.89-3.648.8.8,0,0,1,.749-.771h.031l10.6-.338C563.656,964.016,564.419,963.991,563.631,964.767Z" transform="translate(-551.509 -964.034)"/></g></g><g transform="translate(69.688 59.494)"><g transform="translate(6.504)"><path class="p" d="M566.176,983.774l-2.284.053a2.245,2.245,0,0,1-2.209-2.2h0a2.606,2.606,0,0,1,2.364-2.306l2.293-.06a2.252,2.252,0,0,1,2.214,2.2h0C568.5,982.966,567.676,984.49,566.176,983.774Z" transform="translate(-561.683 -979.259)"/></g><g transform="translate(0 4.511)"><path class="p" d="M563.852,983.34c-4.68,24.834-7.828,49.568-7.946,74.261l3.989,15.761,3.6-15.716c-1.407-24.762.238-49.536,3.406-74.38Z" transform="translate(-555.906 -983.266)"/></g></g><g transform="translate(6.423 117.76)"><path class="m" d="M500.973,1031.5h0c1.464-.733,3.626-.736,4.3.724l6.157,10.25c.675,1.464.6,3.666-.877,4.391h0c-1.474.725-3.645.715-4.315-.75l-6.131-10.236C499.461,1033.687,499.512,1032.228,500.973,1031.5Z" transform="translate(-499.711 -1031.014)"/><g transform="translate(2.03 3.65)"><path class="m" d="M502.778,1034.736h0c1.464-.731,3.633-.731,4.305.731l4.116,6.594c.675,1.464.6,3.666-.877,4.391h0c-1.474.725-3.644.715-4.315-.752l-4.1-6.586C501.265,1036.925,501.315,1035.465,502.778,1034.736Z" transform="translate(-501.514 -1034.256)"/></g></g><g transform="translate(0 120.717)"><path class="m" d="M495.851,1034.087h0a3.664,3.664,0,0,1,4.964,1.456l6.131,10.235a3.954,3.954,0,0,1-1.62,5.107h0a3.7,3.7,0,0,1-4.989-1.492l-6.1-10.218C493.582,1037.723,494.372,1035.541,495.851,1034.087Z" transform="translate(-494.006 -1033.641)"/><g transform="translate(2.047 2.913)"><path class="m" d="M497.67,1036.674h0a3.676,3.676,0,0,1,4.978,1.464l4.1,6.586a3.954,3.954,0,0,1-1.62,5.107h0a3.7,3.7,0,0,1-4.989-1.49l-4.077-6.576C495.4,1040.31,496.189,1038.127,497.67,1036.674Z" transform="translate(-495.824 -1036.228)"/></g></g></g></g></g></g></svg>