
<svg xmlns="http://www.w3.org/2000/svg" width="581.793" height="470.507" viewBox="0 0 581.793 470.507"><defs><style>.a{fill:#7bc3ff;opacity:0.075;}.b{fill:#b6daf2;}.c{fill:#dbedfc;}.d,.x{fill:#fff;}.e{fill:#c9e2f6;}.f,.g{fill:none;}.f{stroke:#e5f1fb;}.g{stroke:#eaf4fc;}.h{fill:#b5dbf5;}.i{fill:#eaf3fa;}.j{fill:#e6f3ff;}.k{fill:#9acdea;}.l{fill:#0984e3;}.m{fill:#8fcef9;}.n{fill:#96caff;}.o{fill:#fff6ea;}.p{fill:#b0dbff;}.q{fill:#c0e6ff;}.r{fill:#c2e3f9;}.s{fill:#dcefff;}.t{fill:#0468ad;}.u{fill:#dce9ea;}.v{fill:#c0e1e2;}.w{fill:#cce5e5;}.x{opacity:0.29;}.y{fill:#915236;}.z{fill:#0f70b2;}</style></defs><g transform="translate(-119.761 -1093.001)"><path class="a" d="M2326.485,1325.5c-28.389,1.869-223.333,311.127-205.913,338.55s550.709,88.566,579.148,66.014S2354.873,1323.631,2326.485,1325.5Z" transform="translate(-1999.711 -232.492)"/><g transform="translate(40.966 985.871)"><g transform="translate(270.017 191.252)"><path class="b" d="M238.29,193.686l327.8,9.183,3.094-2.7-328.262-8.916Z" transform="translate(-238.29 -191.252)"/><path class="c" d="M454.321,445.616l-.02-245.788,3.094-2.7L458,443.176Z" transform="translate(-126.505 -188.212)"/><g transform="translate(0 2.404)"><path class="d" d="M566.084,447.823,238.29,405.195l0-212.358,327.8,9.178Z" transform="translate(-238.29 -192.837)"/><path class="e" d="M566.087,222.4l-327.8-11.952v-17.61l327.8,9.178Z" transform="translate(-238.289 -192.837)"/><path class="d" d="M452.047,207.324c0-3.026-2.823-5.565-6.3-5.668s-6.266,2.253-6.266,5.264,2.8,5.548,6.266,5.666S452.048,210.351,452.047,207.324Z" transform="translate(-134.174 -188.274)"/><path class="d" d="M438.77,206.882c0-3-2.776-5.518-6.194-5.619s-6.163,2.235-6.164,5.222,2.757,5.5,6.164,5.618S438.77,209.883,438.77,206.882Z" transform="translate(-140.938 -188.478)"/><path class="d" d="M425.712,206.447c0-2.976-2.732-5.471-6.093-5.571s-6.061,2.219-6.061,5.179,2.709,5.454,6.061,5.571S425.712,209.423,425.712,206.447Z" transform="translate(-147.589 -188.678)"/><path class="f" d="M344.023,391.221,248.9,379.6l0-165.138,95.123,4.132Z" transform="translate(-232.799 -181.647)"/><path class="f" d="M507.531,318.292,320.09,302.9V217.552l187.441,8.141Z" transform="translate(-195.959 -180.047)"/><path class="g" d="M471.444,379.428l-81.621-9.977V284.967l81.621,7Z" transform="translate(-159.872 -145.16)"/><path class="f" d="M414.788,371.182l-94.7-11.58V278.991l94.7,8.116Z" transform="translate(-195.959 -148.253)"/><path class="d" d="M283.045,223.12l-30.523-1.467v-1.847l30.523,1.44Z" transform="translate(-230.925 -178.88)"/><path class="d" d="M305.931,224.23l-31.5-1.514V220.84l31.5,1.487Z" transform="translate(-219.588 -178.345)"/><path class="h" d="M279.59,227.387,252.522,226v-1.846l27.068,1.362Z" transform="translate(-230.925 -176.63)"/><path class="i" d="M314.3,229.62,271.852,227v-1.872l43.376,2.162Z" transform="translate(-220.922 -176.126)"/><path class="i" d="M310.43,261.472,268.2,257.927V256.06l43.149,3.109Z" transform="translate(-222.811 -160.119)"/><path class="h" d="M275.724,231.613l-16.39-.89v-1.855l16.39.876Z" transform="translate(-227.399 -174.191)"/><path class="h" d="M275.723,236.034l-16.389-.942v-1.856l16.389.928Z" transform="translate(-227.399 -171.93)"/><path class="i" d="M309.246,233.44l-37.393-2.031v-1.872l37.393,2Z" transform="translate(-220.921 -173.845)"/><path class="i" d="M288.539,236.775l-16.687-.957v-1.872l16.687.944Z" transform="translate(-220.922 -171.563)"/><path class="i" d="M323.8,243.373l-51.877-3.144v-1.872l51.878,3.1Z" transform="translate(-220.887 -169.28)"/><path class="i" d="M307.229,246.89l-35.31-2.252v-1.872l35.31,2.22Z" transform="translate(-220.887 -166.999)"/><path class="h" d="M273.19,249.123l-20.669-1.381v-1.847l20.67,1.364Z" transform="translate(-230.926 -165.379)"/><path class="h" d="M273.19,253.537l-20.669-1.447v-1.847l20.669,1.429Z" transform="translate(-230.926 -163.129)"/><path class="i" d="M289.222,250.2l-21.139-1.414v-1.867l21.139,1.395Z" transform="translate(-222.872 -164.848)"/><path class="i" d="M309.214,256.065l-41.13-2.879v-1.867l41.129,2.844Z" transform="translate(-222.872 -162.573)"/><path class="i" d="M299.6,264.383l-31.642-2.415V260.1l31.642,2.386Z" transform="translate(-222.939 -158.027)"/><path class="i" d="M287.748,267.938l-19.794-1.572V264.5l19.794,1.555Z" transform="translate(-222.939 -155.752)"/><path class="i" d="M318.881,274.967l-50.926-4.205V268.9l50.926,4.16Z" transform="translate(-222.939 -153.477)"/><path class="i" d="M323.081,320.085l-51.214-5.8V312.41l51.214,5.758Z" transform="translate(-220.914 -130.958)"/><path class="i" d="M278.666,276.076l-10.712-.918v-1.867l10.714.908Z" transform="translate(-222.939 -151.202)"/><path class="i" d="M302.381,282.614l-34.428-3.059v-1.867l34.43,3.029Z" transform="translate(-222.939 -148.927)"/><path class="h" d="M275.723,284.662l-16.388-1.508,0-1.855,16.39,1.493Z" transform="translate(-227.4 -147.058)"/><path class="i" d="M289.527,285.937,272.819,284.4v-1.874l16.708,1.522Z" transform="translate(-220.421 -146.422)"/><path class="h" d="M273.189,288.838l-20.668-1.967v-1.845l20.668,1.947Z" transform="translate(-230.926 -145.129)"/><path class="i" d="M289.222,290.37l-21.139-2.009v-1.867l21.137,1.993Z" transform="translate(-222.872 -144.37)"/><path class="i" d="M318.906,297.751l-51-5.011v-1.868l51,4.966Z" transform="translate(-222.964 -142.104)"/><path class="i" d="M309.306,301.335l-41.4-4.2v-1.867l41.4,4.162Z" transform="translate(-222.964 -139.829)"/><path class="i" d="M298.343,304.714l-30.438-3.183v-1.866l30.438,3.154Z" transform="translate(-222.964 -137.554)"/><path class="i" d="M309.3,310.385l-41.4-4.457v-1.867l41.4,4.422Z" transform="translate(-222.964 -135.279)"/><path class="h" d="M275.866,315.622,252.52,312.96v-1.846l23.347,2.638Z" transform="translate(-230.926 -131.629)"/><path class="h" d="M275.723,320.028l-16.39-1.918v-1.856l16.389,1.9Z" transform="translate(-227.4 -128.969)"/><path class="i" d="M289.082,321.6l-16.7-1.956v-1.874l16.7,1.94Z" transform="translate(-220.647 -128.185)"/><path class="j" d="M490.022,270.293c-11.677-.772-10.721-35.728-31.13-36.775-20.063-1.026-22.042,43.666-34.874,42.765-12.689-.9-12.366-32.784-28.118-33.675-15.538-.88-15.224,35.682-27.755,34.772-12.393-.9-14.943-26.427-27.324-27.187-12.243-.753-16.664,18.025-20.732,17.741v26.709l187.441,15.4v-56.49S501.818,271.071,490.022,270.293Z" transform="translate(-195.959 -171.793)"/><path class="j" d="M415.9,311.9l-21.011-2.052v-18.2l21.01,1.886Z" transform="translate(-157.251 -141.701)"/><path class="i" d="M453.651,302.978l-41.875-3.9v-2.4l41.874,3.854Z" transform="translate(-148.512 -139.097)"/><path class="i" d="M453.651,302.978l-41.875-3.9v-2.4l41.874,3.854Z" transform="translate(-148.512 -144.097)"/><path class="i" d="M453.651,306.587l-41.875-3.994V300.2l41.875,3.949Z" transform="translate(-148.512 -137.278)"/><path class="d" d="M437.37,308.608l-25.595-2.5v-2.395l25.595,2.472Z" transform="translate(-148.512 -135.459)"/><path class="j" d="M415.9,330.029l-21.012-2.3v-18.2l21.011,2.131Z" transform="translate(-157.251 -132.447)"/><path class="i" d="M453.651,317.936l-41.875-4.293v-2.4l41.875,4.251Z" transform="translate(-148.512 -131.56)"/><path class="i" d="M453.651,321.547l-41.875-4.389v-2.4l41.875,4.346Z" transform="translate(-148.512 -129.741)"/><path class="i" d="M453.651,325.158l-41.875-4.486v-2.395l41.875,4.441Z" transform="translate(-148.512 -127.922)"/><path class="d" d="M437.369,326.989l-25.593-2.8v-2.4l25.593,2.774Z" transform="translate(-148.512 -126.103)"/><path class="j" d="M415.9,346.445l-21.011-2.521v-18.2l21.011,2.358Z" transform="translate(-157.251 -124.068)"/><path class="i" d="M453.651,334.752l-41.875-4.737v-2.4l41.875,4.694Z" transform="translate(-148.512 -123.088)"/><path class="i" d="M396.932,321.746l-55.4-6.03v-2.288l55.4,5.975Z" transform="translate(-189.865 -130.431)"/><path class="i" d="M362.535,321.077l-21.007-2.329v-2.29l21.007,2.307Z" transform="translate(-189.865 -128.863)"/><path class="i" d="M396.932,330.99l-55.4-6.366v-2.286l55.4,6.306Z" transform="translate(-189.865 -125.821)"/><path class="i" d="M362.535,330.112l-21.007-2.458v-2.286l21.007,2.434Z" transform="translate(-189.865 -124.252)"/><path class="i" d="M397.6,301.543l-55.451-5.3v-2.289l55.452,5.245Z" transform="translate(-189.541 -140.509)"/><path class="i" d="M363.178,301.328l-21.024-2.052v-2.291l21.024,2.031Z" transform="translate(-189.541 -138.94)"/><path class="i" d="M397.6,310.791l-55.451-5.637v-2.287l55.451,5.577Z" transform="translate(-189.541 -135.897)"/><path class="i" d="M363.178,310.366l-21.024-2.181V305.9l21.024,2.158Z" transform="translate(-189.541 -134.328)"/><path class="i" d="M453.651,338.361l-41.875-4.829v-2.4l41.875,4.79Z" transform="translate(-148.512 -121.269)"/><path class="i" d="M453.65,341.973l-41.874-4.928V334.65l41.875,4.885Z" transform="translate(-148.512 -119.449)"/><path class="d" d="M437.369,343.63l-25.593-3.069v-2.4l25.593,3.045Z" transform="translate(-148.512 -117.63)"/></g><path class="k" d="M311,233.885a5.742,5.742,0,0,0-5.515-5.545A5.043,5.043,0,0,0,300,233.293a5.745,5.745,0,0,0,5.483,5.545A5.047,5.047,0,0,0,311,233.885Z" transform="translate(-206.356 -172.064)"/><g transform="translate(98.308 59.123)"><path class="d" d="M303.078,235.852a.9.9,0,0,1,.624-.531c.34-.112.528-.039.49.161a.9.9,0,0,1-.624.531C303.237,236.122,303.04,236.046,303.078,235.852Zm.17-1.214.062-4.276,1.354-.149-.631,4.106Z" transform="translate(-303.073 -230.213)"/></g><path class="k" d="M309.487,259.837a5.862,5.862,0,0,0-5.5-5.639,4.933,4.933,0,0,0-5.472,4.851,5.867,5.867,0,0,0,5.472,5.637A4.933,4.933,0,0,0,309.487,259.837Z" transform="translate(-207.124 -158.685)"/><g transform="translate(96.044 98.371)"><path class="d" d="M301.586,261.681a.889.889,0,0,1,.622-.519c.34-.106.528-.03.49.17a.874.874,0,0,1-.624.519C301.745,261.954,301.548,261.875,301.586,261.681Zm.171-1.209.061-4.27,1.352-.124-.63,4.091Z" transform="translate(-301.581 -256.077)"/></g><path class="k" d="M310.511,306.482a6.111,6.111,0,0,0-5.51-5.821,4.757,4.757,0,0,0-5.48,4.677,6.113,6.113,0,0,0,5.48,5.818A4.758,4.758,0,0,0,310.511,306.482Z" transform="translate(-206.603 -134.649)"/><g transform="translate(97.58 168.898)"><path class="d" d="M302.6,308.109a.843.843,0,0,1,.622-.5c.34-.1.53-.014.49.185a.834.834,0,0,1-.624.5C302.757,308.388,302.56,308.3,302.6,308.109Zm.17-1.2.062-4.27,1.352-.08-.63,4.073Z" transform="translate(-302.593 -302.553)"/></g><path class="k" d="M339.552,326.49a6.394,6.394,0,0,0-5.733-6.015c-3.152-.357-5.7,1.745-5.7,4.692a6.4,6.4,0,0,0,5.7,6.012C336.982,331.551,339.552,329.453,339.552,326.49Z" transform="translate(-196.804 -124.401)"/><g transform="translate(136.163 199.027)"><path class="d" d="M331.319,328.054a.861.861,0,0,1,.648-.5c.354-.093.551-.006.51.2a.844.844,0,0,1-.648.5C331.484,328.339,331.279,328.249,331.319,328.054Zm.178-1.228.064-4.355,1.408-.064-.657,4.146Z" transform="translate(-331.314 -322.407)"/></g><path class="k" d="M340.187,316.528a6.344,6.344,0,0,0-5.738-5.979,4.883,4.883,0,0,0-5.7,4.733,6.347,6.347,0,0,0,5.7,5.977C337.615,321.61,340.187,319.494,340.187,316.528Z" transform="translate(-196.48 -129.535)"/><g transform="translate(137.118 183.964)"><path class="d" d="M331.948,318.14a.873.873,0,0,1,.649-.5c.354-.1.551-.011.51.193a.856.856,0,0,1-.649.5C332.115,318.425,331.908,318.337,331.948,318.14Zm.178-1.228.065-4.358,1.408-.073-.657,4.152Z" transform="translate(-331.943 -312.481)"/></g><path class="k" d="M341.184,306.815a6.3,6.3,0,0,0-5.745-5.944,4.926,4.926,0,0,0-5.713,4.774,6.3,6.3,0,0,0,5.713,5.943C338.608,311.917,341.184,309.784,341.184,306.815Z" transform="translate(-195.973 -134.541)"/><g transform="translate(138.613 169.276)"><path class="d" d="M332.933,308.476a.884.884,0,0,1,.65-.508c.355-.1.552-.014.511.188a.864.864,0,0,1-.651.51C333.1,308.761,332.893,308.673,332.933,308.476Zm.178-1.229.065-4.361,1.41-.083-.657,4.159Z" transform="translate(-332.928 -302.802)"/></g><path class="k" d="M342.12,296.927a6.25,6.25,0,0,0-5.753-5.911,4.968,4.968,0,0,0-5.719,4.815,6.253,6.253,0,0,0,5.719,5.909A4.971,4.971,0,0,0,342.12,296.927Z" transform="translate(-195.495 -139.639)"/><g transform="translate(140.018 154.32)"><path class="d" d="M333.859,298.635a.9.9,0,0,1,.651-.514c.355-.1.552-.017.511.187a.873.873,0,0,1-.651.514C334.026,298.919,333.819,298.832,333.859,298.635Zm.179-1.232.064-4.364,1.413-.092-.659,4.167Z" transform="translate(-333.854 -292.946)"/></g></g><path class="l" d="M285.31,375.748s-1.193,8.572.323,15.509c.933,4.276.141-2.134,2.973,13.981,2.056,11.711,3,49.7,3.317,54.077S294,472.887,294,472.887l6.95-.344s2.234-64.566-.127-71.195-9-13.108-9.331-16.991-.522-5.037-.522-5.037A13.536,13.536,0,0,1,285.31,375.748Z" transform="translate(55.829 95.476)"/><rect class="m" width="37.209" height="49.424" transform="translate(398.137 443.014) rotate(-150.722)"/><rect class="d" width="32.036" height="44.252" transform="translate(390.843 385.227) rotate(29.278)"/><path class="n" d="M282.849,349.091l.218,30.113,5.789,21.6,11.732,6.666,5.865-2.168,9.563-1.77,1.264-14.23-2.733-9.634-.785-35.61-7.773-12.1-16.1-6.97-6.124,9.483Z" transform="translate(54.786 69.207)"/><path class="o" d="M306.935,313.666l.143-.593a2.022,2.022,0,0,0,.009-.9h0c-.285-1.29-1.634-1.666-2.349-.654l-.775,1.1a1.451,1.451,0,0,1-.422.4l-5.153,3.156a1.759,1.759,0,0,0-.748,1.624l.341,5.116a1.606,1.606,0,0,1-1.223,1.792l-8.926,1.091a1.547,1.547,0,0,0-1.223,1.521l-.475,7.122a1.782,1.782,0,0,0,.669,1.572c1.633,1.162,5.575,3.865,7.744,4.5,1.926.566,4.909.232,6.566-.029a1.591,1.591,0,0,0,1.181-1.693l-.129-6.052,1.322-.19a1.139,1.139,0,0,0,.319-.094l.8-.366a1.606,1.606,0,0,0,.857-1.219l2.243-13.131a2,2,0,0,0-.068-.956l-.662-2.03A2.024,2.024,0,0,1,306.935,313.666Z" transform="translate(56.483 61.935)"/><path class="o" d="M322.845,364.2s6.7-4.4,7.4-6.375c.782-3.856-.736-5.8-.736-5.8h0a2.581,2.581,0,0,0-3.689.88l-1.665,2.97-1.958-.032s.02-4.955-1.4-5.484-1.791.31-1.917,1.041a35.1,35.1,0,0,0,.188,4.123s-.352,1.449-.528,2.017a3.938,3.938,0,0,0,.417,1.854Z" transform="translate(73.241 82.253)"/><g transform="translate(394.405 398.715)"><g transform="translate(0 0)"><rect class="p" width="10.491" height="0.855" transform="translate(0.414 0) rotate(28.961)"/></g><g transform="translate(10.015 5.543)"><rect class="p" width="2.244" height="0.855" transform="translate(0.414 0) rotate(28.964)"/></g><g transform="translate(12.655 7.004)"><rect class="p" width="4.442" height="0.855" transform="translate(0.414 0) rotate(28.962)"/></g></g><g transform="translate(393.51 400.333)"><g transform="translate(7.362 4.074)"><rect class="p" width="10.491" height="0.855" transform="translate(9.179 5.829) rotate(-151.037)"/></g><g transform="translate(4.563 2.525)"><rect class="p" width="2.244" height="0.855" transform="matrix(-0.875, -0.484, 0.484, -0.875, 1.963, 1.835)"/></g><g transform="translate(0 0)"><rect class="p" width="4.442" height="0.855" transform="matrix(-0.875, -0.484, 0.484, -0.875, 3.887, 2.899)"/></g></g><g transform="translate(392.615 401.951)"><rect class="p" width="12.569" height="0.855" transform="translate(10.997 6.834) rotate(-151.038)"/></g><g transform="translate(386.492 394.478)"><path class="p" d="M317.7,325.174l4.774,2.656-2.656,4.774-4.774-2.656Zm4.223,2.813-4.065-2.263-2.263,4.067,4.065,2.261Z" transform="translate(-315.045 -325.174)"/></g><g transform="translate(390.9 405.049)"><rect class="p" width="18.906" height="0.855" transform="translate(0.414 0) rotate(28.962)"/></g><g transform="translate(397.367 412.258)"><rect class="p" width="10.492" height="0.855" transform="matrix(-0.875, -0.484, 0.484, -0.875, 9.179, 5.829)"/></g><g transform="translate(390.005 406.667)"><rect class="p" width="6.983" height="0.855" transform="translate(6.11 4.129) rotate(-151.041)"/></g><g transform="translate(389.11 408.284)"><rect class="p" width="10.153" height="0.855" transform="translate(8.883 5.665) rotate(-151.038)"/></g><g transform="translate(398.492 414.994)"><rect class="p" width="2.967" height="0.855" transform="translate(2.596 2.185) rotate(-151.034)"/></g><g transform="translate(382.973 400.804)"><path class="p" d="M315.382,329.343,320.156,332l-2.656,4.774-4.774-2.657Zm4.223,2.812-4.065-2.263-2.263,4.067,4.065,2.263Z" transform="translate(-312.726 -329.343)"/></g><g transform="translate(387.349 412.982)"><rect class="p" width="18.906" height="0.855" transform="translate(0.414 0) rotate(28.962)"/></g><g transform="translate(393.816 418.674)"><rect class="p" width="10.491" height="0.855" transform="matrix(-0.875, -0.484, 0.484, -0.875, 9.179, 5.829)"/></g><g transform="translate(386.454 414.6)"><rect class="p" width="6.984" height="0.855" transform="translate(6.11 4.129) rotate(-151.038)"/></g><g transform="translate(385.559 416.218)"><rect class="p" width="10.153" height="0.855" transform="translate(8.883 5.665) rotate(-151.038)"/></g><g transform="translate(394.941 421.41)"><rect class="p" width="2.967" height="0.855" transform="translate(2.596 2.185) rotate(-151.039)"/></g><g transform="translate(379.408 407.211)"><path class="p" d="M313.033,333.565l4.772,2.657-2.656,4.772-4.772-2.656Zm4.223,2.813-4.067-2.263-2.263,4.067,4.067,2.263Z" transform="translate(-310.377 -333.565)"/></g><g transform="translate(387.155 396.756)"><path class="l" d="M316.551,329.778l-1.069-2.867.632-.235.856,2.3,4.525-1.185.171.653Z" transform="translate(-315.482 -326.675)"/></g><g transform="translate(383.856 403.235)"><path class="l" d="M314.377,334.048l-1.069-2.867.632-.235.856,2.3,4.525-1.185.171.652Z" transform="translate(-313.308 -330.945)"/></g><g transform="translate(380.557 409.715)"><path class="l" d="M312.2,338.317l-1.068-2.867.632-.235.856,2.3,4.525-1.185.171.653Z" transform="translate(-311.134 -335.215)"/></g><path class="n" d="M300.544,391.121c1.8,2.273,8.087-1.165,8.087-1.165l29.822-18.988-5.811-6.073-21.02,9.659-4.862-37.708-8.715,1.944-6.876,9.081S293.917,382.317,300.544,391.121Z" transform="translate(59.091 75.344)"/><g transform="translate(179.937 436.447)"><path class="q" d="M178.961,362.765c.011.2.023.405.042.607.018.178.043.355.067.533.029.2.059.4.1.6.033.179.071.357.112.536.044.2.09.392.143.587.049.179.1.358.156.536.061.194.124.388.193.583.062.174.129.349.2.524.08.2.167.408.258.612.076.171.155.341.238.511q.148.3.313.605c.088.164.178.328.273.49.14.24.288.478.442.716.094.144.184.288.282.433.179.262.373.522.569.78.086.114.167.229.256.341.326.413.677.819,1.047,1.223.1.1.2.2.3.308.293.307.6.61.915.91.144.137.29.273.44.41.19.17.385.34.584.51.182.155.366.308.554.461q.312.25.636.5c.2.152.395.3.6.451.222.161.451.32.681.478.212.147.426.294.646.439.238.156.484.31.73.461.31.193.616.387.938.574.6.352,1.228.684,1.859,1.008.182.094.367.185.552.276q.738.364,1.5.7c.171.077.34.156.513.231q.99.43,2.014.823c.123.045.247.088.37.134q.863.321,1.747.613c.244.08.49.161.737.238.323.1.649.2.977.3.279.082.56.164.842.243q.5.137,1,.267c.284.073.566.146.853.214.341.083.684.161,1.029.238.285.064.569.128.854.187.352.073.706.141,1.059.208.27.052.54.1.813.153.757.134,1.518.256,2.284.364.109.015.22.027.329.041q1,.137,2.009.24c.256.027.514.052.771.076.432.039.867.076,1.3.108.273.02.546.039.819.058.452.027.9.049,1.355.068.258.011.513.023.771.032.391.012.785.017,1.176.023.276,0,.552.011.829.011.419,0,.838-.006,1.257-.012.25,0,.5,0,.753-.011.382-.011.765-.029,1.147-.045.273-.011.545-.018.816-.033.416-.023.832-.055,1.246-.085.237-.017.475-.029.71-.049.5-.041,1-.093,1.492-.146.152-.015.3-.027.454-.044q.97-.107,1.932-.244c.094-.014.188-.03.284-.044q.838-.123,1.668-.263c.228-.039.452-.086.678-.127.417-.077.836-.153,1.25-.238.217-.044.431-.094.646-.141.455-.1.911-.2,1.36-.307.252-.061.5-.126.75-.188q.615-.157,1.223-.325c.232-.064.463-.131.692-.2q.963-.28,1.9-.592c.114-.038.229-.073.343-.111.722-.244,1.433-.507,2.134-.78.149-.058.3-.118.443-.178.912-.366,1.807-.753,2.678-1.167.088-.041.171-.087.259-.129.911-.44,1.8-.9,2.656-1.4,7.967-4.6,11.946-10.635,11.928-16.662l.061,21.328c.017,6.027-3.961,12.064-11.928,16.662-.856.495-1.745.958-2.656,1.4-.088.043-.173.088-.26.129q-1.307.621-2.68,1.167c-.08.032-.155.071-.235.1s-.138.05-.206.076c-.7.273-1.411.536-2.135.78-.112.038-.226.073-.34.111q-.942.312-1.909.592c-.106.032-.209.068-.316.1-.123.035-.249.064-.37.1q-.61.168-1.228.325c-.249.064-.5.127-.75.188-.449.108-.9.208-1.357.307-.17.036-.338.079-.51.115l-.138.026c-.416.085-.835.162-1.252.238-.226.043-.451.088-.677.126-.543.094-1.09.179-1.639.26-.1.014-.2.033-.3.047l-.015,0q-.958.136-1.927.244c-.168.02-.337.032-.505.05-.48.05-.959.1-1.442.14l-.038,0c-.223.018-.448.03-.672.045-.416.03-.83.062-1.246.085-.269.015-.539.023-.807.033-.387.017-.772.035-1.158.046l-.094,0c-.217.006-.433,0-.649.008-.422.006-.842.014-1.264.012-.276,0-.552-.008-.829-.011-.393-.006-.785-.011-1.178-.023-.073,0-.146,0-.219,0-.182-.006-.366-.02-.549-.027-.452-.02-.9-.041-1.357-.068-.273-.018-.546-.038-.819-.058q-.651-.048-1.3-.108c-.15-.014-.3-.023-.455-.038-.106-.011-.209-.026-.316-.038q-1.008-.1-2.009-.24c-.109-.014-.22-.026-.329-.041-.766-.108-1.528-.231-2.284-.364-.071-.014-.144-.021-.214-.035-.2-.036-.4-.079-.6-.118-.355-.067-.707-.135-1.059-.208-.287-.059-.571-.123-.854-.187-.344-.077-.689-.155-1.03-.238-.285-.068-.568-.141-.85-.214-.337-.088-.672-.176-1-.269q-.421-.116-.839-.24c-.329-.1-.656-.2-.982-.3-.143-.046-.288-.085-.429-.132-.1-.033-.2-.071-.3-.106q-.885-.291-1.75-.613c-.123-.046-.247-.088-.369-.134q-1.024-.391-2.014-.822c-.173-.074-.341-.153-.513-.231q-.76-.339-1.5-.7c-.185-.091-.37-.182-.552-.276-.631-.323-1.255-.656-1.859-1.008-.165-.1-.331-.193-.493-.291s-.293-.187-.442-.281c-.249-.153-.495-.307-.735-.464-.219-.143-.431-.29-.643-.436-.232-.159-.461-.319-.683-.479-.2-.149-.4-.3-.6-.451-.214-.164-.426-.329-.633-.495-.19-.153-.375-.309-.557-.464-.2-.168-.393-.337-.583-.508-.077-.07-.162-.138-.24-.209s-.132-.134-.2-.2q-.476-.451-.914-.91c-.1-.1-.2-.2-.3-.308-.37-.4-.721-.81-1.047-1.223-.014-.017-.032-.033-.046-.052-.074-.1-.138-.194-.211-.29-.2-.26-.39-.517-.569-.78-.1-.144-.19-.288-.282-.434-.153-.237-.3-.475-.443-.715-.038-.065-.083-.13-.12-.2-.056-.1-.1-.2-.152-.294-.109-.2-.214-.4-.313-.605-.083-.17-.162-.341-.24-.511-.09-.2-.176-.407-.256-.61-.036-.093-.082-.184-.117-.276s-.052-.165-.082-.249c-.068-.194-.132-.388-.193-.583-.055-.178-.108-.357-.156-.534-.053-.2-.1-.393-.144-.59-.023-.106-.056-.212-.077-.319-.014-.071-.02-.143-.033-.216-.036-.2-.067-.4-.1-.6-.024-.178-.049-.355-.067-.533-.02-.2-.032-.405-.042-.607-.008-.12-.023-.24-.026-.358s-.006-.237-.006-.355l-.061-21.328C178.931,362.29,178.947,362.527,178.961,362.765Z" transform="translate(-178.929 -348.179)"/><g transform="translate(9.305 0)"><path class="r" d="M185.061,364.017l7.7-4.445,29.439,7.463,4.8,1.316-1.285-2.337-4.546-10.53,8.862-2.653,6.648,16.187-8.844,5.106Z" transform="translate(-185.061 -352.831)"/></g></g><g transform="translate(179.952 404.274)"><path class="q" d="M260.259,348.592c-.012.209-.023.419-.044.628-.018.185-.043.369-.067.552-.029.209-.059.419-.1.627-.033.185-.073.369-.112.554-.044.2-.091.407-.144.61-.049.185-.1.37-.158.555-.061.2-.124.4-.194.6-.062.181-.129.361-.2.542-.082.212-.168.423-.26.634-.077.176-.156.354-.24.53q-.15.314-.314.627c-.09.17-.179.34-.275.508-.141.249-.291.5-.446.742-.093.15-.184.3-.284.449-.181.272-.375.54-.572.809-.087.117-.167.237-.258.354-.328.428-.681.85-1.053,1.267-.1.108-.2.212-.3.32q-.442.476-.92.942c-.146.143-.293.284-.443.423-.191.179-.388.354-.587.53-.184.161-.369.32-.558.48-.208.173-.422.343-.639.514-.2.155-.4.311-.6.464-.225.168-.454.332-.686.5-.214.152-.429.3-.651.454-.24.161-.487.32-.734.479-.311.2-.619.4-.944.593-.607.364-1.234.709-1.87,1.044-.184.1-.369.191-.555.285q-.742.378-1.505.731c-.171.079-.341.161-.516.238q-1,.446-2.026.851c-.123.049-.249.093-.372.14q-.867.332-1.757.636-.369.125-.742.247c-.326.1-.652.208-.982.308q-.423.127-.848.25c-.334.1-.671.187-1.008.276-.285.076-.571.152-.857.223q-.514.127-1.036.246c-.285.067-.571.132-.859.194-.354.076-.709.146-1.064.216-.273.055-.545.108-.819.158-.762.14-1.527.267-2.3.378-.111.017-.222.029-.332.044q-1.006.139-2.02.247c-.258.029-.517.055-.777.079q-.651.062-1.307.112c-.275.02-.549.041-.824.058-.454.029-.909.052-1.363.071-.258.011-.516.024-.775.033-.393.012-.789.018-1.184.023-.278,0-.555.012-.833.012-.422,0-.842-.006-1.263-.012-.253,0-.505,0-.759-.011-.384-.011-.769-.03-1.153-.047-.275-.012-.548-.02-.821-.035-.419-.024-.836-.058-1.253-.088-.238-.018-.478-.03-.715-.052-.5-.042-1-.1-1.5-.15-.152-.015-.305-.027-.457-.046q-.974-.112-1.942-.253c-.1-.014-.19-.032-.285-.046-.561-.085-1.121-.174-1.678-.273-.229-.041-.454-.088-.681-.131-.42-.08-.842-.159-1.258-.247-.219-.046-.434-.1-.651-.146-.458-.1-.915-.206-1.369-.319-.252-.062-.5-.129-.753-.2-.413-.108-.822-.218-1.231-.335-.234-.067-.464-.135-.7-.2q-.967-.291-1.915-.613c-.115-.039-.232-.074-.344-.115-.728-.253-1.443-.525-2.147-.807-.15-.061-.3-.124-.445-.185-.918-.379-1.82-.779-2.7-1.208-.088-.044-.173-.091-.261-.134-.915-.457-1.81-.936-2.672-1.449-8.014-4.767-12.016-11.022-12-17.269l-.061,22.105c-.017,6.246,3.985,12.5,12,17.269.862.511,1.756.991,2.672,1.448.087.044.173.09.261.133.876.429,1.777.83,2.7,1.209.08.033.156.073.237.106s.14.05.206.077c.706.284,1.42.555,2.149.809.112.039.228.074.341.114q.949.323,1.921.615c.106.032.211.07.319.1.123.036.249.067.372.1.408.117.821.228,1.234.337.252.065.5.132.754.194.452.112.907.217,1.366.319.172.038.34.082.513.12.046.009.093.017.14.027.417.088.838.167,1.258.246.228.044.454.091.681.132.546.1,1.1.184,1.648.267.1.015.2.035.3.049l.015,0q.965.141,1.939.252c.168.02.34.033.51.052.481.052.964.1,1.449.146l.036,0c.226.02.452.03.678.047.417.032.835.065,1.253.088.27.015.54.023.812.035.388.017.775.036,1.165.047l.094,0c.217.006.436,0,.653.008.423.006.848.014,1.272.014.278,0,.555-.009.833-.012.395-.006.791-.011,1.185-.024.073,0,.146,0,.218,0,.185-.006.369-.02.554-.029.455-.02.911-.041,1.364-.07.276-.018.549-.038.824-.059.437-.033.873-.07,1.307-.112.153-.014.307-.023.458-.039.106-.011.212-.027.319-.038q1.013-.109,2.02-.249c.111-.015.222-.027.332-.043.771-.112,1.536-.24,2.3-.378.071-.014.144-.023.215-.036.2-.036.4-.082.6-.121.357-.07.712-.141,1.065-.217.288-.061.574-.127.859-.193.348-.08.694-.161,1.036-.247q.43-.107.856-.222c.338-.091.675-.182,1.011-.278q.423-.121.844-.249.5-.152.988-.311c.143-.046.29-.088.432-.135.1-.035.2-.076.305-.111q.89-.3,1.76-.636c.123-.047.247-.091.37-.138q1.031-.405,2.026-.851c.174-.079.344-.161.516-.24q.765-.353,1.505-.73c.185-.1.372-.188.555-.285.636-.337,1.263-.681,1.87-1.046.167-.1.332-.2.5-.3s.294-.194.445-.29c.25-.159.5-.319.737-.481.222-.15.436-.3.649-.452.232-.165.463-.331.686-.5.206-.155.407-.311.605-.467.215-.17.428-.34.636-.513.191-.158.376-.319.56-.481.2-.174.4-.349.586-.527.079-.071.164-.143.241-.216s.132-.14.2-.209c.32-.311.625-.625.92-.942.1-.106.2-.212.3-.32.372-.417.725-.839,1.053-1.267.015-.018.032-.035.046-.053.076-.1.14-.2.212-.3.2-.269.392-.537.572-.809.1-.149.191-.3.285-.449.153-.246.3-.493.445-.742.038-.067.083-.134.121-.2.055-.1.1-.2.153-.305.109-.209.214-.417.314-.628.083-.176.162-.352.24-.53q.137-.316.259-.633c.036-.1.08-.19.115-.285s.053-.171.083-.258c.07-.2.134-.4.194-.6.055-.185.109-.369.158-.554.053-.2.1-.407.144-.612.024-.109.056-.22.077-.331.015-.073.021-.149.035-.223.036-.208.067-.417.1-.627.024-.184.049-.367.067-.551.02-.209.032-.419.044-.63.006-.123.021-.247.026-.372s0-.244.006-.367l.061-22.1C260.29,348.1,260.273,348.344,260.259,348.592Z" transform="translate(-178.935 -323.358)"/><g transform="translate(0 0)"><ellipse class="s" cx="24.253" cy="40.642" rx="24.253" ry="40.642" transform="matrix(0.003, -1, 1, 0.003, 0, 48.505)"/></g></g><path class="o" d="M239.011,316.8s6.357.991,6.841,1.363a35.362,35.362,0,0,1,5.988,6.207l-3.419,3.505-2.789-2.515-3.269-.184a3.016,3.016,0,0,1-1.807-.731l-3.483-3.017Z" transform="translate(31.097 64.972)"/><path class="t" d="M222.927,400.457l.314,3.983a1.871,1.871,0,0,0,1.568,1.7l1.287.209a1.872,1.872,0,0,0,.859-.061l1.158-.361a1.876,1.876,0,0,1,1.7.3l2.615,2.018a1.876,1.876,0,0,0,1.07.388l6.179.247a1.872,1.872,0,0,0,1.865-1.317h0a1.874,1.874,0,0,0-.791-2.14l-9.842-6.214a1.871,1.871,0,0,0-1.109-.287l-7.014.41Z" transform="translate(23.705 107.472)"/><path class="t" d="M235.877,388.946l.314,3.983a1.871,1.871,0,0,0,1.568,1.7l1.287.209a1.87,1.87,0,0,0,.859-.061l1.158-.361a1.876,1.876,0,0,1,1.7.3l2.615,2.018a1.876,1.876,0,0,0,1.07.389l6.179.247a1.874,1.874,0,0,0,1.865-1.317h0a1.874,1.874,0,0,0-.791-2.14l-9.843-6.214a1.871,1.871,0,0,0-1.109-.287l-7.014.41Z" transform="translate(30.407 101.515)"/><path class="l" d="M206.346,336.523s-.772,16.02-.772,17.022,2.317,8.31,5.946,10.213S228.628,374.4,228.628,374.4l3.04,20.885.161,40.062,9.392-3.505,1.34-64.48s-1.08-3.6-2.933-5.407S229.2,345.033,229.2,345.033l.232-9.211Z" transform="translate(14.796 74.814)"/><path class="l" d="M239.027,334.964s12.7,14.316,14.582,16.868,2.979,8.812,2.979,8.812l2.185,55.481L248.7,417.567l-3.706-37.206-2.769-15.975-31.661-19.07,7.374-8.858Z" transform="translate(17.378 74.37)"/><path class="d" d="M211.051,293.225c6.173-4.254,21.216-10.395,21.216-10.395l4.6,15.327.621,39.264.848,24.524s-13.753,10.53-20.114,9.976c-5.3-.554-10.1-4.156-10.1-4.156l2.041-23.97L207.4,301.969C207.163,298.359,208.6,294.914,211.051,293.225Z" transform="translate(15.729 47.391)"/><path class="n" d="M224.743,370.785s-3.8.121-8.484-.015c-5.722-.167-6.973-.779-10.055-2.357l-.483-18.039,2.067-7.011-2.6-46.086a4.908,4.908,0,0,1,2.269-4.537l5.589-3.247s15.733,20.759,16.641,31.336C230.6,331.421,227.558,363.85,224.743,370.785Z" transform="translate(14.592 50.839)"/><path class="n" d="M225.619,286.657l-2.461.74a1.787,1.787,0,0,0-1.216,1.671c-.149,3.379-.531,12.266-.59,15.011-.043,1.991,4.51,15.544,4.829,31.109.457,22.227,4.34,19.952,6.079,26.35a1.624,1.624,0,0,0,3.2-.223l.018-.1a2.079,2.079,0,0,0,.02-.6l-4.261-38.3a2.051,2.051,0,0,1-.011-.305l1.053-26.652a4.329,4.329,0,0,0-.874-2.81l-4.1-5.316A1.554,1.554,0,0,0,225.619,286.657Z" transform="translate(22.961 49.338)"/><path class="o" d="M236.2,283.234s-.395,4.128-.615,4.663c-.056.135-.158.335-.281.563a10.007,10.007,0,0,0-1.146,3.691h0a3.439,3.439,0,0,1-.558,1.546l-4.393,6.6a4.148,4.148,0,0,1-3.59,1.85l-2.341-.076-7.15-8.842.61-7.307,6.058-10.887Z" transform="translate(20.258 43.356)"/><path class="l" d="M239.99,283.037l-.1-1.807-.1-.206c-1.983-4.115-9.849-9.433-12.143-10.923a1.773,1.773,0,0,0-1.354-.241l-10.541,2.372-1.885.425,0,.009,0,0L211.2,283.185a1.767,1.767,0,0,0,.029.973l1.088,3.42.595,1.87,1.492,5.006.534.3,5.627-4.39,1.134.477,2.172-4.98a1.771,1.771,0,0,1,.706-.807l2.413-1.461,0,0,.008,0,10.934,2.181a1.771,1.771,0,0,0,1.518-.408h0a1.772,1.772,0,0,0,.6-1.431Z" transform="translate(17.679 40.656)"/><path class="o" d="M218.275,283.908l-7.084,7.15,11.11,8.656a3.011,3.011,0,0,0,4.56-1.062l1.727-3.56Z" transform="translate(17.703 47.949)"/><g transform="translate(229.848 394.027)"><path class="u" d="M212.081,336.965l.006.038a1.494,1.494,0,0,0,.132.329c.011.02.021.04.032.058a1.914,1.914,0,0,0,.241.322,2.683,2.683,0,0,0,.225.2,2.352,2.352,0,0,0,.193.167l21.45,15.3a3.881,3.881,0,0,0,.451.269c.041.021.083.041.127.062.1.046.2.085.307.126s.219.082.331.115c.132.041.266.079.4.109l.1.024c.185.036.373.065.565.083l.091.009a5.35,5.35,0,0,0,.563.021h.085c.187,0,.37-.018.552-.041l.1-.015a4.445,4.445,0,0,0,.483-.1c.029-.008.059-.012.087-.021a3.773,3.773,0,0,0,.539-.194l34.977-16.057a1.7,1.7,0,0,0,1.126-1.3l-.231,2.542a1.7,1.7,0,0,1-1.126,1.3l-34.977,16.058a3.826,3.826,0,0,1-.51.188l-.029.006-.086.021c-.1.026-.2.053-.308.073-.058.011-.115.017-.175.026l-.1.014c-.03,0-.059.011-.088.014q-.168.018-.341.027c-.041,0-.082,0-.123,0l-.085,0-.123,0c-.112,0-.223-.006-.335-.014l-.1-.011-.091-.009c-.05,0-.1-.008-.15-.015-.124-.015-.249-.035-.372-.059l-.042-.011c-.035-.006-.067-.015-.1-.023-.1-.021-.191-.041-.284-.067-.041-.012-.077-.03-.118-.043-.114-.035-.223-.074-.332-.115-.056-.023-.118-.038-.173-.062s-.09-.044-.134-.065-.085-.039-.127-.062a3.55,3.55,0,0,1-.449-.267l-21.451-15.3-.039-.029c-.059-.044-.1-.093-.153-.138a2.676,2.676,0,0,1-.225-.2l-.021-.018a1.829,1.829,0,0,1-.188-.246c-.012-.018-.02-.036-.032-.056s-.021-.04-.032-.058c-.018-.033-.039-.067-.055-.1a1.508,1.508,0,0,1-.071-.2l-.006-.03-.006-.036a1.28,1.28,0,0,1-.024-.129,1.044,1.044,0,0,1,0-.194l0-.03.231-2.543A1.164,1.164,0,0,0,212.081,336.965Z" transform="translate(-211.819 -318.88)"/><g transform="translate(0.231 0)"><path class="v" d="M213.106,341.31c-1.4.64-1.521,1.877-.275,2.766l21.45,15.3a5.291,5.291,0,0,0,4.78.448l34.977-16.057c1.393-.64,1.516-1.882.275-2.768l-21.451-15.3a5.29,5.29,0,0,0-4.779-.448Z" transform="translate(-211.972 -324.877)"/></g></g><path class="o" d="M223.382,330.741l2.98-.357a8.823,8.823,0,0,1,5.824,1.342c.827.533,1.581,1.032,1.819,1.232.6.505,2.34,4.518,2.34,4.518l-3.883,2.39-2.747-1.68a6.093,6.093,0,0,0-5.241-1.011l-1.231.332h0a4.6,4.6,0,0,1-3-1.17l-1.376-1.231,2.886-4.9Z" transform="translate(21.674 71.906)"/><g transform="translate(252.315 385.96)"><path class="w" d="M228.739,339.3c.008-.026.015-.052.021-.077l.024-.085c.014-.055.026-.109.044-.164.027-.09.058-.179.093-.267.009-.027.021-.053.032-.08l.02-.047c.015-.036.029-.073.046-.109.032-.074.067-.147.1-.219s.07-.138.108-.206l.006-.011.006-.011c.033-.059.067-.118.1-.178s.08-.13.123-.194.073-.108.111-.161l.009-.015.011-.014c.047-.065.094-.129.143-.191s.1-.131.158-.194c.024-.027.049-.053.071-.08l.038-.042c.024-.026.047-.053.071-.077.07-.076.143-.149.215-.219.033-.032.068-.061.1-.091l.09-.077c.032-.029.064-.059.1-.087.076-.062.153-.112.231-.167.05-.036.1-.076.15-.109a3.8,3.8,0,0,1,.481-.272l34.977-16.057a3.221,3.221,0,0,1,.352-.137c.038-.011.073-.017.111-.026s.058-.015.086-.021.064-.018.1-.024a1.792,1.792,0,0,1,.215-.024.907.907,0,0,1,.091,0h.035c.018,0,.036,0,.055,0a1.37,1.37,0,0,1,.158.017,1.09,1.09,0,0,1,.143.03l.029.009.018.006c.029.009.058.017.085.027.043.017.083.036.123.056a1.094,1.094,0,0,1,.114.071l.012.008,2.079,1.483a1.176,1.176,0,0,0-.334-.162l-.018-.006a1.487,1.487,0,0,0-.384-.056h-.036a2.021,2.021,0,0,0-.4.05l-.088.021a2.773,2.773,0,0,0-.463.162l-34.975,16.057a3.806,3.806,0,0,0-.481.272c-.052.033-.1.073-.15.109a3.959,3.959,0,0,0-.329.253l-.088.077a5.221,5.221,0,0,0-.388.388l-.038.041a5.9,5.9,0,0,0-.382.481l-.009.014a5.769,5.769,0,0,0-.335.533l-.006.011a5.244,5.244,0,0,0-.261.545l-.02.047a4.8,4.8,0,0,0-.17.511l-.023.085a3.906,3.906,0,0,0-.1.545l-2.027,22.377a1.687,1.687,0,0,0,.554,1.606l-2.079-1.484a1.686,1.686,0,0,1-.554-1.6l2.029-22.379A3.659,3.659,0,0,1,228.739,339.3Z" transform="translate(-226.625 -319.561)"/><g transform="translate(2.079 1.481)"><path class="u" d="M267.788,320.772c1.4-.642,2.414.071,2.276,1.592l-2.027,22.377a5.283,5.283,0,0,1-2.777,3.917l-34.977,16.057c-1.4.642-2.414-.071-2.276-1.6l2.027-22.377a5.284,5.284,0,0,1,2.777-3.912Z" transform="translate(-227.995 -320.537)"/></g><path class="x" d="M248.966,334.73c.263-2.813-1.606-4.138-4.175-2.961A9.793,9.793,0,0,0,239.667,339c-.264,2.813,1.6,4.138,4.173,2.959A9.8,9.8,0,0,0,248.966,334.73Z" transform="translate(-219.889 -313.465)"/></g><path class="n" d="M207.759,293.169a12.11,12.11,0,0,0-6.736,10.111c-.707,11.365-1.917,32.989-1.175,37.441.833,4.991,22.289,12.466,30.066,15.02a3.621,3.621,0,0,0,4.254-1.609h0a3.628,3.628,0,0,0-.841-4.656l-16.158-13.119a3.627,3.627,0,0,1-1.34-2.738l-.836-38.267a3.627,3.627,0,0,0-5.232-3.173Z" transform="translate(11.713 52.034)"/><path class="y" d="M212.722,271.895" transform="translate(18.495 41.732)"/><path class="l" d="M212.566,288.293a6.245,6.245,0,0,1-1.387-5.463c.549-3.27,1.54-8.49,2.727-10s9.384-3.961,11.968-3.2a11.711,11.711,0,0,1,4.9,2.628c1.782,1.337-1.917,4.278-1.917,4.278Z" transform="translate(17.639 40.484)"/><path class="l" d="M217.449,288.651a3.277,3.277,0,0,0-.047,1.246c.138.369.408,1.583,1.082.168s2.047-5.281,3.118-5.754a9.765,9.765,0,0,1,2.909-1.015c1.574-.366,9.97,2.354,10.754,1.985a3.018,3.018,0,0,0,1.707-3.924,18.176,18.176,0,0,0-3.276-5.216l-6.173-4.833-7.122,9.773Z" transform="translate(20.891 41.428)"/><path class="n" d="M231.647,291.879l6.237,21.6a4.032,4.032,0,0,0,.6,1.263l9.965,13.982a4.22,4.22,0,0,1,.481,3.9h0a3.34,3.34,0,0,1-5.111,1.756c-4.763-3.427-12.814-9.371-13.9-11.145-1.184-1.927-5.375-17.784-7.334-25.341a3.909,3.909,0,0,1,2.621-4.848l3.452-.826C230.421,291.8,231.114,289.959,231.647,291.879Z" transform="translate(23.525 51.629)"/><path class="l" d="M307.2,308.864c-3.21-1.215-4.147-2.586-7.018-3.159a1.742,1.742,0,0,0-.809-.2h-.147a7.49,7.49,0,0,0-4.389,0h-.1a1.736,1.736,0,0,0-.862.229,13.434,13.434,0,0,0-5.619,3.087c-.675.434-1.382.9-2.152,1.448-4.736,3.346-4.572,13.225-3.266,18.532.521,2.118,2.86,4.208,5.513,5.562a38,38,0,0,0,7.624,2.543l.209.118a1.741,1.741,0,0,0,2.064-.334L302.093,332a1.733,1.733,0,0,0,.25-1.789l-1.006-2.319a1.736,1.736,0,0,1,.225-1.76l1.1-1.408.039-.049,1.572,1.439a1.735,1.735,0,0,0,2.85-1.718l-1.076-4.115a1.725,1.725,0,0,1,.308-1.483,9.164,9.164,0,0,0,1.062-.948c2.386-2.48,2.645-2.393,2.819-3.868C310.242,313.983,310.415,310.078,307.2,308.864Z" transform="translate(54.372 58.956)"/><path class="o" d="M301.178,313.452s2.838,6.5-1.513,16.117l-2.331.694Z" transform="translate(62.282 63.238)"/><ellipse class="o" cx="1.739" cy="2.344" rx="1.739" ry="2.344" transform="translate(353.494 384.274) rotate(-41.235)"/><path class="l" d="M315.672,421.281c.328-12.789.622-18.315,1.935-23.233s-.024-17.485-.024-17.485c-16.228,7.313-31.18-2.249-31.18-2.249s.09,13.45,4.024,19.679a17.472,17.472,0,0,0,8.629,6.9c.1-1.147.313-1.862.7-1.851,1.962.058,3.615,13.556,4.112,23.894l5.216,52.36,5.812.66C315.858,479.925,315.345,434.071,315.672,421.281Z" transform="translate(56.625 96.804)"/><path class="l" d="M214.581,294.766s-8.141-13.7-.536-21.8,16.87-.575,16.87-.575" transform="translate(17.5 40.344)"/><path class="o" d="M218.835,285.352s.137-4.9-.933-5.647-2.486.593-3.2,2.293a2.959,2.959,0,0,0,.5,3.018,3.253,3.253,0,0,0,.1,2.235c.518.9,2.023,1.334,2.486.923A10.3,10.3,0,0,0,218.835,285.352Z" transform="translate(19.405 45.665)"/><path class="z" d="M290.425,440s-2.182,5.736,1.279,5.147,4.721-1.1,7.16-.505,8.076-.1,8-1.443-.838-3.1-3.75-3.694a21.8,21.8,0,0,0-7.065.266Z" transform="translate(58.355 128.363)"/><path class="z" d="M301.458,442.691s-2.334,5.736,1.37,5.147,5.052-1.1,7.662-.505,8.644-.1,8.56-1.443-.9-3.1-4.012-3.694a24.946,24.946,0,0,0-7.563.266Z" transform="translate(64.041 129.755)"/><path class="l" d="M286.368,333.289s-4.8-1.422-4.622-11.911,4.622-13.688,7.111-14.932,8.355-2.845,12.976-.712,10.269,3.26,10.126,5.892-2.61,4.677-2.61,4.677l-8.371,1.495Z" transform="translate(54.212 58.704)"/><path class="n" d="M292.086,324.987s-8.149,1.144-9.3,11.434-4.446,13.23-.988,28.113,3.727,38.056,3.727,38.056,20.161,18.325,37.616,4.728c-.085,1.258-2.44-5.414-3.134-13.959-.387-4.776-.668-11.92-1.162-29.008s-2.568-24.866-7.079-28.849-6.587,1.1-6.587,1.1l-4.774.551-5.1-.918-2.964-3.308-.329-4.226Z" transform="translate(53.446 69.207)"/><path class="l" d="M218.459,285.035s0,2.927,2.3,3.973,3.842-.062,7.129,1.4,3,1.595,2.678,2.313-2.474,4.31-3.431,4.389-1.836.957-2.713.4-6.7-4.07-7.182-5.745.639-7.581.639-7.581Z" transform="translate(20.772 48.09)"/></g></g></svg>