
<svg xmlns="http://www.w3.org/2000/svg" width="82.536" height="31.306" viewBox="0 0 82.536 31.306"><defs><style>.a{fill:#fff;}</style></defs><g transform="translate(31.174 0.231)"><path class="a" d="M97.007.7H94.632c-.1,0-.132.033-.132.132V7.759c0,.1.033.132.132.132h2.375a2.275,2.275,0,0,0,1.616-.528,1.842,1.842,0,0,0,.594-1.451V2.679a1.89,1.89,0,0,0-.594-1.451A2.275,2.275,0,0,0,97.007.7Zm1.517,5.113a1.362,1.362,0,0,1-1.451,1.451H95.292a.071.071,0,0,1-.066-.066V1.393a.071.071,0,0,1,.066-.066h1.781a1.393,1.393,0,0,1,1.056.4,1.444,1.444,0,0,1,.4,1.056Z" transform="translate(-94.5 -0.7)"/></g><path class="a" d="M118.219.7h-4.387c-.1,0-.132.033-.132.132V7.759c0,.1.033.132.132.132h4.387c.1,0,.132-.033.132-.132V7.4c0-.1-.033-.132-.132-.132h-3.728a.071.071,0,0,1-.066-.066V4.659a.071.071,0,0,1,.066-.066H117.1c.1,0,.132-.033.132-.132V4.1c0-.1-.033-.132-.132-.132h-2.606a.071.071,0,0,1-.066-.066V1.393a.071.071,0,0,1,.066-.066h3.728c.1,0,.132-.033.132-.132V.832C118.351.733,118.318.7,118.219.7Z" transform="translate(-76.192 -0.469)"/><path class="a" d="M136.887,7.232h-3.6a.071.071,0,0,1-.066-.066V.832c0-.1-.033-.132-.132-.132h-.462c-.1,0-.132.033-.132.132V7.759c0,.1.033.132.132.132h4.223c.1,0,.132-.033.132-.132V7.4C137.019,7.265,136.953,7.232,136.887,7.232Z" transform="translate(-88.791 -0.469)"/><path class="a" d="M152.716.7h-4.684c-.1,0-.132.033-.132.132v.4c0,.1.033.132.132.132h1.88a.071.071,0,0,1,.066.066v6.3c0,.1.033.132.132.132h.462c.1,0,.132-.033.132-.132V1.393a.071.071,0,0,1,.066-.066h1.979c.1,0,.132-.033.132-.132V.832C152.848.733,152.815.7,152.716.7Z" transform="translate(-99.11 -0.469)"/><g transform="translate(54.002 0.231)"><path class="a" d="M169.143,7.726,166.867.8c-.033-.066-.066-.1-.132-.1h-.66c-.066,0-.132.033-.132.1L163.7,7.726v.1a.121.121,0,0,0,.1.033h.495c.066,0,.132-.033.132-.1l.4-1.254c0-.033.033-.033.066-.033h3.068c.033,0,.033,0,.066.033l.4,1.254c.033.066.066.1.132.1h.495a.121.121,0,0,0,.1-.033c.033-.033.033-.033.033-.066A.032.032,0,0,0,169.143,7.726Zm-1.385-1.847h-2.639c-.033,0-.033-.033-.033-.066l1.32-4.189a.033.033,0,0,1,.066,0l1.32,4.189C167.791,5.846,167.791,5.879,167.758,5.879Z" transform="translate(-163.7 -0.7)"/></g><g transform="translate(37.903 11.513)"><path class="a" d="M119.057,35.461a1.948,1.948,0,0,1-1.418,3.365h-2.144c-.033,0-.033,0-.033.033l.033,3.134a.117.117,0,0,1-.132.132h-.3a.117.117,0,0,1-.132-.132l-.033-6.961a.117.117,0,0,1,.132-.132h2.606A2.05,2.05,0,0,1,119.057,35.461Zm-.4,2.507a1.453,1.453,0,0,0-1.056-2.507h-2.111c-.033,0-.033,0-.033.033v2.87c0,.033,0,.033.033.033h2.111A1.549,1.549,0,0,0,118.661,37.968Z" transform="translate(-114.9 -34.9)"/></g><g transform="translate(44.105 11.48)"><path class="a" d="M137.824,41.925,136.24,38.66a.032.032,0,0,0-.033-.033h-1.913c-.033,0-.033,0-.033.033l.033,3.233a.117.117,0,0,1-.132.132h-.3a.117.117,0,0,1-.132-.132l-.033-6.961a.117.117,0,0,1,.132-.132H136.4a1.812,1.812,0,0,1,1.913,1.913,2.03,2.03,0,0,1-.4,1.254,1.814,1.814,0,0,1-1.089.627c-.033,0-.033.033-.033.066l1.583,3.233c0,.033.033.033.033.066,0,.066-.033.066-.1.1h-.3C137.889,42.024,137.856,41.991,137.824,41.925Zm-3.629-6.532v2.8c0,.033,0,.033.033.033h2.045a1.357,1.357,0,0,0,1.418-1.418,1.444,1.444,0,0,0-.4-1.056,1.367,1.367,0,0,0-1.023-.4h-2.045C134.195,35.328,134.195,35.361,134.195,35.394Z" transform="translate(-133.7 -34.8)"/></g><g transform="translate(50.142 11.414)"><path class="a" d="M153.122,41.659a1.988,1.988,0,0,1-.825-.825,2.477,2.477,0,0,1-.3-1.221V36.942a2.477,2.477,0,0,1,.3-1.221,1.988,1.988,0,0,1,.825-.825,2.517,2.517,0,0,1,1.254-.3,2.606,2.606,0,0,1,1.254.3,2.067,2.067,0,0,1,.858.825,2.477,2.477,0,0,1,.3,1.221v2.672a2.477,2.477,0,0,1-.3,1.221,1.988,1.988,0,0,1-.825.825,2.606,2.606,0,0,1-1.254.3A2.476,2.476,0,0,1,153.122,41.659Zm2.573-.693a1.845,1.845,0,0,0,.495-1.353V36.909a1.67,1.67,0,0,0-.528-1.32,1.845,1.845,0,0,0-1.353-.495,1.67,1.67,0,0,0-1.32.528,1.818,1.818,0,0,0-.495,1.32v2.705a1.766,1.766,0,0,0,.495,1.32,1.818,1.818,0,0,0,1.32.495A1.75,1.75,0,0,0,155.695,40.967Z" transform="translate(-152 -34.6)"/></g><g transform="translate(55.981 11.447)"><path class="a" d="M174.483,34.733a.121.121,0,0,1,.033.1v.231a.117.117,0,0,1-.132.132h-2.045c-.033,0-.033,0-.033.033l.033,6.532a.117.117,0,0,1-.132.132h-.3a.117.117,0,0,1-.132-.132v-6.5c0-.033,0-.033-.033-.033h-1.913a.117.117,0,0,1-.132-.132v-.231a.117.117,0,0,1,.132-.132l4.585-.033A.115.115,0,0,0,174.483,34.733Z" transform="translate(-169.7 -34.7)"/></g><g transform="translate(62.282 11.414)"><path class="a" d="M193.385,35.062a.121.121,0,0,1-.1.033l-3.86.033c-.033,0-.033,0-.033.033v2.771c0,.033,0,.033.033.033h2.738a.117.117,0,0,1,.132.132v.231a.117.117,0,0,1-.132.132h-2.738c-.033,0-.033,0-.033.033v2.8c0,.033,0,.033.033.033l3.86-.033a.117.117,0,0,1,.132.132v.231a.117.117,0,0,1-.132.132l-4.321.033a.117.117,0,0,1-.132-.132l-.033-6.928a.117.117,0,0,1,.132-.132l4.321-.033a.117.117,0,0,1,.132.132v.231C193.418,35,193.385,35.029,193.385,35.062Z" transform="translate(-188.8 -34.6)"/></g><g transform="translate(68.385 11.282)"><path class="a" d="M208.422,41.325a1.912,1.912,0,0,1-.825-.792,2.229,2.229,0,0,1-.3-1.155V36.443a2.229,2.229,0,0,1,.3-1.155,2.119,2.119,0,0,1,.825-.792,2.477,2.477,0,0,1,1.221-.3,2.884,2.884,0,0,1,1.221.264,1.84,1.84,0,0,1,.825.759,2.11,2.11,0,0,1,.3,1.122.117.117,0,0,1-.132.132h-.3c-.066,0-.132-.033-.132-.066v-.066a1.543,1.543,0,0,0-.495-1.221,2.116,2.116,0,0,0-2.639,0,1.616,1.616,0,0,0-.495,1.254l.033,2.969a1.665,1.665,0,0,0,.495,1.254,1.887,1.887,0,0,0,1.32.462,1.69,1.69,0,0,0,1.287-.495,1.665,1.665,0,0,0,.495-1.254c0-.066.033-.1.132-.1h.3c.066,0,.132.033.132.066v.066a2.228,2.228,0,0,1-.3,1.155,2.119,2.119,0,0,1-.825.792,2.8,2.8,0,0,1-2.441.033Z" transform="translate(-207.3 -34.2)"/></g><g transform="translate(74.124 11.315)"><path class="a" d="M229.516,34.366a.121.121,0,0,1,.033.1V34.7a.117.117,0,0,1-.132.132h-2.045c-.033,0-.033,0-.033.033l.033,6.532a.117.117,0,0,1-.132.132h-.3a.117.117,0,0,1-.132-.132l-.033-6.532c0-.033,0-.033-.033-.033h-1.913a.117.117,0,0,1-.132-.132v-.231a.117.117,0,0,1,.132-.132l4.585-.033A.409.409,0,0,1,229.516,34.366Z" transform="translate(-224.7 -34.3)"/></g><g transform="translate(0 0)"><path class="a" d="M35.528,29.228,19.067.693A1.4,1.4,0,0,0,17.847,0a1.346,1.346,0,0,0-1.188.693L.2,29.228a1.311,1.311,0,0,0,0,1.386,1.386,1.386,0,0,0,1.188.693H34.308a1.346,1.346,0,0,0,1.188-.693A1.247,1.247,0,0,0,35.528,29.228Zm-.693.99a.56.56,0,0,1-.528.3H1.386a.56.56,0,0,1-.528-.3.63.63,0,0,1,0-.594L17.352,1.089a.618.618,0,0,1,1.056,0L34.869,29.623A.557.557,0,0,1,34.836,30.217Z" transform="translate(0 0)"/></g><g transform="translate(79.963 11.348)"><path class="a" d="M244.346,34.565a1.042,1.042,0,0,1,.462.462,1.365,1.365,0,0,1,.165.627,1.5,1.5,0,0,1-.165.66,1.042,1.042,0,0,1-.462.462,1.4,1.4,0,0,1-.66.165,1.5,1.5,0,0,1-.66-.165,1.042,1.042,0,0,1-.462-.462,1.4,1.4,0,0,1-.165-.66,1.365,1.365,0,0,1,.165-.627,1.24,1.24,0,0,1,.462-.462,1.1,1.1,0,0,1,.66-.165A1.4,1.4,0,0,1,244.346,34.565Zm-.1,2.012a.839.839,0,0,0,.363-.4,1.383,1.383,0,0,0,.132-.528.968.968,0,0,0-.132-.528.954.954,0,0,0-.363-.363,1.122,1.122,0,0,0-1.056,0,1.406,1.406,0,0,0-.4.363,1.122,1.122,0,0,0,0,1.056,1.137,1.137,0,0,0,.4.4.968.968,0,0,0,.528.132A1.383,1.383,0,0,0,244.247,36.577Zm-.3-.858c-.033,0-.033.033,0,.033l.165.4v.033a.071.071,0,0,1-.066.066h-.033c-.033,0-.066-.033-.1-.066l-.165-.4a.032.032,0,0,0-.033-.033h-.1c-.033,0-.033,0-.033.033v.363a.087.087,0,0,1-.1.1h-.033a.087.087,0,0,1-.1-.1v-.99a.087.087,0,0,1,.1-.1h.33a.3.3,0,0,1,.231.1.325.325,0,0,1,.1.264A.346.346,0,0,1,243.95,35.72Zm-.363-.429v.3c0,.033,0,.033.033.033h.132c.066,0,.1,0,.132-.033s.033-.066.033-.132,0-.1-.033-.132-.066-.033-.132-.033Z" transform="translate(-242.4 -34.4)"/></g><path class="a" d="M128.16,71.855a.97.97,0,0,1-.495-.462,1.2,1.2,0,0,1-.165-.693V68.92a1.533,1.533,0,0,1,.165-.693,1.323,1.323,0,0,1,.495-.462,1.833,1.833,0,0,1,.759-.165,1.679,1.679,0,0,1,.726.165,1.118,1.118,0,0,1,.495.462,1.2,1.2,0,0,1,.165.693c0,.033,0,.033-.033.066s-.033.033-.066.033h-.165c-.066,0-.066,0-.066-.033v-.033a1.045,1.045,0,0,0-.3-.759,1.2,1.2,0,0,0-1.583,0,.994.994,0,0,0-.3.759V70.7a1.045,1.045,0,0,0,.3.759,1.2,1.2,0,0,0,1.583,0,.994.994,0,0,0,.3-.759.071.071,0,0,1,.066-.066h.165c.066,0,.066,0,.066.033V70.7a1.533,1.533,0,0,1-.165.693,1.323,1.323,0,0,1-.495.462,1.679,1.679,0,0,1-.726.165A1.314,1.314,0,0,1,128.16,71.855Z" transform="translate(-85.44 -45.3)"/><path class="a" d="M137.865,75.754v-.264l.033-.033h.033a1.018,1.018,0,0,0,.363-.066c.1-.033.165-.132.231-.264s.132-.33.231-.594V74.5l-1.056-3v-.033a.071.071,0,0,1,.066-.066h.2a.071.071,0,0,1,.066.066l.891,2.573h.066l.858-2.573a.071.071,0,0,1,.066-.066h.2c.033,0,.033,0,.066.033V71.5l-1.155,3.365a5.868,5.868,0,0,1-.264.594c-.1.132-.165.231-.3.264a1.529,1.529,0,0,1-.462.066l-.132-.033Z" transform="translate(-92.275 -47.846)"/><path class="a" d="M149.241,69.975v.462a4.424,4.424,0,0,1-.066.792.961.961,0,0,1-.4.594,1.066,1.066,0,0,1-.726.231,1.205,1.205,0,0,1-.495-.1.855.855,0,0,1-.363-.33h-.033v.33c0,.033,0,.033-.033.066s-.033.033-.066.033H146.9c-.033,0-.033,0-.066-.033a.115.115,0,0,1-.033-.066V67.7c0-.033,0-.033.033-.066a.115.115,0,0,1,.066-.033h.165c.033,0,.033,0,.066.033s.033.033.033.066v1.517h.033a.807.807,0,0,1,.363-.3,1.1,1.1,0,0,1,.495-.1,1.066,1.066,0,0,1,.726.231,1.145,1.145,0,0,1,.4.627A.659.659,0,0,1,149.241,69.975Zm-.33.891c0-.1.033-.264.033-.462a1.624,1.624,0,0,0-.033-.462c-.033-.1-.033-.2-.066-.264a.709.709,0,0,0-.3-.4.889.889,0,0,0-.495-.165.81.81,0,0,0-.495.165.657.657,0,0,0-.264.4.776.776,0,0,0-.066.264c0,.1-.033.264-.033.495V70.9a.622.622,0,0,0,.066.264.733.733,0,0,0,.264.429.81.81,0,0,0,.495.165.826.826,0,0,0,.825-.594C148.878,71.064,148.878,70.965,148.911,70.866Z" transform="translate(-98.373 -45.3)"/><path class="a" d="M158.381,74.071a.878.878,0,0,0,.33-.363c.033-.033.066-.066.1-.033l.1.033c.033.033.066.066.033.1a1.233,1.233,0,0,1-.429.495,1.22,1.22,0,0,1-.693.2,1.254,1.254,0,0,1-.726-.2.983.983,0,0,1-.4-.561,2.664,2.664,0,0,1-.1-.825v-.462c0-.1.033-.2.033-.3a1.145,1.145,0,0,1,.4-.627,1.156,1.156,0,0,1,.759-.231,1.134,1.134,0,0,1,1.188.99c0,.1.033.165.033.264v.4c0,.066-.033.066-.066.066H156.93c-.033,0-.033,0-.033.033a2.052,2.052,0,0,0,.033.528.782.782,0,0,0,.3.495.921.921,0,0,0,.594.2A1.833,1.833,0,0,0,158.381,74.071Zm-1.451-1.353h0l1.748.033a.032.032,0,0,0,.033-.033,1.752,1.752,0,0,0-.033-.462.782.782,0,0,0-.3-.495.832.832,0,0,0-.561-.2,1.022,1.022,0,0,0-.561.165.867.867,0,0,0-.3.462C156.963,72.29,156.93,72.455,156.93,72.718Z" transform="translate(-104.94 -47.779)"/><path class="a" d="M168.25,71.366c.033,0,.066.033.033.1l-.066.165c0,.066-.033.066-.1.033a.913.913,0,0,0-.3-.033.7.7,0,0,0-.561.264,1.041,1.041,0,0,0-.231.627v1.847c0,.033,0,.033-.033.066s-.033.033-.066.033H166.8c-.033,0-.033,0-.066-.033a.115.115,0,0,1-.033-.066V71.4c0-.033,0-.033.033-.066a.115.115,0,0,1,.066-.033h.165c.033,0,.033,0,.066.033a.115.115,0,0,1,.033.066v.429h0a.893.893,0,0,1,.33-.363.8.8,0,0,1,.495-.132A.686.686,0,0,1,168.25,71.366Z" transform="translate(-111.709 -47.779)"/><path class="a" d="M173.2,71.791a.959.959,0,0,1-.4-.825v-.2c0-.033,0-.033.033-.066s.033-.033.066-.033h.165c.033,0,.033,0,.066.033s.033.033.033.066v.165a.714.714,0,0,0,.33.627,1.327,1.327,0,0,0,.858.231,1.407,1.407,0,0,0,.792-.2.725.725,0,0,0,.264-.594.526.526,0,0,0-.132-.4,1.2,1.2,0,0,0-.363-.33,7.163,7.163,0,0,0-.693-.33c-.33-.132-.561-.264-.726-.33a1.32,1.32,0,0,1-.4-.33.913.913,0,0,1-.165-.528,1,1,0,0,1,.363-.792,1.434,1.434,0,0,1,.957-.264,1.612,1.612,0,0,1,1.056.3,1,1,0,0,1,.4.825v.132c0,.033,0,.033-.033.066s-.033.033-.066.033h-.165c-.033,0-.033,0-.066-.033a.115.115,0,0,1-.033-.066v-.1a.766.766,0,0,0-.3-.627,1.229,1.229,0,0,0-.825-.231,1.121,1.121,0,0,0-.726.2.7.7,0,0,0-.264.561.526.526,0,0,0,.132.4.9.9,0,0,0,.33.264q.2.1.693.3a3.687,3.687,0,0,1,.726.363,1,1,0,0,1,.429.4,1.022,1.022,0,0,1,.165.561,1,1,0,0,1-.363.792,1.611,1.611,0,0,1-1.056.3A2.027,2.027,0,0,1,173.2,71.791Z" transform="translate(-115.796 -45.367)"/><path class="a" d="M185.481,74.071a.878.878,0,0,0,.33-.363c.033-.033.066-.066.1-.033l.1.033c.033.033.066.066.033.1a1.233,1.233,0,0,1-.429.495,1.22,1.22,0,0,1-.693.2,1.254,1.254,0,0,1-.726-.2.984.984,0,0,1-.4-.561,2.664,2.664,0,0,1-.1-.825v-.462c0-.1.033-.2.033-.3a1.145,1.145,0,0,1,.4-.627,1.156,1.156,0,0,1,.759-.231,1.134,1.134,0,0,1,1.188.99c0,.1.033.165.033.264v.4c0,.066-.033.066-.066.066H184.03c-.033,0-.033,0-.033.033a2.053,2.053,0,0,0,.033.528.782.782,0,0,0,.3.495.921.921,0,0,0,.594.2A1.554,1.554,0,0,0,185.481,74.071Zm-1.451-1.353h0l1.748.033a.032.032,0,0,0,.033-.033,1.752,1.752,0,0,0-.033-.462.782.782,0,0,0-.3-.495.832.832,0,0,0-.561-.2,1.022,1.022,0,0,0-.561.165.867.867,0,0,0-.3.462A3.9,3.9,0,0,1,184.03,72.718Z" transform="translate(-123.101 -47.779)"/><path class="a" d="M194.062,74.269a1.145,1.145,0,0,1-.4-.627,2.594,2.594,0,0,1-.066-.759,4.634,4.634,0,0,1,.066-.759.961.961,0,0,1,.4-.594,1.378,1.378,0,0,1,.759-.231,1.156,1.156,0,0,1,.759.231.94.94,0,0,1,.4.561c0,.066.033.1.033.165h0a.071.071,0,0,1-.066.066l-.165.033h0a.071.071,0,0,1-.066-.066v-.066a.648.648,0,0,0-.3-.429.864.864,0,0,0-.561-.165.812.812,0,0,0-.858.627,3.332,3.332,0,0,0,0,1.32.782.782,0,0,0,.3.495.811.811,0,0,0,.561.165.943.943,0,0,0,.561-.165.733.733,0,0,0,.3-.429v-.033c0-.033,0-.033.033-.033h.066l.165.033c.033,0,.033,0,.066.033s.033.033,0,.066l-.033.1a.984.984,0,0,1-.4.561,1.378,1.378,0,0,1-.759.231A2.2,2.2,0,0,1,194.062,74.269Z" transform="translate(-129.735 -47.779)"/><path class="a" d="M209.8,67.9a.115.115,0,0,1-.066.033H207.4a.032.032,0,0,0-.033.033v1.682c0,.033,0,.033.033.033h1.649c.033,0,.033,0,.066.033s.033.033.033.066v.132c0,.033,0,.033-.033.066s-.033.033-.066.033H207.4a.032.032,0,0,0-.033.033v1.946c0,.033,0,.033-.033.066s-.033.033-.066.033H207.1c-.033,0-.033,0-.066-.033S207,72.02,207,71.987V67.7c0-.033,0-.033.033-.066s.033-.033.066-.033h2.606c.033,0,.033,0,.066.033s.033.033.033.066v.132A.046.046,0,0,1,209.8,67.9Z" transform="translate(-138.714 -45.3)"/><path class="a" d="M217.366,68.362a.242.242,0,0,1-.066-.2.469.469,0,0,1,.066-.2.242.242,0,0,1,.2-.066.233.233,0,0,1,.264.264.469.469,0,0,1-.066.2.242.242,0,0,1-.2.066A.279.279,0,0,1,217.366,68.362Zm.066,3.794a.115.115,0,0,1-.033-.066V69.121c0-.033,0-.033.033-.066a.115.115,0,0,1,.066-.033h.165c.033,0,.033,0,.066.033a.115.115,0,0,1,.033.066V72.09c0,.033,0,.033-.033.066s-.033.033-.066.033H217.5A.115.115,0,0,1,217.432,72.155Z" transform="translate(-145.617 -45.501)"/><path class="a" d="M223.25,71.366c.033,0,.066.033.033.1l-.066.165c0,.066-.033.066-.1.033a.913.913,0,0,0-.3-.033.7.7,0,0,0-.561.264,1.041,1.041,0,0,0-.231.627v1.847c0,.033,0,.033-.033.066s-.033.033-.066.033H221.8c-.033,0-.033,0-.066-.033a.115.115,0,0,1-.033-.066V71.4c0-.033,0-.033.033-.066a.115.115,0,0,1,.066-.033h.165c.033,0,.033,0,.066.033a.115.115,0,0,1,.033.066v.429h0a.893.893,0,0,1,.33-.363.8.8,0,0,1,.495-.132A.622.622,0,0,1,223.25,71.366Z" transform="translate(-148.565 -47.779)"/><path class="a" d="M228.428,74.3a.9.9,0,0,1-.4-.3.634.634,0,0,1-.132-.4v-.066c0-.033,0-.033.033-.066a.115.115,0,0,1,.066-.033h.165c.033,0,.033,0,.066.033l.033.033v.066a.467.467,0,0,0,.231.4,1.055,1.055,0,0,0,.594.165.944.944,0,0,0,.561-.165.564.564,0,0,0,.231-.429.46.46,0,0,0-.1-.3.718.718,0,0,0-.264-.165c-.1-.033-.264-.1-.462-.165a3.534,3.534,0,0,1-.561-.2,1.465,1.465,0,0,1-.363-.264.608.608,0,0,1-.132-.429.666.666,0,0,1,.3-.594,1.407,1.407,0,0,1,.792-.231,1.725,1.725,0,0,1,.594.1.9.9,0,0,1,.4.3.663.663,0,0,1,.132.429h0c0,.033,0,.033-.033.066s-.033.033-.066.033h-.231l-.033-.033v-.033a.431.431,0,0,0-.231-.4,1.055,1.055,0,0,0-.594-.165.944.944,0,0,0-.561.132.47.47,0,0,0-.2.4.414.414,0,0,0,.2.363,2.778,2.778,0,0,0,.594.231,6.227,6.227,0,0,1,.594.2.935.935,0,0,1,.363.264.715.715,0,0,1,.165.462.766.766,0,0,1-.3.627,1.192,1.192,0,0,1-.792.231A1.265,1.265,0,0,1,228.428,74.3Z" transform="translate(-152.72 -47.712)"/><path class="a" d="M237.716,69.855a.115.115,0,0,1-.066.033h-.726c-.033,0-.033,0-.033.033v1.946c0,.2.033.363.132.429a.854.854,0,0,0,.462.132h.132c.033,0,.033,0,.066.033a.115.115,0,0,1,.033.066v.132c0,.066-.033.066-.066.066h-.165a1.213,1.213,0,0,1-.66-.165.7.7,0,0,1-.231-.627V69.888a.032.032,0,0,0-.033-.033H236.2c-.033,0-.033,0-.066-.033a.115.115,0,0,1-.033-.066v-.132c0-.033,0-.033.033-.066a.115.115,0,0,1,.066-.033h.363a.032.032,0,0,0,.033-.033V68.8c0-.033,0-.033.033-.066a.115.115,0,0,1,.066-.033h.165c.033,0,.033,0,.066.033a.115.115,0,0,1,.033.066v.693c0,.033,0,.033.033.033h.726c.033,0,.033,0,.066.033a.115.115,0,0,1,.033.066v.165C237.749,69.822,237.716,69.822,237.716,69.855Z" transform="translate(-158.215 -46.037)"/></svg>